<?xml version="1.0" standalone="no"?>
<!DOCTYPE svg PUBLIC "-//W3C//DTD SVG 1.1//EN" "http://www.w3.org/Graphics/SVG/1.1/DTD/svg11.dtd" >
<svg>
<metadata>
Created by FontForge 20090914 at Fri Feb 24 10:34:44 2012
 By root
Copyright (c) 2010 by Fontry West. All rights reserved.
</metadata>
<defs>
<font id="ARB-218NeonBluntMAR-50Normal" horiz-adv-x="805" >
  <font-face 
    font-family="ARB-218 Neon Blunt MAR-50"
    font-weight="400"
    font-stretch="normal"
    units-per-em="1000"
    panose-1="0 0 0 0 0 0 0 0 0 0"
    ascent="750"
    descent="-250"
    x-height="569"
    cap-height="727"
    bbox="-158.954 -257 1182 1006.67"
    underline-thickness="50"
    underline-position="-50"
    unicode-range="U+0020-U+2122"
  />
<missing-glyph horiz-adv-x="519" 
 />
    <glyph glyph-name=".notdef" horiz-adv-x="519" 
 />
    <glyph glyph-name=".null" horiz-adv-x="0" 
 />
    <glyph glyph-name="CR" horiz-adv-x="519" 
 />
    <glyph glyph-name="space" unicode=" " horiz-adv-x="250" 
 />
    <glyph glyph-name="A" unicode="A" horiz-adv-x="761" 
d="M555 262h-352v229c0 95 91 128 175 128c87 0 177 -36 177 -134v-223zM174 96h29v137h352v-137h29v388c0 120 -105 161 -206 161c-96 0 -204 -42 -204 -154v-395zM353 343h56c11 0 19 9 19 19v113c0 24 -18 46 -47 46s-47 -22 -47 -46v-113c0 -10 7 -19 19 -19zM381 741
c200 0 335 -78 335 -254v-467c0 -11 -8 -20 -20 -20h-248c-11 0 -20 9 -20 20v111c0 11 -8 20 -19 20h-56c-12 0 -19 -9 -19 -20v-111c0 -11 -9 -20 -21 -20h-248c-12 0 -20 9 -20 20v467c0 176 135 254 336 254z" />
    <glyph glyph-name="B" unicode="B" horiz-adv-x="770" 
d="M385 385h-177v232c31 5 119 8 159 8c82 0 200 -18 199 -127c-1 -80 -87 -113 -181 -113zM208 356h187c108 0 186 -22 184 -134c-13 -101 -102 -110 -197 -114h-174v248zM179 80h203c104 1 216 23 227 139c2 94 -49 140 -130 154c67 19 116 59 116 125
c0 130 -127 154 -239 154c-53 0 -145 -6 -177 -9v-563zM360 735c242 0 365 -77 364 -201c0 -61 -20 -118 -67 -154c-5 -4 -5 -9 0 -13c55 -33 88 -98 85 -170c-5 -117 -116 -197 -290 -197h-387c-10 0 -20 9 -20 20v686c0 12 10 20 20 21c79 6 217 8 295 8zM340 540v-89
c0 -12 12 -17 23 -18c49 -1 78 24 78 64c0 46 -40 64 -76 62c-10 0 -25 -9 -25 -19zM340 282v-88c0 -12 12 -17 23 -17c64 -3 90 23 90 64c0 46 -41 63 -88 61c-10 0 -25 -9 -25 -20z" />
    <glyph glyph-name="C" unicode="C" horiz-adv-x="739" 
d="M415 739c90 0 228 -13 241 -66l47 -204c4 -19 -11 -31 -24 -23c-60 31 -141 35 -196 34c-99 -1 -162 -31 -162 -113c-1 -81 65 -123 176 -124c64 0 134 11 182 26c20 6 31 -8 26 -26l-46 -191c-9 -42 -159 -64 -238 -66c-207 -1 -387 107 -390 372
c-3 283 197 381 384 381zM581 583l-7 28c-76 18 -162 22 -242 -6c-101 -35 -177 -116 -178 -247c-3 -181 123 -258 294 -258c44 0 82 2 127 12l7 28c-33 -8 -75 -13 -131 -13c-152 0 -266 62 -264 231c1 113 67 187 158 220c73 26 159 22 236 5z" />
    <glyph glyph-name="D" unicode="D" horiz-adv-x="773" 
d="M203 131v468c31 3 67 5 102 5c149 0 287 -53 281 -237c-8 -194 -149 -236 -328 -236h-55zM175 103h85c183 0 346 43 354 263c6 190 -133 267 -308 267c-40 0 -82 -4 -118 -8l-13 -1v-521zM334 257c0 -18 10 -24 33 -23c35 1 95 46 95 134c0 97 -50 132 -99 131
c-20 -2 -29 -13 -29 -31v-211zM298 735c300 0 441 -102 444 -344c3 -265 -181 -391 -429 -391h-247c-11 0 -21 9 -21 20v686c0 12 10 20 21 21c78 6 154 8 232 8z" />
    <glyph glyph-name="E" unicode="E" horiz-adv-x="666" 
d="M45 20v686c0 12 8 21 20 21h521c14 0 26 -9 27 -21l25 -178c2 -11 -8 -20 -20 -20h-278c-10 0 -19 -5 -19 -17v-18c0 -12 9 -17 19 -17h192c12 0 21 -9 21 -20v-145c0 -12 -7 -21 -21 -21h-192c-13 0 -19 -7 -19 -17v-17c0 -13 9 -18 19 -18h286c10 0 23 -9 19 -20
l-41 -178c-3 -11 -15 -20 -28 -20h-511c-12 0 -20 9 -20 20zM531 601l-4 30h-336c-8 0 -15 -7 -15 -14v-508c0 -7 7 -15 15 -15h331l7 31h-324v223h252v30h-252v223h326z" />
    <glyph glyph-name="F" unicode="F" horiz-adv-x="663" 
d="M45 21v686c0 11 10 20 21 20h524c14 0 26 -9 27 -20l25 -178c2 -12 -9 -21 -19 -21h-282c-10 0 -19 -4 -19 -17v-32c0 -11 9 -16 19 -16h192c12 0 21 -10 21 -20v-187c-2 -12 -17 -21 -30 -21h-187c-8 0 -13 -5 -15 -10v-184c0 -12 -9 -21 -19 -21h-237
c-11 0 -21 9 -21 21zM535 601l-5 30h-346c-8 0 -15 -7 -15 -14v-521h29v218h260v31h-260v256h337z" />
    <glyph glyph-name="G" unicode="G" horiz-adv-x="804" 
d="M758 388v-310c0 -58 -38 -78 -76 -78h-127c-18 0 -27 11 -28 22c-2 13 -9 14 -17 5c-23 -25 -79 -39 -142 -39c-197 0 -336 146 -337 370c-3 296 230 381 417 381c91 0 259 -13 270 -66l40 -171c3 -13 -7 -22 -25 -22c-112 0 -409 52 -412 -122c-1 -54 19 -112 83 -114
c53 -2 92 20 92 78v66c0 12 9 21 21 21h221c10 0 20 -9 20 -21zM642 319h-29v-81c-78 -113 -268 -154 -371 -49c-35 36 -56 88 -57 152c-3 122 51 196 141 232c97 38 209 32 315 19l-7 28c-102 12 -213 17 -314 -19c-105 -37 -169 -124 -165 -260c1 -73 26 -131 66 -173
c46 -47 109 -68 173 -68c82 0 163 34 219 93v-102h29v228z" />
    <glyph glyph-name="H" unicode="H" horiz-adv-x="762" 
d="M314 0h-248c-11 0 -21 9 -21 20v686c0 12 10 21 21 21h248c12 0 20 -9 20 -21v-234c0 -12 8 -20 20 -20h56c11 0 18 8 18 20v234c0 12 10 21 21 21h248c11 0 20 -9 20 -21v-686c0 -11 -9 -20 -20 -20h-248c-11 0 -21 9 -21 20v178c0 12 -7 20 -18 20h-56
c-12 0 -20 -8 -20 -20v-178c0 -11 -8 -20 -20 -20zM206 631h-31v-535h31v224h352v-224h29v535h-29v-281h-352v281z" />
    <glyph glyph-name="I" unicode="I" horiz-adv-x="392" 
d="M323 727c12 0 21 -9 21 -21v-686c0 -11 -9 -20 -21 -20h-254c-11 0 -21 9 -21 20v686c0 12 10 21 21 21h254zM209 631h-30v-535h30v535z" />
    <glyph glyph-name="J" unicode="J" horiz-adv-x="701" 
d="M359 727h277c11 0 20 -9 20 -21v-398c0 -145 -77 -323 -315 -322c-143 0 -268 35 -276 66l-44 182c-5 18 12 30 29 21c46 -21 135 -30 182 -29c83 2 108 49 108 118v362c0 12 9 21 19 21zM143 135l7 -31c35 -10 82 -16 119 -16c124 0 242 57 242 198v345h-29v-340
c0 -126 -106 -174 -213 -174c-40 0 -78 5 -126 18z" />
    <glyph glyph-name="K" unicode="K" horiz-adv-x="778" 
d="M595 380l175 -360c6 -13 -2 -20 -15 -20h-265c-18 0 -34 11 -42 26l-99 225c-4 8 -16 7 -16 -2v-229c0 -11 -8 -20 -20 -20h-248c-12 0 -20 9 -20 20v686c0 12 8 21 20 21h248c12 0 20 -9 20 -21v-249c0 -8 13 -10 16 -1l103 239c10 22 24 32 60 32h205
c19 0 26 -12 19 -29zM203 641h-29v-545h29v244h238l124 -244h36l-134 261l128 284h-32l-122 -270h-238v270z" />
    <glyph glyph-name="L" unicode="L" horiz-adv-x="638" 
d="M341 727c12 0 21 -9 21 -21v-470c0 -13 7 -18 19 -18h215c18 0 24 -12 21 -23l-42 -175c-3 -11 -14 -20 -28 -20h-482c-10 0 -20 9 -20 20v686c0 12 10 21 20 21h276zM217 631h-29v-521c0 -9 7 -15 16 -15h288l8 30h-283v506z" />
    <glyph glyph-name="M" unicode="M" horiz-adv-x="940" 
d="M450 601c12 -24 26 -25 39 0l54 105c5 12 19 21 30 21h300c12 0 22 -9 22 -21v-685c0 -11 -10 -21 -22 -21h-241c-12 0 -22 10 -22 21v200c0 13 -15 14 -19 4l-98 -204c-9 -19 -37 -19 -46 0l-98 204c-4 10 -21 9 -21 -4v-200c0 -11 -9 -21 -20 -21h-242
c-11 0 -21 10 -21 21v685c0 12 10 21 21 21h300c12 0 24 -9 30 -21zM173 96h30v474h85l168 -305c5 -10 21 -10 26 0l168 305h87v-474h31v489c0 7 -8 15 -15 15h-111c-7 0 -12 -4 -14 -8l-159 -288l-158 288c-2 4 -8 8 -14 8h-109c-7 0 -15 -8 -15 -15v-489z" />
    <glyph glyph-name="O" unicode="O" horiz-adv-x="878" 
d="M30 364c0 110 38 221 120 290c73 61 183 87 289 87s216 -26 289 -87c82 -69 120 -180 120 -290c0 -111 -38 -222 -120 -291c-73 -62 -183 -88 -289 -88s-216 26 -289 88c-82 69 -120 180 -120 291zM185 364c0 68 20 133 64 171c43 36 116 60 190 60s147 -24 190 -60
c44 -38 64 -103 64 -171s-20 -133 -64 -171c-43 -36 -116 -60 -190 -60s-147 24 -190 60c-44 38 -64 103 -64 171zM723 364c0 75 -25 151 -75 194c-48 39 -131 66 -209 66s-161 -27 -209 -66c-50 -43 -75 -119 -75 -194s25 -151 75 -194c48 -39 131 -66 209 -66
s161 27 209 66c50 43 75 119 75 194zM310 364c0 -74 52 -119 129 -119c81 0 129 51 129 119c0 70 -48 118 -129 118c-77 0 -129 -46 -129 -118z" />
    <glyph glyph-name="N" unicode="N" horiz-adv-x="761" 
d="M289 727c18 0 40 -8 48 -24l91 -172c5 -9 13 -8 13 3v172c0 12 9 21 21 21h233c12 0 21 -9 21 -21v-686c0 -11 -9 -20 -21 -20h-185c-23 0 -41 6 -50 25l-126 236c-4 9 -15 6 -15 -4v-237c0 -11 -8 -20 -19 -20h-235c-10 0 -20 9 -20 20v686c0 12 10 21 20 21h224z
M166 96h31v493h48l291 -458c3 -5 8 -7 14 -7h29c11 0 15 7 15 15v492h-30v-478h-7l-291 459c-3 5 -8 7 -14 7h-71c-7 0 -15 -7 -15 -16v-507z" />
    <glyph glyph-name="P" unicode="P" horiz-adv-x="768" 
d="M332 735c199 -2 408 -77 410 -287c2 -224 -220 -310 -396 -296c-3 0 -5 -1 -5 -6v-126c0 -11 -9 -20 -21 -20h-254c-11 0 -21 9 -21 20v683c0 11 10 19 21 20c92 7 168 12 266 12zM341 485v-88c0 -13 12 -18 23 -18c63 -2 89 24 89 64c0 45 -41 64 -87 62
c-10 -1 -25 -10 -25 -20zM207 297v302c41 4 85 8 135 8c55 0 115 -4 167 -33c46 -27 74 -74 74 -135c0 -128 -124 -161 -231 -161c-51 0 -103 8 -145 19zM178 96h29v169c44 -9 95 -16 145 -16c127 0 260 44 261 190c0 99 -64 164 -157 186c-52 13 -119 12 -175 9l-89 -6
c-7 0 -14 -7 -14 -15v-517z" />
    <glyph glyph-name="Q" unicode="Q" horiz-adv-x="879" 
d="M440 741c105 0 215 -26 289 -87c82 -69 120 -180 120 -290c0 -175 -87 -312 -251 -357c-5 -2 -10 -4 -10 -10v-46c0 -10 -10 -20 -21 -20h-255c-11 0 -21 10 -21 20v46c0 6 -5 8 -10 10c-164 45 -251 182 -251 357c0 110 38 221 121 290c73 61 183 87 289 87zM311 364
c0 -68 51 -119 129 -119c77 0 128 51 128 119c0 67 -51 118 -128 118c-78 0 -129 -51 -129 -118zM723 364c0 75 -25 151 -75 194c-48 39 -131 66 -209 66s-161 -27 -209 -66c-50 -43 -75 -119 -75 -194s25 -151 75 -194c45 -37 120 -63 194 -66v-84h30v84
c73 3 149 29 194 66c50 43 75 119 75 194zM185 364c0 68 20 133 64 171c43 36 116 60 190 60s147 -24 190 -60c44 -38 64 -103 64 -171s-20 -133 -64 -171c-43 -36 -116 -60 -190 -60s-147 24 -190 60c-44 38 -64 103 -64 171z" />
    <glyph glyph-name="R" unicode="R" horiz-adv-x="777" 
d="M331 735c199 -1 408 -70 410 -281c1 -88 -33 -153 -85 -200c-5 -5 -6 -8 -2 -15l105 -220c6 -12 -2 -19 -15 -19h-255c-18 0 -35 11 -42 26l-64 134c-2 3 -7 5 -11 5h-27c-3 0 -5 -1 -5 -4v-142c0 -11 -9 -19 -20 -19h-255c-12 0 -20 8 -20 19v683c0 11 8 20 20 21
c92 7 168 13 266 12zM340 492v-82c0 -11 12 -18 23 -18c64 -1 90 18 90 57c0 46 -41 64 -88 62c-10 0 -25 -9 -25 -19zM208 300v300c42 6 92 10 143 10c111 0 231 -37 231 -169c0 -177 -247 -154 -374 -141zM179 96h29v174c69 -8 175 -15 256 1l91 -175h34l-96 184
c68 23 120 68 120 161c0 148 -130 195 -264 195c-49 0 -105 -5 -156 -8c-7 0 -14 -7 -14 -15v-517z" />
    <glyph glyph-name="S" unicode="S" horiz-adv-x="744" 
d="M381 739c68 0 172 -11 236 -26c14 -5 23 -13 26 -28l39 -187c4 -16 -14 -29 -28 -20c-54 29 -126 51 -193 57c-75 5 -129 -3 -131 -32c0 -13 23 -24 62 -31c65 -10 139 -29 198 -58c71 -34 127 -91 127 -182c-1 -75 -33 -146 -96 -187c-68 -47 -168 -57 -286 -58
c-73 0 -153 8 -220 31c-19 6 -33 19 -38 38l-44 184c-6 19 19 25 31 18c116 -74 340 -88 340 -29c0 18 -36 28 -92 37c-65 10 -144 34 -203 74c-51 33 -80 95 -82 172c0 176 176 227 354 227zM563 605l-7 30c-44 11 -139 30 -247 12c-77 -13 -177 -66 -149 -166
c27 -88 110 -111 216 -136c95 -24 173 -46 173 -112c0 -171 -318 -123 -391 -104l8 -32c111 -24 417 -56 417 136c-1 90 -92 117 -200 143c-96 25 -169 43 -190 114c-18 80 61 121 130 130c89 12 168 3 240 -15z" />
    <glyph glyph-name="T" unicode="T" horiz-adv-x="744" 
d="M231 0c-12 0 -21 9 -21 20v471c0 13 -7 17 -19 17h-149c-12 0 -23 9 -21 21l42 177c2 12 14 21 27 21h563c14 0 25 -9 27 -21l43 -177c2 -12 -9 -21 -21 -21h-149c-12 0 -19 -4 -19 -17v-471c0 -11 -9 -20 -21 -20h-282zM145 634l-7 -31h217v-507h30v507h220l-7 31h-453z
" />
    <glyph glyph-name="U" unicode="U" horiz-adv-x="762" 
d="M428 252v454c0 12 10 21 21 21h248c11 0 20 -9 20 -21v-467c0 -175 -135 -254 -335 -254c-201 0 -337 79 -337 254v467c0 12 10 21 21 21h248c12 0 20 -9 20 -21v-454c0 -24 19 -47 48 -47s46 23 46 47zM202 631h-29v-356c0 -143 72 -196 207 -196s209 53 209 196v356
h-31v-356c0 -126 -60 -165 -178 -165s-178 39 -178 165v356z" />
    <glyph glyph-name="V" unicode="V" horiz-adv-x="804" 
d="M501 727h262c12 0 18 -9 15 -21l-184 -686c-3 -11 -15 -20 -26 -20h-332c-12 0 -23 9 -26 20l-184 686c-3 12 3 21 14 21h262c12 0 24 -9 26 -21l63 -342c2 -12 19 -12 21 0l64 342c2 12 14 21 25 21zM215 631h-32l110 -456c2 -8 9 -12 14 -12h188c6 0 13 4 15 12
l109 456h-30l-105 -438h-164z" />
    <glyph glyph-name="W" unicode="W" horiz-adv-x="970" 
d="M275 727c10 0 24 -9 26 -21l24 -189c2 -12 14 -12 17 0l35 189c2 12 13 21 24 21h168c10 0 22 -9 24 -21l35 -189c2 -13 15 -13 17 0l24 189c2 12 15 21 26 21h234c11 0 17 -9 15 -21l-142 -686c-2 -11 -15 -20 -26 -20h-221c-11 0 -21 9 -23 20l-40 174
c-2 13 -12 12 -15 0l-39 -174c-2 -11 -12 -20 -24 -20h-220c-11 0 -24 9 -26 20l-142 686c-2 12 4 21 14 21h235zM193 631h-29l80 -456c1 -7 10 -12 16 -12h111c5 0 13 5 14 12l76 357h48l76 -357c1 -7 8 -12 15 -12h110c7 0 14 5 15 12l83 456h-31l-79 -438h-87l-75 357
c-1 6 -9 12 -15 12h-72c-6 0 -13 -6 -14 -12l-77 -357h-86z" />
    <glyph glyph-name="X" unicode="X" horiz-adv-x="744" 
d="M281 0h-246c-14 0 -21 12 -15 25l189 330c5 9 5 20 0 28l-182 319c-7 12 1 25 16 25h244c11 0 26 -7 31 -18l47 -97c2 -4 12 -4 14 0l47 97c5 11 20 18 31 18h244c16 0 23 -13 17 -25l-183 -319c-4 -8 -4 -19 0 -28l189 -330c7 -13 -1 -25 -16 -25h-244
c-11 0 -26 7 -31 18l-53 119c-2 5 -13 5 -15 0l-53 -119c-5 -11 -21 -18 -31 -18zM231 631h-34l147 -260l-163 -275h35l148 252l149 -252h34l-162 275l145 260h-35l-131 -236z" />
    <glyph glyph-name="Y" unicode="Y" horiz-adv-x="801" 
d="M492 727h277c10 0 14 -9 9 -21l-219 -464v-222c0 -11 -10 -20 -20 -20h-276c-12 0 -21 9 -21 20v222l-219 464c-5 12 -1 21 9 21h277c11 0 27 -8 31 -21l52 -151c3 -12 14 -11 17 0l52 151c4 13 20 21 31 21zM224 641h-33l160 -348h35v-197h29v197h34l160 348h-32
l-147 -319h-58z" />
    <glyph glyph-name="Z" unicode="Z" horiz-adv-x="754" 
d="M38 535l41 171c3 12 14 21 28 21h577c40 0 59 -38 40 -70l-229 -410c-9 -15 -2 -29 20 -29h28c61 0 73 0 161 15c14 3 25 -7 21 -24l-45 -189c-3 -15 -20 -20 -28 -20h-606c-19 0 -30 20 -20 37l262 441c14 22 0 35 -21 35h-72c-45 0 -79 0 -132 -7c-19 -3 -29 13 -25 29
zM599 95l8 30h-334l279 489c5 9 0 22 -14 22h-375l-8 -31h358l-278 -488c-5 -10 2 -22 13 -22h351z" />
    <glyph glyph-name="a" unicode="a" horiz-adv-x="677" 
d="M30 285c0 206 131 295 244 296c52 0 102 -19 142 -48c2 -2 5 -1 5 2v14c0 12 9 20 20 20h172c11 0 19 -8 19 -20v-529c0 -11 -8 -20 -19 -20h-172c-11 0 -20 9 -20 20v14c0 2 -2 3 -4 2c-40 -29 -89 -47 -139 -46c-114 0 -248 88 -248 295zM397 360c-15 19 -39 31 -60 31
c-40 0 -82 -35 -82 -106s42 -105 82 -105c20 0 45 11 60 29v151zM504 221c-54 -70 -149 -144 -246 -117c-84 23 -108 117 -108 196c0 93 53 168 143 167c78 0 151 -52 211 -105v-141zM534 473h-30v-70c-53 43 -103 72 -151 85c-46 13 -88 11 -123 -1
c-80 -27 -111 -108 -111 -187c0 -93 33 -196 130 -225c36 -10 75 -9 116 4c47 15 94 47 139 96v-79h30v377z" />
    <glyph glyph-name="b" unicode="b" horiz-adv-x="678" 
d="M648 285c0 -207 -134 -295 -249 -295c-48 -1 -97 16 -137 44c-2 2 -6 2 -6 -3v-11c0 -12 -9 -20 -20 -20h-172c-11 0 -19 9 -19 20v717c0 11 8 20 19 20h197c11 0 20 -8 19 -20v-194c0 -6 7 -7 10 -3c20 25 46 41 113 41c114 -1 245 -90 245 -296zM280 360v-151
c15 -18 40 -30 60 -30c41 0 82 35 82 106s-41 106 -82 106c-21 0 -45 -12 -60 -31zM177 221v141c60 53 123 105 201 105c90 1 143 -74 143 -167c0 -79 -24 -173 -108 -196c-97 -27 -182 47 -236 117zM177 661h-30v-565h30v79c45 -49 82 -81 129 -96c41 -13 80 -14 116 -4
c97 29 130 132 130 225c0 79 -31 160 -111 187c-35 12 -77 14 -123 1c-48 -13 -88 -42 -141 -85v258z" />
    <glyph glyph-name="c" unicode="c" horiz-adv-x="635" 
d="M31 285c1 172 95 255 210 285c37 10 76 14 115 14c58 0 119 -8 175 -29c24 -9 34 -18 37 -28l35 -146c4 -14 -4 -25 -20 -21c-37 12 -94 35 -171 35c-98 0 -125 -51 -125 -110c0 -60 27 -109 125 -111c77 0 134 23 171 35c16 4 24 -6 20 -21l-35 -149
c-9 -32 -124 -53 -209 -53c-162 0 -330 69 -328 299zM479 75l9 31c-41 -9 -77 -11 -111 -11c-56 0 -100 11 -133 31c-60 38 -78 105 -78 170c0 26 5 52 14 72c36 84 130 109 214 109c29 0 60 -3 92 -12l-7 31c-28 7 -58 10 -85 10c-98 0 -202 -31 -242 -127
c-10 -25 -16 -52 -17 -83c0 -76 24 -153 93 -195c38 -23 88 -36 149 -36c31 0 66 4 102 10z" />
    <glyph glyph-name="d" unicode="d" horiz-adv-x="678" 
d="M30 285c0 206 135 295 248 296c37 0 74 -11 106 -27c4 -3 13 -4 13 6v177c0 12 9 20 19 20h197c11 0 20 -9 20 -20v-717c0 -11 -9 -20 -20 -20h-172c-10 0 -19 8 -19 20v16c0 8 -6 8 -9 5c-28 -31 -66 -52 -138 -51c-114 0 -245 88 -245 295zM397 210v150
c-14 18 -40 31 -60 31c-39 0 -81 -35 -81 -106s42 -106 81 -106c21 0 45 11 60 31zM501 661v-257c-53 42 -93 71 -140 84c-46 13 -88 11 -123 -1c-80 -27 -111 -108 -111 -187c0 -93 33 -198 130 -227c94 -26 173 21 244 101v-90h29v12h1v565h-30zM301 467
c77 0 140 -52 200 -104v-144c-54 -69 -139 -144 -235 -117c-84 23 -108 119 -108 198c0 93 53 168 143 167z" />
    <glyph glyph-name="e" unicode="e" horiz-adv-x="690" 
d="M30 285c0 86 30 173 94 227c57 48 138 72 222 72c82 0 163 -24 220 -72c64 -54 94 -141 94 -227c0 -52 -15 -74 -51 -74h-315c-18 0 -21 -8 -10 -23c44 -55 181 -59 317 -20c22 8 32 -6 30 -17l-24 -99c-3 -13 -14 -20 -22 -23c-67 -27 -130 -42 -227 -42
c-82 0 -177 22 -234 70c-64 54 -94 141 -94 228zM419 345c11 0 14 7 13 14c-5 40 -34 67 -79 67c-44 0 -71 -26 -78 -64c-2 -10 2 -17 11 -17h133zM154 293c0 46 20 93 53 130s79 62 135 64c60 2 112 -13 149 -51c30 -30 50 -77 55 -143h-392zM515 65l7 30
c-46 -9 -91 -13 -134 -13c-123 1 -228 44 -234 182h407c9 0 16 7 16 15c-6 145 -85 242 -235 238c-124 -4 -227 -115 -218 -239c-2 -163 116 -225 264 -225c40 0 85 5 127 12z" />
    <glyph glyph-name="f" unicode="f" horiz-adv-x="635" 
d="M496 657l-6 28c-58 13 -119 13 -165 -8c-99 -44 -95 -155 -95 -245v-103h-99v-31h99v-202h31v202h209v31h-209v103c0 75 -7 184 75 220c47 21 110 17 160 5zM116 426v82c-1 174 68 264 254 264c64 0 122 -10 175 -31c17 -8 32 -18 36 -33l33 -139c3 -11 -12 -23 -30 -18
c-59 16 -93 28 -133 20c-44 -8 -74 -51 -74 -86v-59c0 -5 4 -10 9 -10h115c13 0 27 -9 27 -21v-161c0 -13 -4 -23 -16 -23h-126c-5 0 -9 -3 -9 -10v-181c0 -11 -9 -20 -19 -20h-222c-11 0 -20 9 -20 20v181c0 6 -4 10 -9 10h-55c-12 0 -17 10 -17 23v161c0 12 16 21 28 21
h44c5 0 9 5 9 10z" />
    <glyph glyph-name="h" unicode="h" horiz-adv-x="659" 
d="M264 757c11 0 20 -8 20 -19v-216c0 -5 4 -5 7 -3c38 37 88 57 145 57c112 0 178 -68 178 -142v-414c0 -10 -9 -20 -19 -20h-201c-10 0 -19 9 -19 20v288c0 32 -13 52 -39 52c-42 1 -51 -48 -52 -79v-261c0 -11 -9 -20 -20 -20h-200c-11 0 -19 9 -19 20v718
c0 11 8 19 19 19h200zM180 661h-30v-565h30v155v-1c43 92 112 217 231 206c56 -6 68 -49 69 -98v-262h30v262c0 66 -24 120 -96 127c-113 8 -187 -80 -234 -172v348z" />
    <glyph glyph-name="i" unicode="i" horiz-adv-x="348" 
d="M174 799c72 0 132 -30 132 -101s-60 -101 -132 -101c-73 0 -132 30 -132 101s59 101 132 101zM279 569c10 0 20 -8 20 -19v-530c0 -11 -10 -20 -20 -20h-211c-10 0 -20 9 -20 20v530c0 11 10 19 20 19h211zM198 698c0 14 -10 25 -24 25s-24 -11 -24 -25s10 -25 24 -25
s24 11 24 25zM158 96h31v377h-31v-377z" />
    <glyph glyph-name="j" unicode="j" horiz-adv-x="349" 
d="M300 549v-558c0 -117 -66 -236 -236 -236c-104 0 -182 12 -189 44l-33 139c-4 14 5 24 19 18c31 -10 67 -16 107 -15c51 1 82 30 82 79v529c0 11 9 20 19 20h211c11 0 20 -8 20 -20zM175 799c72 0 132 -30 132 -101s-60 -101 -132 -101s-132 30 -132 101s60 101 132 101z
M199 698c0 14 -10 25 -24 25s-24 -11 -24 -25s10 -25 24 -25s24 11 24 25zM-47 -133l9 -28c88 -8 143 0 176 28c51 43 53 117 53 194v412h-31v-412c0 -70 -1 -137 -42 -171c-29 -24 -80 -32 -165 -23z" />
    <glyph glyph-name="k" unicode="k" horiz-adv-x="631" 
d="M265 757c11 0 20 -8 20 -19v-278c0 -7 8 -9 11 -3l65 98c6 9 19 14 29 14h210c14 0 21 -15 14 -24l-146 -226c-2 -5 -2 -12 0 -16l150 -278c6 -9 0 -25 -14 -25h-210c-10 0 -24 5 -29 15l-70 128c-3 6 -10 3 -10 -3v-120c0 -11 -9 -20 -20 -20h-200c-10 0 -20 9 -20 20
v718c0 11 10 19 20 19h200zM180 661h-29v-565h29v188h150l106 -188h34l-118 208l103 169h-35l-97 -159h-143v347z" />
    <glyph glyph-name="l" unicode="l" horiz-adv-x="340" 
d="M45 20v718c0 11 10 19 20 19h211c10 0 19 -8 19 -19v-718c0 -11 -9 -20 -19 -20h-211c-10 0 -20 9 -20 20zM158 96h31v565h-31v-565z" />
    <glyph glyph-name="m" unicode="m" horiz-adv-x="952" 
d="M248 569c10 0 19 -8 19 -20v-33c0 -5 7 -8 10 -4c37 44 83 64 137 64c75 0 131 -31 159 -73c3 -4 9 -6 12 -1c39 51 87 74 145 74c113 0 177 -68 177 -142v-414c0 -11 -9 -20 -20 -20h-189c-11 0 -19 9 -19 20v301c0 22 -13 39 -34 39c-39 1 -51 -44 -51 -110v-230
c0 -11 -9 -20 -20 -20h-192c-11 0 -20 9 -20 20v301c0 22 -8 39 -30 39c-36 1 -49 -37 -51 -93v-247c0 -11 -8 -20 -20 -20h-196c-10 0 -20 9 -20 20v529c0 11 10 20 20 20h183zM180 473h-30v-377h30v154c43 92 112 217 231 206c56 -6 68 -49 69 -98v-262h30v217
c43 77 106 151 199 143c56 -6 68 -49 69 -98v-262h30v262c0 66 -24 120 -96 127c-91 6 -156 -49 -202 -118c-2 62 -28 111 -96 118c-113 8 -187 -80 -234 -172v160z" />
    <glyph glyph-name="n" unicode="n" horiz-adv-x="659" 
d="M251 569c10 0 18 -8 18 -19v-34c0 -9 8 -11 12 -7c38 42 92 67 145 67c122 0 188 -65 188 -142v-414c0 -10 -9 -20 -19 -20h-201c-10 0 -19 9 -19 20v288c0 32 -15 52 -40 52c-44 1 -51 -41 -51 -101v-239c0 -11 -9 -20 -20 -20h-200c-11 0 -19 9 -19 20v530
c0 11 8 19 19 19h187zM180 473h-30v-377h30v155v-1c43 92 112 217 231 206c56 -6 68 -49 69 -98v-262h30v262c0 66 -24 120 -96 127c-113 8 -187 -80 -234 -172v160z" />
    <glyph glyph-name="o" unicode="o" horiz-adv-x="703" 
d="M31 285c0 86 30 172 95 226c57 48 143 72 226 72c82 0 168 -24 225 -72c65 -54 95 -140 95 -226c0 -88 -30 -174 -95 -228c-57 -48 -143 -71 -225 -71c-83 0 -169 23 -226 71c-65 54 -95 140 -95 228zM260 285c-5 -49 36 -87 92 -87c55 0 96 38 93 87c3 47 -38 85 -93 85
c-56 0 -97 -38 -92 -85zM151 285c0 51 16 106 58 139c39 32 93 43 143 43c49 0 103 -11 142 -43c42 -33 58 -88 58 -139c0 -53 -16 -107 -58 -140c-39 -32 -93 -42 -142 -42c-48 0 -104 8 -143 42c-42 33 -58 87 -58 140zM120 285c0 -61 22 -124 70 -164
c44 -36 105 -49 162 -49c56 0 117 13 161 49c49 40 70 103 70 164s-21 122 -70 163c-44 36 -105 48 -161 48c-57 0 -118 -12 -162 -48c-48 -41 -70 -102 -70 -163z" />
    <glyph glyph-name="p" unicode="p" horiz-adv-x="679" 
d="M649 285c0 -207 -146 -295 -259 -296c-34 0 -68 8 -97 22c-4 3 -12 1 -12 -8v-217c0 -10 -9 -20 -20 -20h-196c-12 0 -20 10 -20 19v765c0 11 10 19 20 19h168c11 0 18 -8 20 -19c1 -9 3 -17 18 -8c35 23 77 38 122 38c114 -1 256 -90 256 -295zM281 359v-149v1v-3
c14 -17 40 -28 60 -28c40 0 81 33 81 105c0 70 -41 104 -81 104c-21 0 -45 -10 -60 -30zM176 221v141c60 53 123 105 201 105c90 1 143 -74 143 -167c0 -79 -24 -173 -108 -196c-97 -27 -182 47 -236 117zM176 473h-30v-611h30v313c45 -49 82 -81 129 -96
c41 -13 80 -14 116 -4c97 29 130 132 130 225c0 79 -31 160 -111 187c-35 12 -77 14 -123 1c-48 -13 -88 -42 -141 -85v70z" />
    <glyph glyph-name="q" unicode="q" horiz-adv-x="680" 
d="M575 -257c-91 0 -176 88 -176 196v68c0 10 -4 9 -12 5c-30 -16 -62 -23 -97 -23c-113 1 -259 89 -259 296c0 205 141 294 256 295c52 0 99 -19 138 -49l3 19c2 11 8 19 19 19h168c10 0 20 -8 20 -20v-570c0 -41 25 -61 58 -56l32 4c14 2 24 -8 21 -20l-37 -131
c-6 -25 -57 -33 -134 -33zM399 359c-16 20 -40 30 -60 30c-40 0 -81 -34 -81 -104c0 -72 41 -106 81 -106c19 0 45 11 60 29v151zM502 362v-141c-54 -70 -139 -144 -236 -117c-84 23 -108 117 -108 196c0 93 53 168 143 167c78 0 141 -52 201 -105zM532 -3v476h-30v-70
c-53 43 -93 72 -141 85c-46 13 -88 11 -123 -1c-80 -27 -111 -108 -111 -187c0 -93 33 -196 130 -225c36 -10 75 -9 116 4c47 15 84 47 129 96v-178c0 -57 7 -112 43 -147c19 -19 47 -23 85 -26l9 26c-33 2 -57 6 -73 21c-28 28 -34 76 -34 126z" />
    <glyph glyph-name="r" unicode="r" horiz-adv-x="575" 
d="M284 133v-113c0 -12 -9 -20 -20 -20h-200c-11 0 -19 8 -19 19v531c0 11 8 19 19 19h187c10 0 18 -8 18 -19v-12c0 -7 9 -8 13 -4c33 32 82 57 140 57c54 0 79 -15 85 -40l47 -198c4 -16 -11 -25 -27 -21c-30 11 -89 17 -130 6c-51 -15 -112 -71 -113 -162v-5v-38z
M434 459l-7 29c-41 -4 -81 -14 -118 -31c-52 -25 -99 -62 -131 -115v131h-30v-377h30v179c28 74 81 125 144 155c35 16 73 26 112 29z" />
    <glyph glyph-name="s" unicode="s" horiz-adv-x="622" 
d="M591 171c1 -129 -103 -186 -282 -186c-85 0 -171 13 -221 25c-11 2 -19 10 -21 21l-33 151c-3 13 10 22 23 17c84 -34 217 -45 267 -41c22 2 24 19 8 30c-30 22 -301 11 -301 209c-2 130 103 186 280 186c85 0 172 -13 221 -25c12 -2 20 -10 22 -21l34 -151
c2 -13 -12 -21 -23 -17c-86 34 -218 49 -267 44c-23 -2 -24 -19 -10 -30c31 -22 302 -14 303 -212zM148 104l8 -32c51 -7 106 -14 156 -12c82 4 154 25 174 72c49 108 -85 139 -159 160c-53 15 -107 30 -136 56c-32 26 -43 62 -14 95c50 62 168 46 236 37
c20 -3 41 -6 61 -10l-8 32c-16 3 -33 6 -49 8c-80 11 -204 24 -264 -47c-39 -46 -28 -102 18 -139c35 -29 92 -45 148 -60c52 -15 174 -39 138 -119c-16 -35 -74 -52 -147 -55c-52 -3 -110 5 -162 14z" />
    <glyph glyph-name="t" unicode="t" horiz-adv-x="575" 
d="M346 757c11 3 20 -8 20 -20v-159c0 -5 5 -9 10 -9h103c13 0 25 -9 27 -22l40 -162c2 -11 -6 -21 -17 -21h-153c-6 0 -10 -6 -10 -10v-112c0 -24 11 -35 36 -41c27 -4 83 8 118 21c15 5 27 -6 24 -21l-39 -159c-7 -32 -64 -53 -168 -53c-125 0 -207 104 -207 201v164
c0 3 -3 10 -9 10h-83c-12 0 -20 10 -17 21l39 162c3 13 15 22 27 22h34c6 0 9 5 9 9v112c0 10 10 16 20 19zM419 85l9 29c-81 -14 -165 11 -165 104v234h170l-7 30h-163v159l-30 -8v-151h-92l-8 -30h100v-234c0 -107 89 -144 186 -133z" />
    <glyph glyph-name="u" unicode="u" horiz-adv-x="659" 
d="M375 286v263c0 11 10 20 20 20h201c10 0 18 -8 18 -19v-531c0 -11 -8 -19 -18 -19h-187c-11 0 -19 8 -19 19v38c0 5 -7 8 -11 4c-28 -32 -68 -72 -134 -72c-121 0 -200 76 -200 221v339c0 11 10 20 20 20h199c12 0 20 -8 20 -20v-303c0 -24 16 -43 38 -45
c36 0 53 31 53 85zM479 96h30v377h-30v-169c-40 -93 -112 -202 -231 -191c-56 6 -68 49 -69 98v262h-30v-262c0 -66 24 -120 96 -127c113 -8 187 63 234 155v-143z" />
    <glyph glyph-name="v" unicode="v" horiz-adv-x="685" 
d="M263 569c11 0 17 -8 20 -20l55 -205c2 -6 6 -7 9 0l55 205c3 12 9 20 20 20h220c11 0 20 -8 20 -20l-185 -529c-4 -11 -9 -20 -20 -20h-229c-11 0 -16 9 -20 20l-185 529c0 12 8 20 20 20h220zM192 473h-33l106 -326c3 -8 10 -11 14 -11h128c5 0 12 4 14 11l104 326h-31
l-98 -306h-106z" />
    <glyph glyph-name="w" unicode="w" horiz-adv-x="889" 
d="M648 569h197c11 0 21 -8 19 -20l-105 -529c-2 -12 -8 -20 -19 -20h-247c-11 0 -18 8 -20 20l-22 112c-2 11 -10 11 -12 0l-22 -112c-2 -12 -9 -20 -20 -20h-247c-11 0 -18 8 -20 20l-105 529c-2 12 10 20 20 20h196c11 0 19 -8 20 -20l20 -191c2 -12 15 -12 16 0l24 191
c1 12 10 20 20 20h208c11 0 18 -8 19 -20l24 -191c2 -12 16 -12 17 0l20 191c1 12 9 20 19 20zM169 473h-30l60 -324c1 -6 8 -13 15 -13h127c7 0 13 7 15 13l49 269h80l49 -269c1 -6 8 -13 15 -13h127c7 0 13 7 15 13l60 324h-31l-57 -306h-101l-50 269c-2 6 -9 13 -14 13
h-106c-6 0 -14 -7 -14 -13l-50 -269h-101z" />
    <glyph glyph-name="x" unicode="x" horiz-adv-x="677" 
d="M38 569h220c21 0 32 -3 42 -19l29 -61c6 -11 13 -11 19 0l29 61c10 16 21 19 42 19h219c17 0 21 -12 16 -21l-141 -246c-9 -16 -9 -20 0 -35l141 -245c5 -10 1 -22 -16 -22h-219c-21 0 -32 3 -42 19l-27 59c-6 13 -17 13 -23 0l-27 -59c-10 -16 -21 -19 -42 -19h-219
c-17 0 -21 12 -16 22l140 245c9 15 9 19 0 35l-140 246c-5 9 -1 21 15 21zM227 473h-34l104 -182l-109 -195h35l103 185h24l105 -185h36l-109 195l103 182h-34l-93 -163h-38z" />
    <glyph glyph-name="y" unicode="y" horiz-adv-x="659" 
d="M326 -246c-120 0 -196 9 -203 40l-34 140c-4 14 4 25 21 20c47 -14 83 -27 154 -27c71 1 125 36 125 99v13c0 4 -4 5 -6 3c-29 -34 -81 -53 -139 -53c-105 0 -199 60 -199 197v363c0 12 8 20 20 20h199c11 0 20 -9 20 -20v-296c0 -28 12 -52 41 -52c44 0 49 36 49 101
v247c1 12 10 20 21 20h200c10 0 19 -9 19 -20v-456c0 -176 -58 -339 -288 -339zM479 233v-149c0 -86 -17 -165 -85 -203c-43 -25 -109 -30 -198 -16l9 -30c90 -13 159 -7 205 19c79 46 99 134 99 230v389h-30v-175c-40 -93 -112 -196 -231 -185c-56 6 -68 49 -69 98v262h-30
v-262c0 -66 24 -120 96 -127c113 -8 187 57 234 149z" />
    <glyph glyph-name="z" unicode="z" horiz-adv-x="641" 
d="M31 382l40 172c2 9 10 15 22 15h480c30 0 40 -21 27 -45l-160 -300c-7 -12 -1 -21 15 -21h47c33 0 57 3 97 11c11 2 20 -5 15 -20l-41 -178c-2 -12 -15 -16 -21 -16h-507c-16 0 -24 15 -16 29l173 313c6 11 2 25 -14 25h-51c-34 0 -45 -1 -87 -8c-14 -2 -22 11 -19 23z
M151 484l-7 -29h251l-181 -347c-6 -9 2 -22 12 -22h267l7 31h-249l182 346c5 10 -2 21 -13 21h-269z" />
    <glyph glyph-name="g" unicode="g" horiz-adv-x="678" 
d="M30 284c0 206 131 295 245 296c50 0 99 -18 138 -46c6 -4 9 -2 9 4v11c0 11 9 19 19 19h172c11 0 20 -8 20 -19v-456c0 -176 -58 -340 -289 -340c-119 0 -195 14 -202 41l-34 140c-4 14 4 25 19 20c49 -14 85 -27 156 -27c70 1 123 36 125 96c0 4 -1 5 -4 3
c-38 -23 -81 -37 -126 -37c-113 0 -248 89 -248 295zM397 359c-15 19 -39 30 -60 30c-39 0 -81 -34 -81 -105s42 -105 81 -105c20 0 46 11 60 29v151zM501 473v-69c-53 42 -93 71 -140 84c-46 13 -88 11 -123 -1c-80 -27 -111 -108 -111 -187c0 -93 33 -198 130 -227
c94 -26 173 21 244 101v-90c0 -86 -17 -165 -85 -203c-43 -25 -109 -30 -198 -16l9 -30c90 -13 159 -7 205 19c79 46 98 134 98 230v389h-29zM301 467c77 0 140 -52 200 -104v-144c-54 -69 -139 -144 -235 -117c-84 23 -108 119 -108 198c0 93 53 168 143 167z" />
    <glyph glyph-name="braceleft" unicode="{" horiz-adv-x="797" 
d="M747 528v-301c0 -11 -9 -20 -19 -20h-254c-11 0 -21 -10 -21 -20v-88c0 -21 -14 -29 -31 -17l-373 279c-12 9 -12 23 0 33l373 278c17 13 31 4 31 -16v-88c0 -11 10 -21 21 -21h254c10 0 19 -9 19 -19zM647 363v30h-384l134 95v37l-189 -134c-7 -6 -7 -21 0 -25l189 -137
v38l-134 96h384z" />
    <glyph glyph-name="zero" unicode="0" horiz-adv-x="723" 
d="M685 364c0 -267 -120 -378 -324 -378c-202 0 -323 111 -323 378s121 378 323 378c204 0 324 -111 324 -378zM419 364c0 104 -10 171 -58 171c-47 0 -57 -67 -57 -171c0 -105 10 -171 57 -171c48 0 58 66 58 171zM539 364c0 -44 -3 -111 -28 -167
c-23 -52 -66 -94 -150 -94c-83 0 -128 42 -151 94c-24 56 -27 123 -27 167c0 45 3 111 27 167c23 53 68 94 151 94c84 0 127 -41 150 -94c25 -56 28 -122 28 -167zM570 364c0 47 -4 118 -31 179c-28 63 -80 113 -178 113s-151 -50 -179 -114c-27 -60 -29 -131 -29 -178
s2 -118 29 -178c28 -62 81 -114 179 -114s150 50 178 114c27 60 31 131 31 178z" />
    <glyph glyph-name="one" unicode="1" horiz-adv-x="488" 
d="M420 727c11 0 20 -8 20 -20v-686c0 -12 -9 -21 -20 -21h-262c-12 0 -21 9 -21 21v467c0 12 -10 20 -20 20h-63c-10 0 -23 9 -20 20l41 179c2 11 13 20 27 20h318zM157 632l-7 -29h125v-507h29v521c0 8 -7 15 -14 15h-133z" />
    <glyph glyph-name="two" unicode="2" horiz-adv-x="660" 
d="M38 524l41 167c4 18 26 30 48 36c51 15 111 22 169 23c72 1 151 -3 216 -36c68 -34 110 -93 109 -181c-1 -222 -255 -245 -279 -321c-2 -7 0 -12 6 -12c71 0 155 0 245 30c18 6 34 0 31 -17l-45 -187c-3 -11 -14 -26 -33 -26h-484c-11 0 -17 7 -20 19
c-5 14 -11 67 -11 86c1 108 35 186 118 264c100 93 199 110 196 142c-2 31 -96 33 -117 33c-55 -2 -110 -15 -158 -38c-18 -9 -36 0 -32 18zM166 649l-8 -30c43 10 89 16 141 16c63 0 153 -14 169 -89c12 -71 -41 -107 -112 -147c-61 -35 -111 -67 -145 -110
c-34 -46 -52 -103 -45 -188c0 -6 5 -13 15 -13h172c51 0 96 1 142 5l8 29c-56 -4 -103 -5 -150 -5h-157c-4 69 11 117 39 153c31 40 78 69 135 103c86 50 148 92 130 179c-19 92 -126 112 -201 112c-49 0 -91 -4 -133 -15z" />
    <glyph glyph-name="three" unicode="3" horiz-adv-x="664" 
d="M130 289v149c0 12 9 21 21 21h69c69 0 115 14 114 43c0 25 -32 41 -70 41c-65 1 -129 -11 -201 -36c-15 -5 -34 7 -31 21l39 160c9 39 166 53 267 54c145 0 287 -74 287 -211c1 -77 -15 -121 -66 -164c-2 -2 -2 -5 0 -7c51 -42 67 -87 66 -164
c0 -136 -142 -210 -287 -210c-101 0 -258 14 -267 53l-39 160c-3 15 16 27 31 22c72 -26 136 -37 201 -37c38 1 70 17 70 42c1 29 -45 43 -114 43h-69c-12 0 -21 8 -21 20zM159 644l-9 -32c109 27 342 57 316 -121c-7 -50 -50 -75 -100 -88c-55 -13 -119 -15 -162 -15v-30
c63 -2 142 2 198 -31c40 -24 65 -66 61 -114c-8 -86 -107 -107 -177 -109c-45 -2 -86 3 -134 15l8 -33c46 -9 83 -13 128 -12c86 2 199 32 209 135c8 81 -48 142 -137 163c72 11 129 47 139 115c18 128 -73 174 -191 175c-51 0 -96 -7 -149 -18z" />
    <glyph glyph-name="four" unicode="4" horiz-adv-x="762" 
d="M388 21v112c0 5 -4 10 -10 10h-225c-15 0 -30 8 -37 20l-80 152c-3 7 -8 22 0 36c45 80 66 198 66 349v7c0 11 9 20 20 20h206c11 0 20 -8 20 -20v-7c0 -98 6 -225 -36 -339c-2 -5 0 -10 6 -10h60c6 0 10 5 10 10v262c0 12 9 20 20 20h206c11 0 21 -8 21 -20v-262
c0 -6 5 -10 9 -10h66c11 0 23 -9 20 -20l-39 -168c-2 -10 -14 -20 -27 -20h-20c-5 0 -9 -5 -9 -10v-112c0 -12 -10 -21 -21 -21h-206c-11 0 -20 9 -20 21zM241 631h-29c-5 -100 -21 -188 -62 -285c-1 -3 -2 -8 0 -12l49 -94c1 -4 7 -8 14 -8h282v-136h31v136h93l7 29h-100
v286h-31v-286h-272l-43 80c40 98 58 188 61 290z" />
    <glyph glyph-name="five" unicode="5" horiz-adv-x="676" 
d="M76 710c1 12 7 17 21 17h448c14 0 25 -9 28 -20l38 -164c2 -11 -10 -20 -21 -20h-272c-8 0 -17 -8 -17 -16l-2 -47c0 -10 8 -15 19 -12c37 11 73 16 110 15c124 -4 207 -64 212 -222c5 -173 -106 -255 -276 -255c-121 0 -218 17 -262 37c-16 6 -22 10 -25 24l-41 166
c-4 17 15 25 31 18c61 -24 165 -47 249 -47c55 0 85 21 85 52c0 32 -19 53 -72 55c-36 1 -67 -9 -100 -18c-21 -8 -41 -7 -52 0l-102 68c-18 12 -34 36 -32 57zM158 123l8 -31c121 -33 363 -52 372 131c1 108 -57 166 -178 167c-42 0 -79 -7 -115 -21l-61 42l21 199h302
l-6 31h-310c-6 0 -14 -7 -14 -14l-24 -222c-1 -7 2 -11 6 -14l71 -50c3 -2 11 -3 15 -1c35 18 76 22 115 22c88 -2 146 -47 145 -139c-4 -157 -237 -133 -347 -100z" />
    <glyph glyph-name="six" unicode="6" horiz-adv-x="701" 
d="M582 568c5 -21 -3 -30 -36 -25c-81 13 -199 11 -259 -59c-8 -8 -5 -15 9 -10c49 16 97 20 142 19c116 -4 232 -80 232 -226c0 -187 -149 -281 -321 -281c-207 0 -318 141 -318 360c0 287 170 396 355 396c41 0 87 -4 129 -12c23 -5 30 -16 35 -36zM361 311
c-39 0 -59 -20 -59 -60s20 -60 59 -60c41 0 61 20 61 60s-20 60 -61 60zM362 103c-182 3 -199 182 -199 182c49 66 138 106 223 106c79 1 150 -37 149 -139c-2 -99 -83 -151 -173 -149zM468 631l-8 28c-36 1 -70 0 -102 -5c-82 -11 -147 -53 -189 -131
c-41 -85 -55 -210 -25 -301c34 -96 116 -146 216 -147c108 -1 204 61 205 177c2 119 -82 167 -177 167c-83 0 -177 -33 -229 -96c-1 80 17 173 70 234c56 65 148 75 239 74z" />
    <glyph glyph-name="seven" unicode="7" horiz-adv-x="664" 
d="M32 492l50 209c4 17 18 26 38 26h488c12 0 25 -15 25 -27v-24c-2 -144 -49 -261 -113 -351c-52 -75 -73 -139 -73 -230v-74c0 -11 -10 -21 -20 -21h-228c-11 0 -20 9 -20 21v53c0 274 163 364 166 430c0 3 -1 6 -5 7c-127 4 -190 -11 -282 -41c-17 -5 -30 8 -26 22z
M164 630l-7 -31c18 4 40 6 58 6h268c-6 -88 -44 -148 -82 -212c-49 -77 -99 -159 -102 -297h29c3 130 52 209 98 282c43 70 86 138 87 242c0 7 -5 15 -15 15h-283c-16 0 -35 -1 -51 -5z" />
    <glyph glyph-name="eight" unicode="8" horiz-adv-x="710" 
d="M355 -14c-89 0 -182 16 -241 58c-58 42 -83 111 -83 175c0 57 20 119 66 161c4 5 3 15 0 20c-22 36 -33 79 -33 119c0 62 23 127 76 168c52 40 135 55 215 55s162 -15 215 -55c52 -41 75 -106 75 -168c0 -40 -10 -83 -32 -119c-3 -5 -4 -15 0 -20c45 -42 66 -104 66 -161
c0 -64 -26 -133 -84 -175c-59 -42 -150 -58 -240 -58zM355 568c-38 0 -63 -20 -63 -49s25 -49 63 -49s64 20 64 49s-26 49 -64 49zM355 274c-42 0 -71 -22 -71 -55c0 -32 29 -54 71 -54s71 22 71 54c0 33 -29 55 -71 55zM355 641c77 0 164 -41 164 -128
c0 -97 -80 -127 -164 -127c-83 0 -164 30 -164 127c0 87 89 128 164 128zM355 670c-93 0 -194 -53 -194 -157c0 -72 37 -117 101 -140c-68 -24 -121 -80 -121 -155c0 -118 116 -158 214 -158c100 0 214 40 214 158c0 75 -51 131 -119 155c64 23 100 68 100 140
c0 104 -101 157 -195 157zM355 89c-80 0 -183 29 -183 129c0 102 97 141 183 141c88 0 185 -39 185 -141c0 -100 -103 -129 -185 -129z" />
    <glyph glyph-name="nine" unicode="9" horiz-adv-x="704" 
d="M350 750c199 0 322 -94 322 -302c1 -274 -157 -452 -477 -452c-10 0 -17 7 -19 15l-40 165c-2 9 4 14 13 15c67 1 156 14 200 56c4 4 2 7 -5 5c-166 -22 -306 65 -312 217c-7 178 119 281 318 281zM356 550c-37 0 -66 -29 -66 -65c0 -35 29 -65 66 -65s66 30 66 65
c0 36 -29 65 -66 65zM348 639c180 3 196 -175 194 -175c-39 -72 -132 -112 -211 -114c-89 -1 -157 45 -156 139c0 103 77 148 173 150zM249 118l9 -29c72 10 140 34 192 72c98 71 131 181 124 296c-8 128 -98 214 -228 212c-111 -2 -200 -60 -201 -180
c-2 -111 80 -171 186 -168c78 0 161 35 213 95c-3 -92 -35 -176 -112 -230c-49 -35 -113 -58 -183 -68z" />
    <glyph glyph-name="dagger" unicode="&#x2020;" horiz-adv-x="589" 
d="M423 727c10 0 19 -8 19 -20v-468c0 -12 10 -20 20 -20h75c11 0 23 -9 20 -21l-42 -177c-2 -12 -13 -21 -27 -21h-386c-14 0 -25 9 -28 21l-42 177c-3 12 10 21 20 21h75c11 0 19 9 19 20v249c0 11 -8 21 -19 21h-75c-10 0 -23 9 -20 20l42 178c3 11 14 20 28 20h321z
M436 97l8 31h-135v491c0 6 -7 15 -14 15h-143l-7 -31h134v-475h-133l7 -31h283z" />
    <glyph glyph-name="daggerdbl" unicode="&#x2021;" horiz-adv-x="690" 
d="M648 643c9 -5 13 -18 6 -27l-82 -88c-4 -5 -7 -7 1 -14c58 -50 84 -128 84 -206c0 -80 -28 -159 -88 -209c-19 -16 -42 -28 -68 -38c-5 -2 -5 -6 0 -10c25 -32 36 -75 36 -116c0 -52 -19 -105 -58 -139c-34 -29 -84 -41 -134 -41c-51 0 -100 12 -135 41
c-40 34 -57 87 -57 139c0 41 11 84 36 116c3 3 3 8 0 10c-27 10 -51 22 -70 38c-60 50 -88 129 -88 209c0 79 28 159 88 209c53 45 148 64 226 64c12 0 19 3 24 13l74 155c6 9 18 12 27 6zM268 308c-2 -46 35 -81 77 -81c41 0 79 35 76 81c3 46 -35 80 -76 80
c-42 0 -79 -34 -77 -80zM306 -65c-1 -23 16 -40 39 -40s38 17 37 40c1 22 -14 39 -37 39s-40 -17 -39 -39zM243 -65c0 26 10 48 26 65c19 15 45 25 74 25c31 0 56 -10 72 -25c19 -17 28 -39 28 -65c0 -27 -9 -50 -28 -66c-16 -16 -41 -25 -72 -25c-29 0 -55 9 -74 25
c-16 16 -26 39 -26 66zM162 304c0 50 19 92 51 121c31 31 77 48 130 48c54 0 99 -17 131 -48c32 -29 50 -71 50 -121c0 -48 -18 -90 -50 -121c-32 -29 -77 -45 -131 -45c-53 0 -99 16 -130 47c-32 29 -51 71 -51 119zM132 304c0 -58 22 -107 60 -141c34 -32 82 -52 136 -56
v-53c-31 -3 -59 -14 -78 -32c-24 -22 -37 -53 -37 -87c0 -36 13 -66 37 -88c24 -21 56 -33 93 -33c38 0 71 12 93 33c24 22 38 52 38 88c0 34 -14 65 -38 87c-19 18 -47 29 -78 32v53c55 3 102 24 137 56c37 34 58 84 58 141c0 59 -21 109 -58 144c-16 13 -34 26 -55 36
l94 147l-25 17l-96 -155c-23 6 -45 10 -70 10c-61 0 -114 -21 -151 -55c-38 -35 -60 -85 -60 -144z" />
    <glyph glyph-name="colon" unicode=":" horiz-adv-x="287" 
d="M144 554c58 0 106 -48 106 -106c0 -59 -48 -107 -106 -107c-59 0 -107 48 -107 107c0 58 48 106 107 106zM144 200c58 0 106 -48 106 -107s-48 -107 -106 -107c-59 0 -107 48 -107 107s48 107 107 107zM167 93c0 14 -10 25 -24 25s-24 -11 -24 -25s10 -25 24 -25
s24 11 24 25zM167 447c0 14 -10 25 -24 25s-24 -11 -24 -25s10 -25 24 -25s24 11 24 25z" />
    <glyph glyph-name="semicolon" unicode=";" horiz-adv-x="288" 
d="M144 554c59 0 107 -48 107 -106c0 -59 -48 -107 -107 -107c-60 0 -107 48 -107 107c0 58 47 106 107 106zM144 200c59 0 107 -48 107 -107c0 -102 -76 -159 -140 -188c-28 -14 -63 10 -53 24c20 26 25 54 12 86c-21 20 -33 48 -33 78c0 59 47 107 107 107zM167 93
c0 14 -10 25 -24 25s-24 -11 -24 -25s10 -25 24 -25s24 11 24 25zM167 447c0 14 -10 25 -24 25s-24 -11 -24 -25s10 -25 24 -25s24 11 24 25z" />
    <glyph glyph-name="period" unicode="." horiz-adv-x="284" 
d="M142 200c58 0 107 -48 107 -107s-49 -107 -107 -107c-59 0 -107 48 -107 107s48 107 107 107zM166 93c0 14 -10 25 -24 25s-24 -11 -24 -25s10 -25 24 -25s24 11 24 25z" />
    <glyph glyph-name="asciitilde" unicode="~" horiz-adv-x="560" 
d="M482 466c13 8 30 -3 27 -17l-29 -118c-8 -34 -59 -42 -95 -42c-62 0 -153 17 -198 17c-36 0 -69 4 -108 -14c-13 -8 -31 2 -28 16l29 118c9 34 59 42 97 42c60 0 153 -17 196 -17c37 0 70 -3 109 15z" />
    <glyph glyph-name="asciicircum" unicode="^" horiz-adv-x="728" 
d="M340 351l-174 -121c-11 -9 -27 -7 -36 4l-74 93c-9 11 -8 28 4 37l247 152c37 22 77 22 114 0l247 -152c12 -9 13 -26 4 -37l-74 -93c-9 -11 -25 -13 -36 -4l-174 121c-18 13 -30 13 -48 0z" />
    <glyph glyph-name="comma" unicode="," horiz-adv-x="284" 
d="M142 200c58 0 107 -48 107 -107c0 -102 -76 -159 -140 -188c-27 -14 -64 10 -52 24c19 26 24 54 11 86c-20 20 -33 48 -33 78c0 59 48 107 107 107zM166 93c0 14 -10 25 -24 25s-24 -11 -24 -25s10 -25 24 -25s24 11 24 25z" />
    <glyph glyph-name="question" unicode="?" horiz-adv-x="786" 
d="M54 445c-13 -7 -26 2 -23 17l42 182c4 19 25 35 42 43c98 44 182 54 324 54c170 -1 311 -76 312 -211c0 -164 -220 -301 -429 -300c-66 0 -141 46 -181 87c-14 16 -10 36 12 40c112 25 169 37 255 74c26 10 73 41 66 69c-11 32 -54 33 -88 32c-118 -3 -222 -30 -332 -87z
M391 200c59 0 107 -48 107 -107s-48 -107 -107 -107c-60 0 -107 48 -107 107s47 107 107 107zM389 307c67 15 165 52 215 116c19 24 30 53 32 84c2 42 -19 77 -52 102c-64 46 -154 55 -246 46c-61 -7 -121 -21 -177 -41l-6 -31c83 29 168 46 252 46c61 -1 117 -15 159 -45
c25 -18 40 -47 37 -79c-10 -108 -168 -172 -271 -180c-14 -1 -32 -5 -3 -17c15 -6 40 -5 60 -1zM415 93c0 14 -10 25 -24 25s-24 -11 -24 -25s10 -25 24 -25s24 11 24 25z" />
    <glyph glyph-name="exclam" unicode="!" horiz-adv-x="413" 
d="M306 305c-25 -46 -53 -75 -99 -75c-47 0 -76 29 -101 75c-46 88 -63 173 -70 261c-6 79 54 175 171 175c116 0 177 -92 170 -175c-7 -88 -23 -173 -71 -261zM207 200c59 0 107 -48 107 -107s-48 -107 -107 -107c-60 0 -107 48 -107 107s47 107 107 107zM192 318
c0 -7 0 -14 15 -14s15 7 15 14v330c0 8 0 15 -15 15s-15 -7 -15 -15v-330zM231 92c0 14 -10 25 -24 25s-24 -11 -24 -25s10 -25 24 -25s24 11 24 25z" />
    <glyph glyph-name="quotesingle" unicode="'" horiz-adv-x="260" 
d="M110 489l-57 111c-12 21 -18 38 -18 63c0 52 43 94 95 94s95 -42 95 -94c0 -25 -6 -42 -18 -63l-57 -111c-6 -11 -34 -11 -40 0zM154 659c0 14 -10 25 -24 25s-24 -11 -24 -25s10 -25 24 -25s24 11 24 25z" />
    <glyph glyph-name="quotedbl" unicode="&#x22;" horiz-adv-x="425" 
d="M108 489l-57 111c-10 21 -16 38 -16 63c0 52 42 94 94 94c32 0 62 -16 78 -40c17 24 46 40 78 40c52 0 95 -42 95 -94c0 -25 -7 -42 -17 -63l-57 -111c-6 -11 -36 -11 -42 0l-57 111l-57 -111c-6 -11 -34 -11 -42 0zM153 659c0 14 -10 25 -24 25s-24 -11 -24 -25
s10 -25 24 -25s24 11 24 25zM309 659c0 14 -10 25 -24 25s-24 -11 -24 -25s10 -25 24 -25s24 11 24 25z" />
    <glyph glyph-name="quoteright" unicode="&#x2019;" horiz-adv-x="277" 
d="M147 757c52 0 95 -42 94 -94c-1 -96 -63 -147 -151 -196c-24 -12 -49 17 -39 29c21 27 26 53 25 81c-2 35 -24 34 -24 86s43 94 95 94zM170 659c0 14 -10 25 -24 25s-24 -11 -24 -25s10 -25 24 -25s24 11 24 25z" />
    <glyph glyph-name="quotedblleft" unicode="&#x201c;" horiz-adv-x="495" 
d="M351 464c-52 0 -94 43 -94 95c1 95 64 147 151 195c24 12 49 -17 40 -29c-22 -27 -27 -53 -25 -81c1 -34 24 -33 24 -85s-43 -95 -96 -95zM131 464c-52 0 -96 43 -95 95c1 95 63 147 152 195c23 12 49 -17 38 -29c-22 -27 -26 -53 -25 -81c2 -34 24 -33 24 -85
s-42 -95 -94 -95zM153 554c0 14 -10 25 -24 25s-24 -11 -24 -25s10 -25 24 -25s24 11 24 25zM375 554c0 14 -10 25 -24 25s-24 -11 -24 -25s10 -25 24 -25s24 11 24 25z" />
    <glyph glyph-name="quotedblright" unicode="&#x201d;" horiz-adv-x="497" 
d="M146 757c52 0 96 -42 95 -94c-1 -96 -64 -147 -152 -196c-23 -12 -49 17 -38 29c21 27 26 53 25 81c-3 35 -24 34 -24 86s42 94 94 94zM368 757c52 0 94 -42 94 -94c-1 -96 -64 -147 -151 -196c-24 -12 -49 17 -40 29c22 27 27 53 25 81c-1 35 -24 34 -24 86s43 94 96 94
zM170 659c0 14 -10 25 -24 25s-24 -11 -24 -25s10 -25 24 -25s24 11 24 25zM392 659c0 14 -10 25 -24 25s-24 -11 -24 -25s10 -25 24 -25s24 11 24 25z" />
    <glyph glyph-name="hyphen" unicode="-" horiz-adv-x="479" 
d="M434 251c0 -11 -9 -20 -21 -20h-347c-11 0 -21 9 -21 20v166c0 10 10 19 21 19h347c12 0 21 -9 21 -19v-166zM141 349v-31h197v31h-197z" />
    <glyph glyph-name="slash" unicode="/" horiz-adv-x="549" 
d="M527 754l-233 -751c-5 -10 -17 -19 -28 -19h-233c-11 0 -16 9 -11 19l232 751c5 10 17 19 28 19h234c10 0 15 -9 11 -19zM173 99h31l179 575h-32z" />
    <glyph glyph-name="backslash" unicode="\" horiz-adv-x="549" 
d="M254 3l-232 751c-5 10 0 19 11 19h234c10 0 23 -9 28 -19l231 -751c6 -10 0 -19 -10 -19h-234c-10 0 -23 9 -28 19zM344 99h31l-178 575h-32z" />
    <glyph glyph-name="underscore" unicode="_" horiz-adv-x="600" 
d="M66 -14h468c15 0 26 -11 26 -26v-112c0 -15 -11 -26 -26 -26h-468c-15 0 -26 11 -26 26v112c0 15 11 26 26 26zM136 -81v-31h328v31h-328z" />
    <glyph glyph-name="at" unicode="@" horiz-adv-x="953" 
d="M693 507v-241c0 -21 10 -28 21 -28c10 0 20 5 24 13c19 34 27 100 25 142c-7 143 -132 216 -270 214c-166 -3 -289 -105 -292 -268c-3 -136 58 -264 305 -264c26 0 57 2 87 5c19 -1 35 -17 15 -35c-53 -43 -113 -65 -199 -65c-188 0 -379 117 -379 373
c1 238 190 395 447 395c239 0 441 -103 442 -355c1 -197 -78 -296 -237 -292c-56 3 -106 26 -132 62c-5 4 -17 6 -22 2c-25 -22 -71 -37 -115 -34c-108 3 -172 89 -172 199c1 160 138 218 232 218c36 0 65 -6 94 -12c22 -5 45 -9 65 -11c13 -1 30 -1 41 0c15 2 20 -6 20 -18
zM512 282v135c0 13 -15 16 -25 12c-21 -10 -40 -35 -40 -80c0 -42 24 -81 48 -81c9 0 17 7 17 14zM415 19c36 -3 97 21 48 20c-201 6 -343 117 -330 348c9 156 144 254 288 272c138 18 352 -29 397 -182c30 -97 30 -251 -87 -291c-41 -14 -114 12 -114 63v225
c0 7 -8 16 -16 16c-17 -2 -35 1 -53 5c-31 7 -63 12 -97 4c-69 -17 -109 -66 -121 -133c-19 -105 46 -211 171 -171c32 10 64 30 86 53c7 -73 91 -110 154 -89c133 46 140 212 106 326c-52 169 -276 223 -430 203c-158 -21 -306 -129 -315 -300c-11 -214 90 -346 313 -369z
M587 302c0 -35 -65 -70 -94 -80c-98 -34 -147 54 -134 140c10 54 43 96 98 108c30 7 57 2 84 -4c17 -3 32 -6 46 -7v-157z" />
    <glyph glyph-name="numbersign" unicode="#" horiz-adv-x="735" 
d="M90 20l29 140h-76c-11 0 -19 5 -17 17l21 107c3 14 11 25 25 25h78l20 97h-81c-10 0 -19 2 -17 14l21 110c3 17 14 25 25 25h83l32 151c2 11 8 21 19 21h108c16 0 23 -10 21 -21l-32 -151h109l32 151c2 11 8 21 19 21h108c15 0 24 -10 21 -21l-32 -151h77
c12 0 20 -5 18 -16l-22 -108c-4 -22 -15 -25 -25 -25h-78l-21 -97h82c16 0 20 -8 17 -18l-22 -106c-3 -13 -10 -25 -25 -25h-83l-29 -140c-2 -10 -8 -20 -19 -20h-108c-16 0 -23 11 -21 21l29 139h-109l-29 -140c-2 -10 -9 -20 -19 -20h-108c-13 0 -23 10 -21 20zM319 406
l-21 -97h109l20 97h-108zM455 250h-226l45 215h226zM574 677h-30l-38 -181h-227l38 181h-31l-37 -181h-112l-6 -31h112l-45 -215h-108l-6 -30h107l-35 -170h31l35 170h227l-35 -170h30l35 170h110l6 30h-109l45 215h105l7 31h-107z" />
    <glyph glyph-name="ampersand" unicode="&#x26;" horiz-adv-x="908" 
d="M717 720c13 -5 16 -17 18 -29l26 -179c2 -12 -10 -16 -20 -12c-61 18 -116 22 -149 19c-40 -4 -54 -33 -35 -56l172 -214c17 -22 32 -30 64 -30h76c17 0 22 -8 18 -22l-42 -176c-2 -12 -13 -21 -27 -21h-195c-38 0 -83 18 -111 45c-51 -39 -125 -55 -196 -55
c-73 0 -151 18 -202 61c-58 48 -84 126 -84 203c0 78 26 155 84 204c26 22 59 37 94 47c0 35 8 71 24 104c58 120 190 136 282 136c89 0 151 -5 203 -25zM302 304c-26 -5 -42 -25 -42 -50c0 -29 23 -51 56 -51c22 0 40 9 49 23zM380 427l155 -193
c-54 -66 -149 -123 -237 -119c-80 3 -139 64 -139 145c2 122 116 164 221 167zM650 610l-7 32c-79 10 -183 13 -251 -37c-45 -33 -72 -97 -35 -150c-114 -10 -227 -64 -227 -195c-1 -96 71 -172 168 -175c95 -3 195 54 255 124l69 -87c17 -21 39 -27 67 -26h73l9 28h-82
c-18 0 -32 2 -43 18l-266 332c-9 13 -13 39 -6 60c31 79 139 86 211 83c23 -1 42 -3 65 -7z" />
    <glyph glyph-name="parenleft" unicode="(" horiz-adv-x="450" 
d="M321 368c0 -140 29 -280 125 -415c8 -9 2 -24 -14 -24h-236c-15 0 -29 8 -36 18c-78 110 -120 280 -120 421c0 140 42 309 120 419c7 11 21 19 36 19h236c16 0 22 -16 14 -25c-96 -135 -125 -275 -125 -413zM277 710h-33c-50 -105 -80 -218 -80 -342s32 -237 82 -343h33
c-53 106 -84 218 -84 343s30 236 82 342z" />
    <glyph glyph-name="parenright" unicode=")" horiz-adv-x="450" 
d="M129 368c0 138 -28 278 -125 413c-7 9 -2 25 15 25h236c13 0 29 -8 36 -19c78 -110 119 -279 119 -419c0 -141 -41 -311 -119 -421c-7 -10 -23 -18 -36 -18h-236c-17 0 -22 15 -15 24c97 135 125 275 125 415zM206 710h-33c52 -106 82 -217 82 -342s-31 -237 -84 -343h33
c50 106 82 219 82 343s-30 237 -80 342z" />
    <glyph glyph-name="plus" unicode="+" horiz-adv-x="705" 
d="M69 457h182v183c0 9 7 17 17 17h169c10 0 19 -8 19 -17v-183h182c9 0 17 -8 17 -18v-169c0 -10 -8 -17 -17 -17h-182v-183c0 -10 -9 -18 -19 -18h-169c-10 0 -17 8 -17 18v183h-182c-11 0 -19 7 -19 17v169c0 10 9 18 19 18zM338 148h30v193h191v29h-191v191h-30v-191
h-192v-29h192v-193z" />
    <glyph glyph-name="bullet" unicode="&#x2022;" horiz-adv-x="498" 
d="M250 576c57 0 116 -16 154 -55c38 -37 54 -96 54 -153c0 -58 -16 -118 -54 -155c-38 -39 -97 -55 -154 -55c-59 0 -118 16 -155 55c-39 37 -55 97 -55 155c0 57 16 116 55 153c37 39 96 55 155 55zM209 368c0 -23 18 -41 41 -41s41 18 41 41s-18 41 -41 41
s-41 -18 -41 -41z" />
    <glyph glyph-name="asterisk" unicode="*" horiz-adv-x="514" 
d="M135 642l-25 43c-4 7 -2 15 5 19l82 48c6 4 15 0 19 -6l25 -43c8 -15 32 -15 42 0l25 43c3 6 12 10 19 6l81 -48c7 -4 9 -12 6 -19l-26 -43c-8 -16 3 -36 20 -36h51c9 0 15 -7 15 -14v-94c0 -8 -6 -15 -15 -15h-51c-17 0 -28 -20 -20 -35l25 -43c4 -8 2 -16 -5 -20
l-81 -48c-7 -3 -16 0 -19 6l-25 44c-10 15 -34 15 -42 0l-25 -44c-4 -6 -13 -9 -19 -6l-82 48c-7 4 -9 12 -5 20l25 43c9 15 -4 35 -20 35h-51c-8 0 -14 7 -14 15v94c0 7 6 14 14 14h51c16 0 29 20 20 36zM203 675l-26 -16l59 -99h-116v-29h116l-59 -101l25 -16l60 103
l60 -101l27 15l-60 100h115v29h-117l59 100l-25 15l-59 -100z" />
    <glyph glyph-name="dollar" unicode="$" horiz-adv-x="516" 
d="M475 343c1 -108 -72 -166 -224 -166c-81 0 -174 9 -178 26l-26 122c-3 13 9 20 19 17c75 -25 136 -28 189 -26c13 0 16 13 4 19c-27 18 -221 12 -223 162c-1 87 47 141 143 159l-10 47c-3 12 11 24 24 24h127c12 0 26 -12 24 -24l-9 -42c55 -4 102 -14 105 -25l26 -122
c2 -13 -9 -19 -21 -16c-74 24 -145 29 -187 25c-13 0 -16 -12 -6 -20c27 -17 221 -11 223 -160zM256 157c47 0 86 -38 86 -85c0 -48 -39 -86 -86 -86c-48 0 -85 38 -85 86c0 47 37 85 85 85zM280 72c0 14 -10 25 -24 25s-24 -11 -24 -25s10 -25 24 -25s24 11 24 25zM146 268
l7 -30c19 -4 43 -6 63 -7c62 -2 171 8 173 91c1 48 -18 74 -47 90c-54 30 -180 15 -190 90c-4 33 11 54 33 66c51 29 149 17 183 8l-5 28c-29 5 -62 9 -91 9v64h-31v-65c-65 -6 -131 -38 -120 -114c9 -67 78 -82 132 -91s104 -22 103 -85c-2 -59 -99 -62 -140 -61
c-22 1 -49 3 -70 7z" />
    <glyph glyph-name="cent" unicode="&#xa2;" horiz-adv-x="521" 
d="M285 157c48 0 86 -38 86 -85c0 -48 -38 -86 -86 -86c-47 0 -86 38 -86 86c0 47 39 85 86 85zM36 419c2 139 78 211 173 235l-11 49c-3 12 11 24 24 24h126c14 0 28 -12 24 -24l-9 -46c46 -6 92 -19 96 -36l31 -129c3 -12 -3 -21 -16 -17c-32 10 -65 15 -121 14
c-68 0 -104 -27 -104 -70c0 -49 36 -77 104 -77c56 0 89 11 121 21c13 4 19 -5 16 -17l-32 -129c-5 -27 -119 -41 -170 -42c-126 -1 -253 68 -252 244zM380 563l-8 29c-22 2 -47 2 -71 1v84h-30v-87c-52 -8 -101 -29 -125 -77c-26 -52 -28 -113 -7 -166
c37 -95 138 -108 233 -97l8 29c-19 -3 -37 -5 -56 -5c-68 0 -132 19 -157 84c-17 45 -16 98 5 141c32 70 140 72 208 64zM309 72c0 14 -10 25 -24 25s-24 -11 -24 -25s10 -25 24 -25s24 11 24 25z" />
    <glyph glyph-name="sterling" unicode="&#xa3;" horiz-adv-x="744" 
d="M127 210c15 3 30 5 46 6c2 0 4 1 5 3c5 12 6 28 3 42c-1 4 -3 5 -6 5h-94c-12 0 -21 9 -21 20v141c0 10 9 19 21 19h39c6 0 7 5 6 8c-6 25 -11 48 -11 71c0 177 152 224 288 221c57 -1 121 -13 172 -28c22 -6 42 -13 48 -36l38 -158c5 -17 -12 -27 -31 -17
c-48 21 -99 31 -153 33c-48 2 -82 -13 -86 -52c-1 -9 1 -26 2 -34c1 -5 4 -8 9 -8h156c12 0 20 -9 20 -19v-141c0 -11 -8 -20 -20 -20h-117c-3 0 -6 -3 -6 -6c-1 -22 -6 -42 -15 -61c-1 -2 0 -4 1 -4c24 -2 47 -5 70 -6c87 -3 130 11 197 38c17 6 34 -1 30 -18l-40 -166
c-10 -42 -78 -54 -132 -54c-49 0 -142 8 -244 26c-51 -18 -100 -24 -152 -25c-74 0 -125 50 -125 106c0 81 57 105 102 114zM592 88l8 30c-102 -9 -207 -7 -304 24c21 62 14 132 3 199h183v30h-189c-11 64 -47 186 11 236c37 30 89 38 145 32c31 -3 62 -9 93 -18l-8 33
c-27 7 -54 12 -81 15c-64 5 -125 -3 -168 -39c-71 -60 -36 -182 -21 -259h-108v-30h112c13 -69 20 -137 -2 -196c-45 -19 -88 -30 -137 -28c-19 1 -22 -29 0 -29c53 -2 100 9 148 29c101 -34 208 -37 315 -29z" />
    <glyph glyph-name="Euro" unicode="&#x20ac;" horiz-adv-x="716" 
d="M380 382v-38c0 -3 5 -8 9 -8h136c9 0 17 -8 17 -18v-71c0 -10 -7 -18 -17 -18h-139c-5 0 -6 -3 -6 -4c1 -25 34 -42 72 -42c64 -1 129 12 201 37c14 5 34 -8 30 -22l-39 -159c-9 -40 -165 -54 -267 -54c-145 0 -277 75 -287 210c-1 9 -1 18 -2 27c0 3 -3 7 -7 7h-48
c-10 0 -18 8 -18 18v71c0 10 8 18 18 18h40c4 0 9 4 9 8v38c0 4 -5 8 -9 8h-40c-10 0 -18 7 -18 18v71c0 10 8 18 18 18h48c4 0 7 3 7 7c1 9 1 18 2 27c10 135 142 210 287 210c102 0 258 -14 267 -54l39 -159c4 -14 -16 -27 -30 -22c-72 25 -137 38 -201 37
c-38 0 -71 -17 -72 -42c0 -1 1 -4 6 -4h139c10 0 17 -8 17 -18v-71c0 -11 -8 -18 -17 -18h-136c-4 0 -9 -5 -9 -8zM95 268h112v-29c0 -129 133 -168 242 -168c35 0 72 5 110 12l8 30c-38 -10 -81 -14 -118 -14c-91 0 -212 30 -212 140v29h225v29h-225v131h225v31h-225v29
c0 110 121 139 212 139c37 0 79 -3 117 -13l-8 30c-38 7 -74 12 -109 12c-109 0 -242 -39 -242 -168v-29h-112v-31h112v-131h-112v-29z" />
    <glyph glyph-name="quoteleft" unicode="&#x2018;" horiz-adv-x="274" 
d="M131 464c-52 0 -96 43 -95 95c1 95 63 147 152 195c23 12 49 -17 38 -29c-22 -27 -26 -53 -25 -81c2 -34 24 -33 24 -85s-42 -95 -94 -95zM153 554c0 14 -10 25 -24 25s-24 -11 -24 -25s10 -25 24 -25s24 11 24 25z" />
    <glyph glyph-name="braceright" unicode="}" horiz-adv-x="797" 
d="M50 227v301c0 11 9 20 20 20h253c11 0 21 10 21 20v88c0 21 14 29 31 17l373 -279c12 -9 12 -23 0 -33l-373 -278c-17 -13 -31 -4 -31 16v88c0 11 -10 21 -21 21h-253c-11 0 -20 9 -20 19zM150 393v-30h384l-134 -96v-38l189 137c7 4 7 19 0 25l-189 134v-37l134 -95
h-384z" />
    <glyph glyph-name="bracketleft" unicode="[" 
d="M401 -2c-101 0 -188 36 -260 107c-71 72 -107 159 -107 261c0 101 36 187 107 259s158 108 260 108c101 0 188 -36 260 -108s108 -158 108 -259s-36 -188 -108 -260s-159 -108 -260 -108zM401 48c88 0 163 31 224 93c62 63 93 138 93 225s-31 161 -92 223
s-136 93 -225 93c-87 0 -162 -31 -225 -93c-62 -61 -93 -136 -93 -223s31 -162 93 -225c63 -62 138 -93 225 -93zM401 70c-82 0 -152 29 -210 86c-57 58 -86 128 -86 210c0 80 29 149 87 206s128 86 209 86s150 -29 208 -86s87 -125 87 -206c0 -82 -29 -152 -87 -210
c-58 -57 -127 -86 -208 -86zM401 115c37 0 71 13 103 38c24 19 45 43 63 73c-54 -14 -108 -21 -163 -21s-112 7 -169 21c18 -29 39 -53 62 -72c33 -26 67 -39 104 -39zM167 331l57 -89c60 -13 114 -21 177 -21c57 0 117 7 178 21l56 89h-468zM402 460l-40 -94h79zM228 534
l77 -96c3 -3 10 -1 20 4c11 5 16 9 15 11l-51 116c-5 5 -17 1 -36 -11c-8 -9 -16 -17 -25 -24zM499 438l74 96c3 3 -6 11 -25 23c-19 13 -30 17 -34 12c-20 -27 -34 -76 -49 -116c2 -3 4 -5 7 -7c13 -9 22 -12 27 -8zM681 7h-11v40h-16v11h43v-11h-16v-40zM711 7h-9v51h16
l9 -39l9 39h15v-51h-9v40l-11 -40h-9l-11 40v-40z" />
    <glyph glyph-name="bracketright" unicode="]" 
d="M401 -2c-101 0 -188 36 -260 107c-71 72 -107 159 -107 261c0 101 36 187 107 259s158 108 260 108c101 0 188 -36 260 -108s108 -158 108 -259s-36 -188 -108 -260s-159 -108 -260 -108zM401 48c88 0 163 31 224 93c62 63 93 138 93 225s-31 161 -92 223
s-136 93 -225 93c-87 0 -162 -31 -225 -93c-62 -61 -93 -136 -93 -223s31 -162 93 -225c63 -62 138 -93 225 -93zM401 70c-82 0 -152 29 -210 86c-57 58 -86 128 -86 210c0 80 29 149 87 206s128 86 209 86s150 -29 208 -86s87 -125 87 -206c0 -82 -29 -152 -87 -210
c-58 -57 -127 -86 -208 -86zM401 115c37 0 71 13 103 38c24 19 45 43 63 73c-54 -14 -108 -21 -163 -21s-112 7 -169 21c18 -29 39 -53 62 -72c33 -26 67 -39 104 -39zM167 331l57 -89c60 -13 114 -21 177 -21c57 0 117 7 178 21l56 89h-468zM402 460l-40 -94h79zM228 534
l77 -96c3 -3 10 -1 20 4c11 5 16 9 15 11l-51 116c-5 5 -17 1 -36 -11c-8 -9 -16 -17 -25 -24zM499 438l74 96c3 3 -6 11 -25 23c-19 13 -30 17 -34 12c-20 -27 -34 -76 -49 -116c2 -3 4 -5 7 -7c13 -9 22 -12 27 -8zM681 7h-11v40h-16v11h43v-11h-16v-40zM711 7h-9v51h16
l9 -39l9 39h15v-51h-9v40l-11 -40h-9l-11 40v-40z" />
    <glyph glyph-name="grave" unicode="`" horiz-adv-x="423" 
d="M204 979l158 -153c32 -31 -12 -79 -53 -62l-210 89c-121 52 11 219 105 126z" />
    <glyph glyph-name="bar" unicode="|" 
d="M401 -2c-101 0 -188 36 -260 107c-71 72 -107 159 -107 261c0 101 36 187 107 259s158 108 260 108c101 0 188 -36 260 -108s108 -158 108 -259s-36 -188 -108 -260s-159 -108 -260 -108zM401 48c88 0 163 31 224 93c62 63 93 138 93 225s-31 161 -92 223
s-136 93 -225 93c-87 0 -162 -31 -225 -93c-62 -61 -93 -136 -93 -223s31 -162 93 -225c63 -62 138 -93 225 -93zM401 70c-82 0 -152 29 -210 86c-57 58 -86 128 -86 210c0 80 29 149 87 206s128 86 209 86s150 -29 208 -86s87 -125 87 -206c0 -82 -29 -152 -87 -210
c-58 -57 -127 -86 -208 -86zM401 115c37 0 71 13 103 38c24 19 45 43 63 73c-54 -14 -108 -21 -163 -21s-112 7 -169 21c18 -29 39 -53 62 -72c33 -26 67 -39 104 -39zM167 331l57 -89c60 -13 114 -21 177 -21c57 0 117 7 178 21l56 89h-468zM402 460l-40 -94h79zM228 534
l77 -96c3 -3 10 -1 20 4c11 5 16 9 15 11l-51 116c-5 5 -17 1 -36 -11c-8 -9 -16 -17 -25 -24zM499 438l74 96c3 3 -6 11 -25 23c-19 13 -30 17 -34 12c-20 -27 -34 -76 -49 -116c2 -3 4 -5 7 -7c13 -9 22 -12 27 -8zM681 7h-11v40h-16v11h43v-11h-16v-40zM711 7h-9v51h16
l9 -39l9 39h15v-51h-9v40l-11 -40h-9l-11 40v-40z" />
    <glyph glyph-name="percent" unicode="%" 
d="M401 -2c-101 0 -188 36 -260 107c-71 72 -107 159 -107 261c0 101 36 187 107 259s158 108 260 108c101 0 188 -36 260 -108s108 -158 108 -259s-36 -188 -108 -260s-159 -108 -260 -108zM401 48c88 0 163 31 224 93c62 63 93 138 93 225s-31 161 -92 223
s-136 93 -225 93c-87 0 -162 -31 -225 -93c-62 -61 -93 -136 -93 -223s31 -162 93 -225c63 -62 138 -93 225 -93zM401 70c-82 0 -152 29 -210 86c-57 58 -86 128 -86 210c0 80 29 149 87 206s128 86 209 86s150 -29 208 -86s87 -125 87 -206c0 -82 -29 -152 -87 -210
c-58 -57 -127 -86 -208 -86zM401 115c37 0 71 13 103 38c24 19 45 43 63 73c-54 -14 -108 -21 -163 -21s-112 7 -169 21c18 -29 39 -53 62 -72c33 -26 67 -39 104 -39zM167 331l57 -89c60 -13 114 -21 177 -21c57 0 117 7 178 21l56 89h-468zM402 460l-40 -94h79zM228 534
l77 -96c3 -3 10 -1 20 4c11 5 16 9 15 11l-51 116c-5 5 -17 1 -36 -11c-8 -9 -16 -17 -25 -24zM499 438l74 96c3 3 -6 11 -25 23c-19 13 -30 17 -34 12c-20 -27 -34 -76 -49 -116c2 -3 4 -5 7 -7c13 -9 22 -12 27 -8zM681 7h-11v40h-16v11h43v-11h-16v-40zM711 7h-9v51h16
l9 -39l9 39h15v-51h-9v40l-11 -40h-9l-11 40v-40z" />
    <glyph glyph-name="less" unicode="&#x3c;" 
d="M401 -2c-101 0 -188 36 -260 107c-71 72 -107 159 -107 261c0 101 36 187 107 259s158 108 260 108c101 0 188 -36 260 -108s108 -158 108 -259s-36 -188 -108 -260s-159 -108 -260 -108zM401 48c88 0 163 31 224 93c62 63 93 138 93 225s-31 161 -92 223
s-136 93 -225 93c-87 0 -162 -31 -225 -93c-62 -61 -93 -136 -93 -223s31 -162 93 -225c63 -62 138 -93 225 -93zM401 70c-82 0 -152 29 -210 86c-57 58 -86 128 -86 210c0 80 29 149 87 206s128 86 209 86s150 -29 208 -86s87 -125 87 -206c0 -82 -29 -152 -87 -210
c-58 -57 -127 -86 -208 -86zM401 115c37 0 71 13 103 38c24 19 45 43 63 73c-54 -14 -108 -21 -163 -21s-112 7 -169 21c18 -29 39 -53 62 -72c33 -26 67 -39 104 -39zM167 331l57 -89c60 -13 114 -21 177 -21c57 0 117 7 178 21l56 89h-468zM402 460l-40 -94h79zM228 534
l77 -96c3 -3 10 -1 20 4c11 5 16 9 15 11l-51 116c-5 5 -17 1 -36 -11c-8 -9 -16 -17 -25 -24zM499 438l74 96c3 3 -6 11 -25 23c-19 13 -30 17 -34 12c-20 -27 -34 -76 -49 -116c2 -3 4 -5 7 -7c13 -9 22 -12 27 -8zM681 7h-11v40h-16v11h43v-11h-16v-40zM711 7h-9v51h16
l9 -39l9 39h15v-51h-9v40l-11 -40h-9l-11 40v-40z" />
    <glyph glyph-name="equal" unicode="=" 
d="M401 -2c-101 0 -188 36 -260 107c-71 72 -107 159 -107 261c0 101 36 187 107 259s158 108 260 108c101 0 188 -36 260 -108s108 -158 108 -259s-36 -188 -108 -260s-159 -108 -260 -108zM401 48c88 0 163 31 224 93c62 63 93 138 93 225s-31 161 -92 223
s-136 93 -225 93c-87 0 -162 -31 -225 -93c-62 -61 -93 -136 -93 -223s31 -162 93 -225c63 -62 138 -93 225 -93zM401 70c-82 0 -152 29 -210 86c-57 58 -86 128 -86 210c0 80 29 149 87 206s128 86 209 86s150 -29 208 -86s87 -125 87 -206c0 -82 -29 -152 -87 -210
c-58 -57 -127 -86 -208 -86zM401 115c37 0 71 13 103 38c24 19 45 43 63 73c-54 -14 -108 -21 -163 -21s-112 7 -169 21c18 -29 39 -53 62 -72c33 -26 67 -39 104 -39zM167 331l57 -89c60 -13 114 -21 177 -21c57 0 117 7 178 21l56 89h-468zM402 460l-40 -94h79zM228 534
l77 -96c3 -3 10 -1 20 4c11 5 16 9 15 11l-51 116c-5 5 -17 1 -36 -11c-8 -9 -16 -17 -25 -24zM499 438l74 96c3 3 -6 11 -25 23c-19 13 -30 17 -34 12c-20 -27 -34 -76 -49 -116c2 -3 4 -5 7 -7c13 -9 22 -12 27 -8zM681 7h-11v40h-16v11h43v-11h-16v-40zM711 7h-9v51h16
l9 -39l9 39h15v-51h-9v40l-11 -40h-9l-11 40v-40z" />
    <glyph glyph-name="greater" unicode="&#x3e;" 
d="M401 -2c-101 0 -188 36 -260 107c-71 72 -107 159 -107 261c0 101 36 187 107 259s158 108 260 108c101 0 188 -36 260 -108s108 -158 108 -259s-36 -188 -108 -260s-159 -108 -260 -108zM401 48c88 0 163 31 224 93c62 63 93 138 93 225s-31 161 -92 223
s-136 93 -225 93c-87 0 -162 -31 -225 -93c-62 -61 -93 -136 -93 -223s31 -162 93 -225c63 -62 138 -93 225 -93zM401 70c-82 0 -152 29 -210 86c-57 58 -86 128 -86 210c0 80 29 149 87 206s128 86 209 86s150 -29 208 -86s87 -125 87 -206c0 -82 -29 -152 -87 -210
c-58 -57 -127 -86 -208 -86zM401 115c37 0 71 13 103 38c24 19 45 43 63 73c-54 -14 -108 -21 -163 -21s-112 7 -169 21c18 -29 39 -53 62 -72c33 -26 67 -39 104 -39zM167 331l57 -89c60 -13 114 -21 177 -21c57 0 117 7 178 21l56 89h-468zM402 460l-40 -94h79zM228 534
l77 -96c3 -3 10 -1 20 4c11 5 16 9 15 11l-51 116c-5 5 -17 1 -36 -11c-8 -9 -16 -17 -25 -24zM499 438l74 96c3 3 -6 11 -25 23c-19 13 -30 17 -34 12c-20 -27 -34 -76 -49 -116c2 -3 4 -5 7 -7c13 -9 22 -12 27 -8zM681 7h-11v40h-16v11h43v-11h-16v-40zM711 7h-9v51h16
l9 -39l9 39h15v-51h-9v40l-11 -40h-9l-11 40v-40z" />
    <glyph glyph-name="tilde" unicode="&#x2dc;" horiz-adv-x="478" 
d="M350 920c3 6 7 14 18 14h46c7 0 14 -4 13 -16c-6 -95 -40 -135 -114 -139c-54 -3 -102 28 -149 29c-16 0 -27 -6 -34 -17c-4 -5 -7 -12 -18 -12h-46c-7 0 -16 4 -15 16c8 94 41 134 115 138c55 3 103 -27 149 -28c16 0 27 5 35 15z" />
    <glyph glyph-name="acute" unicode="&#xb4;" horiz-adv-x="423" 
d="M61 826l157 153c96 93 227 -74 106 -126l-210 -89c-40 -17 -85 31 -53 62z" />
    <glyph glyph-name="dieresis" unicode="&#xa8;" horiz-adv-x="480" 
d="M136 952c48 0 87 -38 87 -86c0 -47 -39 -86 -87 -86c-46 0 -86 39 -86 86c0 48 40 86 86 86zM344 952c48 0 86 -38 86 -86c0 -47 -38 -86 -86 -86s-86 39 -86 86c0 48 38 86 86 86zM160 866c0 14 -10 25 -24 25s-24 -11 -24 -25s10 -25 24 -25s24 11 24 25zM368 866
c0 14 -10 25 -24 25s-24 -11 -24 -25s10 -25 24 -25s24 11 24 25z" />
    <glyph glyph-name="circumflex" unicode="&#x2c6;" horiz-adv-x="568" 
d="M253 832l-112 -77c-9 -6 -22 -5 -28 3l-58 73c-7 8 -6 22 3 28l182 132c11 8 28 13 44 13s33 -5 45 -13l181 -132c9 -6 10 -20 4 -28l-58 -73c-7 -8 -20 -9 -29 -3l-112 77c-25 18 -39 15 -62 0z" />
    <glyph glyph-name="ring" unicode="&#x2da;" horiz-adv-x="865" 
d="M413 958c75 0 136 -62 136 -136c0 -76 -61 -138 -136 -138s-137 62 -137 138c0 74 62 136 137 136zM413 863c-24 0 -42 -19 -42 -41c0 -24 18 -43 42 -43c23 0 43 19 43 43c0 22 -20 41 -43 41z" />
    <glyph glyph-name="dotlessi" unicode="&#x131;" horiz-adv-x="347" 
d="M279 569c10 0 20 -8 20 -19v-530c0 -11 -10 -20 -20 -20h-211c-10 0 -20 9 -20 20v530c0 11 10 19 20 19h211zM158 96h31v377h-31v-377z" />
    <glyph glyph-name="caron" unicode="&#x2c7;" horiz-adv-x="568" 
d="M253 923c23 -15 37 -18 62 0l112 77c9 6 22 5 29 -3l58 -73c6 -8 5 -22 -4 -28l-181 -132c-12 -8 -29 -13 -45 -13s-33 5 -44 13l-182 132c-9 6 -10 20 -3 28l58 73c6 8 19 9 28 3z" />
    <glyph glyph-name="endash" unicode="&#x2013;" horiz-adv-x="659" 
d="M614 251c0 -11 -9 -20 -21 -20h-527c-11 0 -21 9 -21 20v166c0 10 10 19 21 19h527c12 0 21 -9 21 -19v-166zM141 349v-31h377v31h-377z" />
    <glyph glyph-name="emdash" unicode="&#x2014;" horiz-adv-x="859" 
d="M814 251c0 -11 -9 -20 -21 -20h-727c-11 0 -21 9 -21 20v166c0 10 10 19 21 19h727c12 0 21 -9 21 -19v-166zM141 349v-31h577v31h-577z" />
    <glyph glyph-name="questiondown" unicode="&#xbf;" horiz-adv-x="786" 
d="M727 196c13 7 26 -2 23 -17l-42 -182c-4 -19 -25 -35 -42 -43c-98 -44 -182 -54 -324 -54c-170 1 -311 76 -312 211c0 164 220 301 429 300c66 0 141 -46 181 -87c14 -16 10 -36 -12 -40c-112 -25 -169 -37 -255 -74c-26 -10 -73 -41 -66 -69c11 -32 54 -33 88 -32
c118 3 222 30 332 87zM390 441c-59 0 -107 48 -107 107s48 107 107 107c60 0 107 -48 107 -107s-47 -107 -107 -107zM392 334c-67 -15 -165 -52 -215 -116c-19 -24 -30 -53 -32 -84c-2 -42 19 -77 52 -102c64 -46 154 -55 246 -46c61 7 121 21 177 41l6 31
c-83 -29 -168 -46 -252 -46c-61 1 -117 15 -159 45c-25 18 -40 47 -37 79c10 108 168 172 271 180c14 1 32 5 3 17c-15 6 -40 5 -60 1zM366 548c0 -14 10 -25 24 -25s24 11 24 25s-10 25 -24 25s-24 -11 -24 -25z" />
    <glyph glyph-name="exclamdown" unicode="&#xa1;" horiz-adv-x="413" 
d="M306 345c48 -88 64 -173 71 -261c7 -83 -54 -175 -170 -175c-117 0 -177 96 -171 175c7 88 24 173 70 261c25 46 54 75 101 75c46 0 74 -29 99 -75zM207 450c-60 0 -107 48 -107 107s47 107 107 107c59 0 107 -48 107 -107s-48 -107 -107 -107zM192 332v-330
c0 -8 0 -15 15 -15s15 7 15 15v330c0 7 0 14 -15 14s-15 -7 -15 -14zM231 558c0 14 -10 25 -24 25s-24 -11 -24 -25s10 -25 24 -25s24 11 24 25z" />
    <glyph glyph-name="currency" unicode="&#xa4;" horiz-adv-x="716" 
d="M380 382v-38c0 -3 5 -8 9 -8h136c9 0 17 -8 17 -18v-71c0 -10 -7 -18 -17 -18h-139c-5 0 -6 -3 -6 -4c1 -25 34 -42 72 -42c64 -1 129 12 201 37c14 5 34 -8 30 -22l-39 -159c-9 -40 -165 -54 -267 -54c-145 0 -277 75 -287 210c-1 9 -1 18 -2 27c0 3 -3 7 -7 7h-48
c-10 0 -18 8 -18 18v71c0 10 8 18 18 18h40c4 0 9 4 9 8v38c0 4 -5 8 -9 8h-40c-10 0 -18 7 -18 18v71c0 10 8 18 18 18h48c4 0 7 3 7 7c1 9 1 18 2 27c10 135 142 210 287 210c102 0 258 -14 267 -54l39 -159c4 -14 -16 -27 -30 -22c-72 25 -137 38 -201 37
c-38 0 -71 -17 -72 -42c0 -1 1 -4 6 -4h139c10 0 17 -8 17 -18v-71c0 -11 -8 -18 -17 -18h-136c-4 0 -9 -5 -9 -8zM95 268h112v-29c0 -129 133 -168 242 -168c35 0 72 5 110 12l8 30c-38 -10 -81 -14 -118 -14c-91 0 -212 30 -212 140v29h225v29h-225v131h225v31h-225v29
c0 110 121 139 212 139c37 0 79 -3 117 -13l-8 30c-38 7 -74 12 -109 12c-109 0 -242 -39 -242 -168v-29h-112v-31h112v-131h-112v-29z" />
    <glyph glyph-name="uni00A0" unicode="&#xa0;" horiz-adv-x="500" 
 />
    <glyph glyph-name="quotesinglbase" unicode="&#x201a;" horiz-adv-x="284" 
d="M142 200c58 0 107 -48 107 -107c0 -102 -76 -159 -140 -188c-27 -14 -64 10 -52 24c19 26 24 54 11 86c-20 20 -33 48 -33 78c0 59 48 107 107 107zM166 93c0 14 -10 25 -24 25s-24 -11 -24 -25s10 -25 24 -25s24 11 24 25z" />
    <glyph glyph-name="quotedblbase" unicode="&#x201e;" horiz-adv-x="568" 
d="M142 200c58 0 107 -48 107 -107c0 -102 -76 -159 -140 -188c-27 -14 -64 10 -52 24c19 26 24 54 11 86c-20 20 -33 48 -33 78c0 59 48 107 107 107zM426 200c58 0 107 -48 107 -107c0 -102 -76 -159 -140 -188c-27 -14 -64 10 -52 24c19 26 24 54 11 86
c-20 20 -33 48 -33 78c0 59 48 107 107 107zM166 93c0 14 -10 25 -24 25s-24 -11 -24 -25s10 -25 24 -25s24 11 24 25zM450 93c0 14 -10 25 -24 25s-24 -11 -24 -25s10 -25 24 -25s24 11 24 25z" />
    <glyph glyph-name="ellipsis" unicode="&#x2026;" horiz-adv-x="852" 
d="M142 200c58 0 107 -48 107 -107s-49 -107 -107 -107c-59 0 -107 48 -107 107s48 107 107 107zM426 200c58 0 107 -48 107 -107s-49 -107 -107 -107c-59 0 -107 48 -107 107s48 107 107 107zM710 200c58 0 107 -48 107 -107s-49 -107 -107 -107c-59 0 -107 48 -107 107
s48 107 107 107zM166 93c0 14 -10 25 -24 25s-24 -11 -24 -25s10 -25 24 -25s24 11 24 25zM450 93c0 14 -10 25 -24 25s-24 -11 -24 -25s10 -25 24 -25s24 11 24 25zM734 93c0 14 -10 25 -24 25s-24 -11 -24 -25s10 -25 24 -25s24 11 24 25z" />
    <glyph glyph-name="OE" unicode="&#x152;" horiz-adv-x="1183" 
d="M30 364c0 110 38 221 120 290c73 61 183 87 289 87c44 0 88 -5 131 -14h533c14 0 26 -9 27 -21l25 -178c2 -11 -8 -20 -20 -20h-278c-10 0 -19 -5 -19 -17v-18c0 -12 9 -17 19 -17h192c12 0 21 -9 21 -20v-145c0 -12 -7 -21 -21 -21h-192c-13 0 -19 -7 -19 -17v-17
c0 -13 9 -18 19 -18h286c10 0 23 -9 19 -20l-41 -178c-3 -11 -15 -20 -28 -20h-519c-43 -10 -90 -15 -135 -15c-106 0 -216 26 -289 88c-82 69 -120 180 -120 291zM310 364c-4 -68 52 -119 129 -119s133 51 129 119c4 67 -52 118 -129 118s-133 -51 -129 -118zM1048 601
l-4 30h-336c-8 0 -15 -7 -15 -14v-117c-12 22 -27 42 -45 58c-48 39 -131 66 -209 66s-161 -27 -209 -66c-50 -43 -75 -119 -75 -194s25 -151 75 -194c48 -39 131 -66 209 -66s161 27 209 66c18 16 33 36 45 59v-120c0 -7 7 -15 15 -15h331l7 31h-324v223h252v30h-252v223
h326zM185 364c0 68 20 133 64 171c43 36 116 60 190 60s147 -24 190 -60c44 -38 64 -103 64 -171s-20 -133 -64 -171c-43 -36 -116 -60 -190 -60s-147 24 -190 60c-44 38 -64 103 -64 171z" />
    <glyph glyph-name="florin" unicode="&#x192;" 
d="M401 -2c-101 0 -188 36 -260 107c-71 72 -107 159 -107 261c0 101 36 187 107 259s158 108 260 108c101 0 188 -36 260 -108s108 -158 108 -259s-36 -188 -108 -260s-159 -108 -260 -108zM401 48c88 0 163 31 224 93c62 63 93 138 93 225s-31 161 -92 223
s-136 93 -225 93c-87 0 -162 -31 -225 -93c-62 -61 -93 -136 -93 -223s31 -162 93 -225c63 -62 138 -93 225 -93zM401 70c-82 0 -152 29 -210 86c-57 58 -86 128 -86 210c0 80 29 149 87 206s128 86 209 86s150 -29 208 -86s87 -125 87 -206c0 -82 -29 -152 -87 -210
c-58 -57 -127 -86 -208 -86zM401 115c37 0 71 13 103 38c24 19 45 43 63 73c-54 -14 -108 -21 -163 -21s-112 7 -169 21c18 -29 39 -53 62 -72c33 -26 67 -39 104 -39zM167 331l57 -89c60 -13 114 -21 177 -21c57 0 117 7 178 21l56 89h-468zM402 460l-40 -94h79zM228 534
l77 -96c3 -3 10 -1 20 4c11 5 16 9 15 11l-51 116c-5 5 -17 1 -36 -11c-8 -9 -16 -17 -25 -24zM499 438l74 96c3 3 -6 11 -25 23c-19 13 -30 17 -34 12c-20 -27 -34 -76 -49 -116c2 -3 4 -5 7 -7c13 -9 22 -12 27 -8zM681 7h-11v40h-16v11h43v-11h-16v-40zM711 7h-9v51h16
l9 -39l9 39h15v-51h-9v40l-11 -40h-9l-11 40v-40z" />
    <glyph glyph-name="perthousand" unicode="&#x2030;" 
d="M401 -2c-101 0 -188 36 -260 107c-71 72 -107 159 -107 261c0 101 36 187 107 259s158 108 260 108c101 0 188 -36 260 -108s108 -158 108 -259s-36 -188 -108 -260s-159 -108 -260 -108zM401 48c88 0 163 31 224 93c62 63 93 138 93 225s-31 161 -92 223
s-136 93 -225 93c-87 0 -162 -31 -225 -93c-62 -61 -93 -136 -93 -223s31 -162 93 -225c63 -62 138 -93 225 -93zM401 70c-82 0 -152 29 -210 86c-57 58 -86 128 -86 210c0 80 29 149 87 206s128 86 209 86s150 -29 208 -86s87 -125 87 -206c0 -82 -29 -152 -87 -210
c-58 -57 -127 -86 -208 -86zM401 115c37 0 71 13 103 38c24 19 45 43 63 73c-54 -14 -108 -21 -163 -21s-112 7 -169 21c18 -29 39 -53 62 -72c33 -26 67 -39 104 -39zM167 331l57 -89c60 -13 114 -21 177 -21c57 0 117 7 178 21l56 89h-468zM402 460l-40 -94h79zM228 534
l77 -96c3 -3 10 -1 20 4c11 5 16 9 15 11l-51 116c-5 5 -17 1 -36 -11c-8 -9 -16 -17 -25 -24zM499 438l74 96c3 3 -6 11 -25 23c-19 13 -30 17 -34 12c-20 -27 -34 -76 -49 -116c2 -3 4 -5 7 -7c13 -9 22 -12 27 -8zM681 7h-11v40h-16v11h43v-11h-16v-40zM711 7h-9v51h16
l9 -39l9 39h15v-51h-9v40l-11 -40h-9l-11 40v-40z" />
    <glyph glyph-name="Scaron" unicode="&#x160;" 
d="M401 -2c-101 0 -188 36 -260 107c-71 72 -107 159 -107 261c0 101 36 187 107 259s158 108 260 108c101 0 188 -36 260 -108s108 -158 108 -259s-36 -188 -108 -260s-159 -108 -260 -108zM401 48c88 0 163 31 224 93c62 63 93 138 93 225s-31 161 -92 223
s-136 93 -225 93c-87 0 -162 -31 -225 -93c-62 -61 -93 -136 -93 -223s31 -162 93 -225c63 -62 138 -93 225 -93zM401 70c-82 0 -152 29 -210 86c-57 58 -86 128 -86 210c0 80 29 149 87 206s128 86 209 86s150 -29 208 -86s87 -125 87 -206c0 -82 -29 -152 -87 -210
c-58 -57 -127 -86 -208 -86zM401 115c37 0 71 13 103 38c24 19 45 43 63 73c-54 -14 -108 -21 -163 -21s-112 7 -169 21c18 -29 39 -53 62 -72c33 -26 67 -39 104 -39zM167 331l57 -89c60 -13 114 -21 177 -21c57 0 117 7 178 21l56 89h-468zM402 460l-40 -94h79zM228 534
l77 -96c3 -3 10 -1 20 4c11 5 16 9 15 11l-51 116c-5 5 -17 1 -36 -11c-8 -9 -16 -17 -25 -24zM499 438l74 96c3 3 -6 11 -25 23c-19 13 -30 17 -34 12c-20 -27 -34 -76 -49 -116c2 -3 4 -5 7 -7c13 -9 22 -12 27 -8zM681 7h-11v40h-16v11h43v-11h-16v-40zM711 7h-9v51h16
l9 -39l9 39h15v-51h-9v40l-11 -40h-9l-11 40v-40z" />
    <glyph glyph-name="guilsinglleft" unicode="&#x2039;" 
d="M401 -2c-101 0 -188 36 -260 107c-71 72 -107 159 -107 261c0 101 36 187 107 259s158 108 260 108c101 0 188 -36 260 -108s108 -158 108 -259s-36 -188 -108 -260s-159 -108 -260 -108zM401 48c88 0 163 31 224 93c62 63 93 138 93 225s-31 161 -92 223
s-136 93 -225 93c-87 0 -162 -31 -225 -93c-62 -61 -93 -136 -93 -223s31 -162 93 -225c63 -62 138 -93 225 -93zM401 70c-82 0 -152 29 -210 86c-57 58 -86 128 -86 210c0 80 29 149 87 206s128 86 209 86s150 -29 208 -86s87 -125 87 -206c0 -82 -29 -152 -87 -210
c-58 -57 -127 -86 -208 -86zM401 115c37 0 71 13 103 38c24 19 45 43 63 73c-54 -14 -108 -21 -163 -21s-112 7 -169 21c18 -29 39 -53 62 -72c33 -26 67 -39 104 -39zM167 331l57 -89c60 -13 114 -21 177 -21c57 0 117 7 178 21l56 89h-468zM402 460l-40 -94h79zM228 534
l77 -96c3 -3 10 -1 20 4c11 5 16 9 15 11l-51 116c-5 5 -17 1 -36 -11c-8 -9 -16 -17 -25 -24zM499 438l74 96c3 3 -6 11 -25 23c-19 13 -30 17 -34 12c-20 -27 -34 -76 -49 -116c2 -3 4 -5 7 -7c13 -9 22 -12 27 -8zM681 7h-11v40h-16v11h43v-11h-16v-40zM711 7h-9v51h16
l9 -39l9 39h15v-51h-9v40l-11 -40h-9l-11 40v-40z" />
    <glyph glyph-name="Zcaron" unicode="&#x17d;" 
d="M401 -2c-101 0 -188 36 -260 107c-71 72 -107 159 -107 261c0 101 36 187 107 259s158 108 260 108c101 0 188 -36 260 -108s108 -158 108 -259s-36 -188 -108 -260s-159 -108 -260 -108zM401 48c88 0 163 31 224 93c62 63 93 138 93 225s-31 161 -92 223
s-136 93 -225 93c-87 0 -162 -31 -225 -93c-62 -61 -93 -136 -93 -223s31 -162 93 -225c63 -62 138 -93 225 -93zM401 70c-82 0 -152 29 -210 86c-57 58 -86 128 -86 210c0 80 29 149 87 206s128 86 209 86s150 -29 208 -86s87 -125 87 -206c0 -82 -29 -152 -87 -210
c-58 -57 -127 -86 -208 -86zM401 115c37 0 71 13 103 38c24 19 45 43 63 73c-54 -14 -108 -21 -163 -21s-112 7 -169 21c18 -29 39 -53 62 -72c33 -26 67 -39 104 -39zM167 331l57 -89c60 -13 114 -21 177 -21c57 0 117 7 178 21l56 89h-468zM402 460l-40 -94h79zM228 534
l77 -96c3 -3 10 -1 20 4c11 5 16 9 15 11l-51 116c-5 5 -17 1 -36 -11c-8 -9 -16 -17 -25 -24zM499 438l74 96c3 3 -6 11 -25 23c-19 13 -30 17 -34 12c-20 -27 -34 -76 -49 -116c2 -3 4 -5 7 -7c13 -9 22 -12 27 -8zM681 7h-11v40h-16v11h43v-11h-16v-40zM711 7h-9v51h16
l9 -39l9 39h15v-51h-9v40l-11 -40h-9l-11 40v-40z" />
    <glyph glyph-name="trademark" unicode="&#x2122;" 
d="M401 -2c-101 0 -188 36 -260 107c-71 72 -107 159 -107 261c0 101 36 187 107 259s158 108 260 108c101 0 188 -36 260 -108s108 -158 108 -259s-36 -188 -108 -260s-159 -108 -260 -108zM401 48c88 0 163 31 224 93c62 63 93 138 93 225s-31 161 -92 223
s-136 93 -225 93c-87 0 -162 -31 -225 -93c-62 -61 -93 -136 -93 -223s31 -162 93 -225c63 -62 138 -93 225 -93zM401 70c-82 0 -152 29 -210 86c-57 58 -86 128 -86 210c0 80 29 149 87 206s128 86 209 86s150 -29 208 -86s87 -125 87 -206c0 -82 -29 -152 -87 -210
c-58 -57 -127 -86 -208 -86zM401 115c37 0 71 13 103 38c24 19 45 43 63 73c-54 -14 -108 -21 -163 -21s-112 7 -169 21c18 -29 39 -53 62 -72c33 -26 67 -39 104 -39zM167 331l57 -89c60 -13 114 -21 177 -21c57 0 117 7 178 21l56 89h-468zM402 460l-40 -94h79zM228 534
l77 -96c3 -3 10 -1 20 4c11 5 16 9 15 11l-51 116c-5 5 -17 1 -36 -11c-8 -9 -16 -17 -25 -24zM499 438l74 96c3 3 -6 11 -25 23c-19 13 -30 17 -34 12c-20 -27 -34 -76 -49 -116c2 -3 4 -5 7 -7c13 -9 22 -12 27 -8zM681 7h-11v40h-16v11h43v-11h-16v-40zM711 7h-9v51h16
l9 -39l9 39h15v-51h-9v40l-11 -40h-9l-11 40v-40z" />
    <glyph glyph-name="scaron" unicode="&#x161;" 
d="M401 -2c-101 0 -188 36 -260 107c-71 72 -107 159 -107 261c0 101 36 187 107 259s158 108 260 108c101 0 188 -36 260 -108s108 -158 108 -259s-36 -188 -108 -260s-159 -108 -260 -108zM401 48c88 0 163 31 224 93c62 63 93 138 93 225s-31 161 -92 223
s-136 93 -225 93c-87 0 -162 -31 -225 -93c-62 -61 -93 -136 -93 -223s31 -162 93 -225c63 -62 138 -93 225 -93zM401 70c-82 0 -152 29 -210 86c-57 58 -86 128 -86 210c0 80 29 149 87 206s128 86 209 86s150 -29 208 -86s87 -125 87 -206c0 -82 -29 -152 -87 -210
c-58 -57 -127 -86 -208 -86zM401 115c37 0 71 13 103 38c24 19 45 43 63 73c-54 -14 -108 -21 -163 -21s-112 7 -169 21c18 -29 39 -53 62 -72c33 -26 67 -39 104 -39zM167 331l57 -89c60 -13 114 -21 177 -21c57 0 117 7 178 21l56 89h-468zM402 460l-40 -94h79zM228 534
l77 -96c3 -3 10 -1 20 4c11 5 16 9 15 11l-51 116c-5 5 -17 1 -36 -11c-8 -9 -16 -17 -25 -24zM499 438l74 96c3 3 -6 11 -25 23c-19 13 -30 17 -34 12c-20 -27 -34 -76 -49 -116c2 -3 4 -5 7 -7c13 -9 22 -12 27 -8zM681 7h-11v40h-16v11h43v-11h-16v-40zM711 7h-9v51h16
l9 -39l9 39h15v-51h-9v40l-11 -40h-9l-11 40v-40z" />
    <glyph glyph-name="guilsinglright" unicode="&#x203a;" 
d="M401 -2c-101 0 -188 36 -260 107c-71 72 -107 159 -107 261c0 101 36 187 107 259s158 108 260 108c101 0 188 -36 260 -108s108 -158 108 -259s-36 -188 -108 -260s-159 -108 -260 -108zM401 48c88 0 163 31 224 93c62 63 93 138 93 225s-31 161 -92 223
s-136 93 -225 93c-87 0 -162 -31 -225 -93c-62 -61 -93 -136 -93 -223s31 -162 93 -225c63 -62 138 -93 225 -93zM401 70c-82 0 -152 29 -210 86c-57 58 -86 128 -86 210c0 80 29 149 87 206s128 86 209 86s150 -29 208 -86s87 -125 87 -206c0 -82 -29 -152 -87 -210
c-58 -57 -127 -86 -208 -86zM401 115c37 0 71 13 103 38c24 19 45 43 63 73c-54 -14 -108 -21 -163 -21s-112 7 -169 21c18 -29 39 -53 62 -72c33 -26 67 -39 104 -39zM167 331l57 -89c60 -13 114 -21 177 -21c57 0 117 7 178 21l56 89h-468zM402 460l-40 -94h79zM228 534
l77 -96c3 -3 10 -1 20 4c11 5 16 9 15 11l-51 116c-5 5 -17 1 -36 -11c-8 -9 -16 -17 -25 -24zM499 438l74 96c3 3 -6 11 -25 23c-19 13 -30 17 -34 12c-20 -27 -34 -76 -49 -116c2 -3 4 -5 7 -7c13 -9 22 -12 27 -8zM681 7h-11v40h-16v11h43v-11h-16v-40zM711 7h-9v51h16
l9 -39l9 39h15v-51h-9v40l-11 -40h-9l-11 40v-40z" />
    <glyph glyph-name="oe" unicode="&#x153;" 
d="M401 -2c-101 0 -188 36 -260 107c-71 72 -107 159 -107 261c0 101 36 187 107 259s158 108 260 108c101 0 188 -36 260 -108s108 -158 108 -259s-36 -188 -108 -260s-159 -108 -260 -108zM401 48c88 0 163 31 224 93c62 63 93 138 93 225s-31 161 -92 223
s-136 93 -225 93c-87 0 -162 -31 -225 -93c-62 -61 -93 -136 -93 -223s31 -162 93 -225c63 -62 138 -93 225 -93zM401 70c-82 0 -152 29 -210 86c-57 58 -86 128 -86 210c0 80 29 149 87 206s128 86 209 86s150 -29 208 -86s87 -125 87 -206c0 -82 -29 -152 -87 -210
c-58 -57 -127 -86 -208 -86zM401 115c37 0 71 13 103 38c24 19 45 43 63 73c-54 -14 -108 -21 -163 -21s-112 7 -169 21c18 -29 39 -53 62 -72c33 -26 67 -39 104 -39zM167 331l57 -89c60 -13 114 -21 177 -21c57 0 117 7 178 21l56 89h-468zM402 460l-40 -94h79zM228 534
l77 -96c3 -3 10 -1 20 4c11 5 16 9 15 11l-51 116c-5 5 -17 1 -36 -11c-8 -9 -16 -17 -25 -24zM499 438l74 96c3 3 -6 11 -25 23c-19 13 -30 17 -34 12c-20 -27 -34 -76 -49 -116c2 -3 4 -5 7 -7c13 -9 22 -12 27 -8zM681 7h-11v40h-16v11h43v-11h-16v-40zM711 7h-9v51h16
l9 -39l9 39h15v-51h-9v40l-11 -40h-9l-11 40v-40z" />
    <glyph glyph-name="zcaron" unicode="&#x17e;" 
d="M401 -2c-101 0 -188 36 -260 107c-71 72 -107 159 -107 261c0 101 36 187 107 259s158 108 260 108c101 0 188 -36 260 -108s108 -158 108 -259s-36 -188 -108 -260s-159 -108 -260 -108zM401 48c88 0 163 31 224 93c62 63 93 138 93 225s-31 161 -92 223
s-136 93 -225 93c-87 0 -162 -31 -225 -93c-62 -61 -93 -136 -93 -223s31 -162 93 -225c63 -62 138 -93 225 -93zM401 70c-82 0 -152 29 -210 86c-57 58 -86 128 -86 210c0 80 29 149 87 206s128 86 209 86s150 -29 208 -86s87 -125 87 -206c0 -82 -29 -152 -87 -210
c-58 -57 -127 -86 -208 -86zM401 115c37 0 71 13 103 38c24 19 45 43 63 73c-54 -14 -108 -21 -163 -21s-112 7 -169 21c18 -29 39 -53 62 -72c33 -26 67 -39 104 -39zM167 331l57 -89c60 -13 114 -21 177 -21c57 0 117 7 178 21l56 89h-468zM402 460l-40 -94h79zM228 534
l77 -96c3 -3 10 -1 20 4c11 5 16 9 15 11l-51 116c-5 5 -17 1 -36 -11c-8 -9 -16 -17 -25 -24zM499 438l74 96c3 3 -6 11 -25 23c-19 13 -30 17 -34 12c-20 -27 -34 -76 -49 -116c2 -3 4 -5 7 -7c13 -9 22 -12 27 -8zM681 7h-11v40h-16v11h43v-11h-16v-40zM711 7h-9v51h16
l9 -39l9 39h15v-51h-9v40l-11 -40h-9l-11 40v-40z" />
    <glyph glyph-name="Ydieresis" unicode="&#x178;" 
d="M401 -2c-101 0 -188 36 -260 107c-71 72 -107 159 -107 261c0 101 36 187 107 259s158 108 260 108c101 0 188 -36 260 -108s108 -158 108 -259s-36 -188 -108 -260s-159 -108 -260 -108zM401 48c88 0 163 31 224 93c62 63 93 138 93 225s-31 161 -92 223
s-136 93 -225 93c-87 0 -162 -31 -225 -93c-62 -61 -93 -136 -93 -223s31 -162 93 -225c63 -62 138 -93 225 -93zM401 70c-82 0 -152 29 -210 86c-57 58 -86 128 -86 210c0 80 29 149 87 206s128 86 209 86s150 -29 208 -86s87 -125 87 -206c0 -82 -29 -152 -87 -210
c-58 -57 -127 -86 -208 -86zM401 115c37 0 71 13 103 38c24 19 45 43 63 73c-54 -14 -108 -21 -163 -21s-112 7 -169 21c18 -29 39 -53 62 -72c33 -26 67 -39 104 -39zM167 331l57 -89c60 -13 114 -21 177 -21c57 0 117 7 178 21l56 89h-468zM402 460l-40 -94h79zM228 534
l77 -96c3 -3 10 -1 20 4c11 5 16 9 15 11l-51 116c-5 5 -17 1 -36 -11c-8 -9 -16 -17 -25 -24zM499 438l74 96c3 3 -6 11 -25 23c-19 13 -30 17 -34 12c-20 -27 -34 -76 -49 -116c2 -3 4 -5 7 -7c13 -9 22 -12 27 -8zM681 7h-11v40h-16v11h43v-11h-16v-40zM711 7h-9v51h16
l9 -39l9 39h15v-51h-9v40l-11 -40h-9l-11 40v-40z" />
    <glyph glyph-name="threequarters" unicode="&#xbe;" 
d="M401 -2c-101 0 -188 36 -260 107c-71 72 -107 159 -107 261c0 101 36 187 107 259s158 108 260 108c101 0 188 -36 260 -108s108 -158 108 -259s-36 -188 -108 -260s-159 -108 -260 -108zM401 48c88 0 163 31 224 93c62 63 93 138 93 225s-31 161 -92 223
s-136 93 -225 93c-87 0 -162 -31 -225 -93c-62 -61 -93 -136 -93 -223s31 -162 93 -225c63 -62 138 -93 225 -93zM401 70c-82 0 -152 29 -210 86c-57 58 -86 128 -86 210c0 80 29 149 87 206s128 86 209 86s150 -29 208 -86s87 -125 87 -206c0 -82 -29 -152 -87 -210
c-58 -57 -127 -86 -208 -86zM401 115c37 0 71 13 103 38c24 19 45 43 63 73c-54 -14 -108 -21 -163 -21s-112 7 -169 21c18 -29 39 -53 62 -72c33 -26 67 -39 104 -39zM167 331l57 -89c60 -13 114 -21 177 -21c57 0 117 7 178 21l56 89h-468zM402 460l-40 -94h79zM228 534
l77 -96c3 -3 10 -1 20 4c11 5 16 9 15 11l-51 116c-5 5 -17 1 -36 -11c-8 -9 -16 -17 -25 -24zM499 438l74 96c3 3 -6 11 -25 23c-19 13 -30 17 -34 12c-20 -27 -34 -76 -49 -116c2 -3 4 -5 7 -7c13 -9 22 -12 27 -8zM681 7h-11v40h-16v11h43v-11h-16v-40zM711 7h-9v51h16
l9 -39l9 39h15v-51h-9v40l-11 -40h-9l-11 40v-40z" />
    <glyph glyph-name="onehalf" unicode="&#xbd;" 
d="M401 -2c-101 0 -188 36 -260 107c-71 72 -107 159 -107 261c0 101 36 187 107 259s158 108 260 108c101 0 188 -36 260 -108s108 -158 108 -259s-36 -188 -108 -260s-159 -108 -260 -108zM401 48c88 0 163 31 224 93c62 63 93 138 93 225s-31 161 -92 223
s-136 93 -225 93c-87 0 -162 -31 -225 -93c-62 -61 -93 -136 -93 -223s31 -162 93 -225c63 -62 138 -93 225 -93zM401 70c-82 0 -152 29 -210 86c-57 58 -86 128 -86 210c0 80 29 149 87 206s128 86 209 86s150 -29 208 -86s87 -125 87 -206c0 -82 -29 -152 -87 -210
c-58 -57 -127 -86 -208 -86zM401 115c37 0 71 13 103 38c24 19 45 43 63 73c-54 -14 -108 -21 -163 -21s-112 7 -169 21c18 -29 39 -53 62 -72c33 -26 67 -39 104 -39zM167 331l57 -89c60 -13 114 -21 177 -21c57 0 117 7 178 21l56 89h-468zM402 460l-40 -94h79zM228 534
l77 -96c3 -3 10 -1 20 4c11 5 16 9 15 11l-51 116c-5 5 -17 1 -36 -11c-8 -9 -16 -17 -25 -24zM499 438l74 96c3 3 -6 11 -25 23c-19 13 -30 17 -34 12c-20 -27 -34 -76 -49 -116c2 -3 4 -5 7 -7c13 -9 22 -12 27 -8zM681 7h-11v40h-16v11h43v-11h-16v-40zM711 7h-9v51h16
l9 -39l9 39h15v-51h-9v40l-11 -40h-9l-11 40v-40z" />
    <glyph glyph-name="onequarter" unicode="&#xbc;" 
d="M401 -2c-101 0 -188 36 -260 107c-71 72 -107 159 -107 261c0 101 36 187 107 259s158 108 260 108c101 0 188 -36 260 -108s108 -158 108 -259s-36 -188 -108 -260s-159 -108 -260 -108zM401 48c88 0 163 31 224 93c62 63 93 138 93 225s-31 161 -92 223
s-136 93 -225 93c-87 0 -162 -31 -225 -93c-62 -61 -93 -136 -93 -223s31 -162 93 -225c63 -62 138 -93 225 -93zM401 70c-82 0 -152 29 -210 86c-57 58 -86 128 -86 210c0 80 29 149 87 206s128 86 209 86s150 -29 208 -86s87 -125 87 -206c0 -82 -29 -152 -87 -210
c-58 -57 -127 -86 -208 -86zM401 115c37 0 71 13 103 38c24 19 45 43 63 73c-54 -14 -108 -21 -163 -21s-112 7 -169 21c18 -29 39 -53 62 -72c33 -26 67 -39 104 -39zM167 331l57 -89c60 -13 114 -21 177 -21c57 0 117 7 178 21l56 89h-468zM402 460l-40 -94h79zM228 534
l77 -96c3 -3 10 -1 20 4c11 5 16 9 15 11l-51 116c-5 5 -17 1 -36 -11c-8 -9 -16 -17 -25 -24zM499 438l74 96c3 3 -6 11 -25 23c-19 13 -30 17 -34 12c-20 -27 -34 -76 -49 -116c2 -3 4 -5 7 -7c13 -9 22 -12 27 -8zM681 7h-11v40h-16v11h43v-11h-16v-40zM711 7h-9v51h16
l9 -39l9 39h15v-51h-9v40l-11 -40h-9l-11 40v-40z" />
    <glyph glyph-name="guillemotright" unicode="&#xbb;" 
d="M401 -2c-101 0 -188 36 -260 107c-71 72 -107 159 -107 261c0 101 36 187 107 259s158 108 260 108c101 0 188 -36 260 -108s108 -158 108 -259s-36 -188 -108 -260s-159 -108 -260 -108zM401 48c88 0 163 31 224 93c62 63 93 138 93 225s-31 161 -92 223
s-136 93 -225 93c-87 0 -162 -31 -225 -93c-62 -61 -93 -136 -93 -223s31 -162 93 -225c63 -62 138 -93 225 -93zM401 70c-82 0 -152 29 -210 86c-57 58 -86 128 -86 210c0 80 29 149 87 206s128 86 209 86s150 -29 208 -86s87 -125 87 -206c0 -82 -29 -152 -87 -210
c-58 -57 -127 -86 -208 -86zM401 115c37 0 71 13 103 38c24 19 45 43 63 73c-54 -14 -108 -21 -163 -21s-112 7 -169 21c18 -29 39 -53 62 -72c33 -26 67 -39 104 -39zM167 331l57 -89c60 -13 114 -21 177 -21c57 0 117 7 178 21l56 89h-468zM402 460l-40 -94h79zM228 534
l77 -96c3 -3 10 -1 20 4c11 5 16 9 15 11l-51 116c-5 5 -17 1 -36 -11c-8 -9 -16 -17 -25 -24zM499 438l74 96c3 3 -6 11 -25 23c-19 13 -30 17 -34 12c-20 -27 -34 -76 -49 -116c2 -3 4 -5 7 -7c13 -9 22 -12 27 -8zM681 7h-11v40h-16v11h43v-11h-16v-40zM711 7h-9v51h16
l9 -39l9 39h15v-51h-9v40l-11 -40h-9l-11 40v-40z" />
    <glyph glyph-name="ordmasculine" unicode="&#xba;" 
d="M401 -2c-101 0 -188 36 -260 107c-71 72 -107 159 -107 261c0 101 36 187 107 259s158 108 260 108c101 0 188 -36 260 -108s108 -158 108 -259s-36 -188 -108 -260s-159 -108 -260 -108zM401 48c88 0 163 31 224 93c62 63 93 138 93 225s-31 161 -92 223
s-136 93 -225 93c-87 0 -162 -31 -225 -93c-62 -61 -93 -136 -93 -223s31 -162 93 -225c63 -62 138 -93 225 -93zM401 70c-82 0 -152 29 -210 86c-57 58 -86 128 -86 210c0 80 29 149 87 206s128 86 209 86s150 -29 208 -86s87 -125 87 -206c0 -82 -29 -152 -87 -210
c-58 -57 -127 -86 -208 -86zM401 115c37 0 71 13 103 38c24 19 45 43 63 73c-54 -14 -108 -21 -163 -21s-112 7 -169 21c18 -29 39 -53 62 -72c33 -26 67 -39 104 -39zM167 331l57 -89c60 -13 114 -21 177 -21c57 0 117 7 178 21l56 89h-468zM402 460l-40 -94h79zM228 534
l77 -96c3 -3 10 -1 20 4c11 5 16 9 15 11l-51 116c-5 5 -17 1 -36 -11c-8 -9 -16 -17 -25 -24zM499 438l74 96c3 3 -6 11 -25 23c-19 13 -30 17 -34 12c-20 -27 -34 -76 -49 -116c2 -3 4 -5 7 -7c13 -9 22 -12 27 -8zM681 7h-11v40h-16v11h43v-11h-16v-40zM711 7h-9v51h16
l9 -39l9 39h15v-51h-9v40l-11 -40h-9l-11 40v-40z" />
    <glyph glyph-name="onesuperior" unicode="&#xb9;" 
d="M401 -2c-101 0 -188 36 -260 107c-71 72 -107 159 -107 261c0 101 36 187 107 259s158 108 260 108c101 0 188 -36 260 -108s108 -158 108 -259s-36 -188 -108 -260s-159 -108 -260 -108zM401 48c88 0 163 31 224 93c62 63 93 138 93 225s-31 161 -92 223
s-136 93 -225 93c-87 0 -162 -31 -225 -93c-62 -61 -93 -136 -93 -223s31 -162 93 -225c63 -62 138 -93 225 -93zM401 70c-82 0 -152 29 -210 86c-57 58 -86 128 -86 210c0 80 29 149 87 206s128 86 209 86s150 -29 208 -86s87 -125 87 -206c0 -82 -29 -152 -87 -210
c-58 -57 -127 -86 -208 -86zM401 115c37 0 71 13 103 38c24 19 45 43 63 73c-54 -14 -108 -21 -163 -21s-112 7 -169 21c18 -29 39 -53 62 -72c33 -26 67 -39 104 -39zM167 331l57 -89c60 -13 114 -21 177 -21c57 0 117 7 178 21l56 89h-468zM402 460l-40 -94h79zM228 534
l77 -96c3 -3 10 -1 20 4c11 5 16 9 15 11l-51 116c-5 5 -17 1 -36 -11c-8 -9 -16 -17 -25 -24zM499 438l74 96c3 3 -6 11 -25 23c-19 13 -30 17 -34 12c-20 -27 -34 -76 -49 -116c2 -3 4 -5 7 -7c13 -9 22 -12 27 -8zM681 7h-11v40h-16v11h43v-11h-16v-40zM711 7h-9v51h16
l9 -39l9 39h15v-51h-9v40l-11 -40h-9l-11 40v-40z" />
    <glyph glyph-name="cedilla" unicode="&#xb8;" horiz-adv-x="739" 
d="M390 -28c58 0 114 -28 113 -95c-1 -64 -61 -98 -129 -99c-70 -2 -126 25 -130 41l-14 52c-2 8 9 16 18 11c28 -15 99 -27 108 -3c8 21 -14 27 -34 26c-13 -2 -24 1 -20 16l6 26c4 17 31 25 82 25z" />
    <glyph glyph-name="periodcentered" unicode="&#xb7;" 
d="M401 -2c-101 0 -188 36 -260 107c-71 72 -107 159 -107 261c0 101 36 187 107 259s158 108 260 108c101 0 188 -36 260 -108s108 -158 108 -259s-36 -188 -108 -260s-159 -108 -260 -108zM401 48c88 0 163 31 224 93c62 63 93 138 93 225s-31 161 -92 223
s-136 93 -225 93c-87 0 -162 -31 -225 -93c-62 -61 -93 -136 -93 -223s31 -162 93 -225c63 -62 138 -93 225 -93zM401 70c-82 0 -152 29 -210 86c-57 58 -86 128 -86 210c0 80 29 149 87 206s128 86 209 86s150 -29 208 -86s87 -125 87 -206c0 -82 -29 -152 -87 -210
c-58 -57 -127 -86 -208 -86zM401 115c37 0 71 13 103 38c24 19 45 43 63 73c-54 -14 -108 -21 -163 -21s-112 7 -169 21c18 -29 39 -53 62 -72c33 -26 67 -39 104 -39zM167 331l57 -89c60 -13 114 -21 177 -21c57 0 117 7 178 21l56 89h-468zM402 460l-40 -94h79zM228 534
l77 -96c3 -3 10 -1 20 4c11 5 16 9 15 11l-51 116c-5 5 -17 1 -36 -11c-8 -9 -16 -17 -25 -24zM499 438l74 96c3 3 -6 11 -25 23c-19 13 -30 17 -34 12c-20 -27 -34 -76 -49 -116c2 -3 4 -5 7 -7c13 -9 22 -12 27 -8zM681 7h-11v40h-16v11h43v-11h-16v-40zM711 7h-9v51h16
l9 -39l9 39h15v-51h-9v40l-11 -40h-9l-11 40v-40z" />
    <glyph glyph-name="paragraph" unicode="&#xb6;" 
d="M401 -2c-101 0 -188 36 -260 107c-71 72 -107 159 -107 261c0 101 36 187 107 259s158 108 260 108c101 0 188 -36 260 -108s108 -158 108 -259s-36 -188 -108 -260s-159 -108 -260 -108zM401 48c88 0 163 31 224 93c62 63 93 138 93 225s-31 161 -92 223
s-136 93 -225 93c-87 0 -162 -31 -225 -93c-62 -61 -93 -136 -93 -223s31 -162 93 -225c63 -62 138 -93 225 -93zM401 70c-82 0 -152 29 -210 86c-57 58 -86 128 -86 210c0 80 29 149 87 206s128 86 209 86s150 -29 208 -86s87 -125 87 -206c0 -82 -29 -152 -87 -210
c-58 -57 -127 -86 -208 -86zM401 115c37 0 71 13 103 38c24 19 45 43 63 73c-54 -14 -108 -21 -163 -21s-112 7 -169 21c18 -29 39 -53 62 -72c33 -26 67 -39 104 -39zM167 331l57 -89c60 -13 114 -21 177 -21c57 0 117 7 178 21l56 89h-468zM402 460l-40 -94h79zM228 534
l77 -96c3 -3 10 -1 20 4c11 5 16 9 15 11l-51 116c-5 5 -17 1 -36 -11c-8 -9 -16 -17 -25 -24zM499 438l74 96c3 3 -6 11 -25 23c-19 13 -30 17 -34 12c-20 -27 -34 -76 -49 -116c2 -3 4 -5 7 -7c13 -9 22 -12 27 -8zM681 7h-11v40h-16v11h43v-11h-16v-40zM711 7h-9v51h16
l9 -39l9 39h15v-51h-9v40l-11 -40h-9l-11 40v-40z" />
    <glyph glyph-name="mu" unicode="&#xb5;" 
d="M401 -2c-101 0 -188 36 -260 107c-71 72 -107 159 -107 261c0 101 36 187 107 259s158 108 260 108c101 0 188 -36 260 -108s108 -158 108 -259s-36 -188 -108 -260s-159 -108 -260 -108zM401 48c88 0 163 31 224 93c62 63 93 138 93 225s-31 161 -92 223
s-136 93 -225 93c-87 0 -162 -31 -225 -93c-62 -61 -93 -136 -93 -223s31 -162 93 -225c63 -62 138 -93 225 -93zM401 70c-82 0 -152 29 -210 86c-57 58 -86 128 -86 210c0 80 29 149 87 206s128 86 209 86s150 -29 208 -86s87 -125 87 -206c0 -82 -29 -152 -87 -210
c-58 -57 -127 -86 -208 -86zM401 115c37 0 71 13 103 38c24 19 45 43 63 73c-54 -14 -108 -21 -163 -21s-112 7 -169 21c18 -29 39 -53 62 -72c33 -26 67 -39 104 -39zM167 331l57 -89c60 -13 114 -21 177 -21c57 0 117 7 178 21l56 89h-468zM402 460l-40 -94h79zM228 534
l77 -96c3 -3 10 -1 20 4c11 5 16 9 15 11l-51 116c-5 5 -17 1 -36 -11c-8 -9 -16 -17 -25 -24zM499 438l74 96c3 3 -6 11 -25 23c-19 13 -30 17 -34 12c-20 -27 -34 -76 -49 -116c2 -3 4 -5 7 -7c13 -9 22 -12 27 -8zM681 7h-11v40h-16v11h43v-11h-16v-40zM711 7h-9v51h16
l9 -39l9 39h15v-51h-9v40l-11 -40h-9l-11 40v-40z" />
    <glyph glyph-name="mu" unicode="&#x3bc;" 
d="M401 -2c-101 0 -188 36 -260 107c-71 72 -107 159 -107 261c0 101 36 187 107 259s158 108 260 108c101 0 188 -36 260 -108s108 -158 108 -259s-36 -188 -108 -260s-159 -108 -260 -108zM401 48c88 0 163 31 224 93c62 63 93 138 93 225s-31 161 -92 223
s-136 93 -225 93c-87 0 -162 -31 -225 -93c-62 -61 -93 -136 -93 -223s31 -162 93 -225c63 -62 138 -93 225 -93zM401 70c-82 0 -152 29 -210 86c-57 58 -86 128 -86 210c0 80 29 149 87 206s128 86 209 86s150 -29 208 -86s87 -125 87 -206c0 -82 -29 -152 -87 -210
c-58 -57 -127 -86 -208 -86zM401 115c37 0 71 13 103 38c24 19 45 43 63 73c-54 -14 -108 -21 -163 -21s-112 7 -169 21c18 -29 39 -53 62 -72c33 -26 67 -39 104 -39zM167 331l57 -89c60 -13 114 -21 177 -21c57 0 117 7 178 21l56 89h-468zM402 460l-40 -94h79zM228 534
l77 -96c3 -3 10 -1 20 4c11 5 16 9 15 11l-51 116c-5 5 -17 1 -36 -11c-8 -9 -16 -17 -25 -24zM499 438l74 96c3 3 -6 11 -25 23c-19 13 -30 17 -34 12c-20 -27 -34 -76 -49 -116c2 -3 4 -5 7 -7c13 -9 22 -12 27 -8zM681 7h-11v40h-16v11h43v-11h-16v-40zM711 7h-9v51h16
l9 -39l9 39h15v-51h-9v40l-11 -40h-9l-11 40v-40z" />
    <glyph glyph-name="threesuperior" unicode="&#xb3;" 
d="M401 -2c-101 0 -188 36 -260 107c-71 72 -107 159 -107 261c0 101 36 187 107 259s158 108 260 108c101 0 188 -36 260 -108s108 -158 108 -259s-36 -188 -108 -260s-159 -108 -260 -108zM401 48c88 0 163 31 224 93c62 63 93 138 93 225s-31 161 -92 223
s-136 93 -225 93c-87 0 -162 -31 -225 -93c-62 -61 -93 -136 -93 -223s31 -162 93 -225c63 -62 138 -93 225 -93zM401 70c-82 0 -152 29 -210 86c-57 58 -86 128 -86 210c0 80 29 149 87 206s128 86 209 86s150 -29 208 -86s87 -125 87 -206c0 -82 -29 -152 -87 -210
c-58 -57 -127 -86 -208 -86zM401 115c37 0 71 13 103 38c24 19 45 43 63 73c-54 -14 -108 -21 -163 -21s-112 7 -169 21c18 -29 39 -53 62 -72c33 -26 67 -39 104 -39zM167 331l57 -89c60 -13 114 -21 177 -21c57 0 117 7 178 21l56 89h-468zM402 460l-40 -94h79zM228 534
l77 -96c3 -3 10 -1 20 4c11 5 16 9 15 11l-51 116c-5 5 -17 1 -36 -11c-8 -9 -16 -17 -25 -24zM499 438l74 96c3 3 -6 11 -25 23c-19 13 -30 17 -34 12c-20 -27 -34 -76 -49 -116c2 -3 4 -5 7 -7c13 -9 22 -12 27 -8zM681 7h-11v40h-16v11h43v-11h-16v-40zM711 7h-9v51h16
l9 -39l9 39h15v-51h-9v40l-11 -40h-9l-11 40v-40z" />
    <glyph glyph-name="twosuperior" unicode="&#xb2;" 
d="M401 -2c-101 0 -188 36 -260 107c-71 72 -107 159 -107 261c0 101 36 187 107 259s158 108 260 108c101 0 188 -36 260 -108s108 -158 108 -259s-36 -188 -108 -260s-159 -108 -260 -108zM401 48c88 0 163 31 224 93c62 63 93 138 93 225s-31 161 -92 223
s-136 93 -225 93c-87 0 -162 -31 -225 -93c-62 -61 -93 -136 -93 -223s31 -162 93 -225c63 -62 138 -93 225 -93zM401 70c-82 0 -152 29 -210 86c-57 58 -86 128 -86 210c0 80 29 149 87 206s128 86 209 86s150 -29 208 -86s87 -125 87 -206c0 -82 -29 -152 -87 -210
c-58 -57 -127 -86 -208 -86zM401 115c37 0 71 13 103 38c24 19 45 43 63 73c-54 -14 -108 -21 -163 -21s-112 7 -169 21c18 -29 39 -53 62 -72c33 -26 67 -39 104 -39zM167 331l57 -89c60 -13 114 -21 177 -21c57 0 117 7 178 21l56 89h-468zM402 460l-40 -94h79zM228 534
l77 -96c3 -3 10 -1 20 4c11 5 16 9 15 11l-51 116c-5 5 -17 1 -36 -11c-8 -9 -16 -17 -25 -24zM499 438l74 96c3 3 -6 11 -25 23c-19 13 -30 17 -34 12c-20 -27 -34 -76 -49 -116c2 -3 4 -5 7 -7c13 -9 22 -12 27 -8zM681 7h-11v40h-16v11h43v-11h-16v-40zM711 7h-9v51h16
l9 -39l9 39h15v-51h-9v40l-11 -40h-9l-11 40v-40z" />
    <glyph glyph-name="plusminus" unicode="&#xb1;" 
d="M401 -2c-101 0 -188 36 -260 107c-71 72 -107 159 -107 261c0 101 36 187 107 259s158 108 260 108c101 0 188 -36 260 -108s108 -158 108 -259s-36 -188 -108 -260s-159 -108 -260 -108zM401 48c88 0 163 31 224 93c62 63 93 138 93 225s-31 161 -92 223
s-136 93 -225 93c-87 0 -162 -31 -225 -93c-62 -61 -93 -136 -93 -223s31 -162 93 -225c63 -62 138 -93 225 -93zM401 70c-82 0 -152 29 -210 86c-57 58 -86 128 -86 210c0 80 29 149 87 206s128 86 209 86s150 -29 208 -86s87 -125 87 -206c0 -82 -29 -152 -87 -210
c-58 -57 -127 -86 -208 -86zM401 115c37 0 71 13 103 38c24 19 45 43 63 73c-54 -14 -108 -21 -163 -21s-112 7 -169 21c18 -29 39 -53 62 -72c33 -26 67 -39 104 -39zM167 331l57 -89c60 -13 114 -21 177 -21c57 0 117 7 178 21l56 89h-468zM402 460l-40 -94h79zM228 534
l77 -96c3 -3 10 -1 20 4c11 5 16 9 15 11l-51 116c-5 5 -17 1 -36 -11c-8 -9 -16 -17 -25 -24zM499 438l74 96c3 3 -6 11 -25 23c-19 13 -30 17 -34 12c-20 -27 -34 -76 -49 -116c2 -3 4 -5 7 -7c13 -9 22 -12 27 -8zM681 7h-11v40h-16v11h43v-11h-16v-40zM711 7h-9v51h16
l9 -39l9 39h15v-51h-9v40l-11 -40h-9l-11 40v-40z" />
    <glyph glyph-name="degree" unicode="&#xb0;" 
d="M401 -2c-101 0 -188 36 -260 107c-71 72 -107 159 -107 261c0 101 36 187 107 259s158 108 260 108c101 0 188 -36 260 -108s108 -158 108 -259s-36 -188 -108 -260s-159 -108 -260 -108zM401 48c88 0 163 31 224 93c62 63 93 138 93 225s-31 161 -92 223
s-136 93 -225 93c-87 0 -162 -31 -225 -93c-62 -61 -93 -136 -93 -223s31 -162 93 -225c63 -62 138 -93 225 -93zM401 70c-82 0 -152 29 -210 86c-57 58 -86 128 -86 210c0 80 29 149 87 206s128 86 209 86s150 -29 208 -86s87 -125 87 -206c0 -82 -29 -152 -87 -210
c-58 -57 -127 -86 -208 -86zM401 115c37 0 71 13 103 38c24 19 45 43 63 73c-54 -14 -108 -21 -163 -21s-112 7 -169 21c18 -29 39 -53 62 -72c33 -26 67 -39 104 -39zM167 331l57 -89c60 -13 114 -21 177 -21c57 0 117 7 178 21l56 89h-468zM402 460l-40 -94h79zM228 534
l77 -96c3 -3 10 -1 20 4c11 5 16 9 15 11l-51 116c-5 5 -17 1 -36 -11c-8 -9 -16 -17 -25 -24zM499 438l74 96c3 3 -6 11 -25 23c-19 13 -30 17 -34 12c-20 -27 -34 -76 -49 -116c2 -3 4 -5 7 -7c13 -9 22 -12 27 -8zM681 7h-11v40h-16v11h43v-11h-16v-40zM711 7h-9v51h16
l9 -39l9 39h15v-51h-9v40l-11 -40h-9l-11 40v-40z" />
    <glyph glyph-name="registered" unicode="&#xae;" 
d="M401 -2c-101 0 -188 36 -260 107c-71 72 -107 159 -107 261c0 101 36 187 107 259s158 108 260 108c101 0 188 -36 260 -108s108 -158 108 -259s-36 -188 -108 -260s-159 -108 -260 -108zM401 48c88 0 163 31 224 93c62 63 93 138 93 225s-31 161 -92 223
s-136 93 -225 93c-87 0 -162 -31 -225 -93c-62 -61 -93 -136 -93 -223s31 -162 93 -225c63 -62 138 -93 225 -93zM401 70c-82 0 -152 29 -210 86c-57 58 -86 128 -86 210c0 80 29 149 87 206s128 86 209 86s150 -29 208 -86s87 -125 87 -206c0 -82 -29 -152 -87 -210
c-58 -57 -127 -86 -208 -86zM401 115c37 0 71 13 103 38c24 19 45 43 63 73c-54 -14 -108 -21 -163 -21s-112 7 -169 21c18 -29 39 -53 62 -72c33 -26 67 -39 104 -39zM167 331l57 -89c60 -13 114 -21 177 -21c57 0 117 7 178 21l56 89h-468zM402 460l-40 -94h79zM228 534
l77 -96c3 -3 10 -1 20 4c11 5 16 9 15 11l-51 116c-5 5 -17 1 -36 -11c-8 -9 -16 -17 -25 -24zM499 438l74 96c3 3 -6 11 -25 23c-19 13 -30 17 -34 12c-20 -27 -34 -76 -49 -116c2 -3 4 -5 7 -7c13 -9 22 -12 27 -8zM681 7h-11v40h-16v11h43v-11h-16v-40zM711 7h-9v51h16
l9 -39l9 39h15v-51h-9v40l-11 -40h-9l-11 40v-40z" />
    <glyph glyph-name="logicalnot" unicode="&#xac;" horiz-adv-x="1217" 
d="M993 490c0 34 -18 65 -57 65c-41 0 -59 -31 -59 -65s18 -66 59 -66c39 0 57 32 57 66zM260 727c23 0 39 -8 48 -24l75 -149c5 -9 14 -8 14 3v150c0 11 8 20 20 20h219c11 0 19 -9 19 -20v-686c0 -12 -8 -21 -19 -21h-156c-23 0 -42 7 -51 25l-110 214c-4 9 -15 6 -15 -5
v-213c0 -12 -8 -21 -19 -21h-219c-12 0 -21 9 -21 21v686c0 11 9 20 21 20h194zM688 490c0 75 26 142 82 189c49 41 94 58 166 58c70 0 115 -17 165 -58c55 -47 81 -114 81 -189s-26 -142 -81 -189c-50 -41 -95 -58 -165 -58c-72 0 -117 17 -166 58c-56 47 -82 114 -82 189z
M159 96h29v477h55l226 -408c1 -2 8 -8 13 -8h44c8 0 15 8 15 15v459h-30v-443h-20l-226 407c-3 4 -10 8 -14 8h-77c-8 0 -15 -8 -15 -15v-492zM794 491c0 81 58 144 142 144c78 0 141 -61 141 -144c0 -77 -59 -146 -141 -146c-80 0 -142 62 -142 146zM764 491
c0 -95 72 -173 172 -173c95 0 170 74 170 173c0 93 -70 172 -170 172c-95 0 -172 -73 -172 -172zM936 200c58 0 107 -48 107 -107s-49 -107 -107 -107c-59 0 -107 48 -107 107s48 107 107 107zM960 93c0 14 -10 25 -24 25s-24 -11 -24 -25s10 -25 24 -25s24 11 24 25z" />
    <glyph glyph-name="guillemotleft" unicode="&#xab;" 
d="M401 -2c-101 0 -188 36 -260 107c-71 72 -107 159 -107 261c0 101 36 187 107 259s158 108 260 108c101 0 188 -36 260 -108s108 -158 108 -259s-36 -188 -108 -260s-159 -108 -260 -108zM401 48c88 0 163 31 224 93c62 63 93 138 93 225s-31 161 -92 223
s-136 93 -225 93c-87 0 -162 -31 -225 -93c-62 -61 -93 -136 -93 -223s31 -162 93 -225c63 -62 138 -93 225 -93zM401 70c-82 0 -152 29 -210 86c-57 58 -86 128 -86 210c0 80 29 149 87 206s128 86 209 86s150 -29 208 -86s87 -125 87 -206c0 -82 -29 -152 -87 -210
c-58 -57 -127 -86 -208 -86zM401 115c37 0 71 13 103 38c24 19 45 43 63 73c-54 -14 -108 -21 -163 -21s-112 7 -169 21c18 -29 39 -53 62 -72c33 -26 67 -39 104 -39zM167 331l57 -89c60 -13 114 -21 177 -21c57 0 117 7 178 21l56 89h-468zM402 460l-40 -94h79zM228 534
l77 -96c3 -3 10 -1 20 4c11 5 16 9 15 11l-51 116c-5 5 -17 1 -36 -11c-8 -9 -16 -17 -25 -24zM499 438l74 96c3 3 -6 11 -25 23c-19 13 -30 17 -34 12c-20 -27 -34 -76 -49 -116c2 -3 4 -5 7 -7c13 -9 22 -12 27 -8zM681 7h-11v40h-16v11h43v-11h-16v-40zM711 7h-9v51h16
l9 -39l9 39h15v-51h-9v40l-11 -40h-9l-11 40v-40z" />
    <glyph glyph-name="ordfeminine" unicode="&#xaa;" 
d="M401 -2c-101 0 -188 36 -260 107c-71 72 -107 159 -107 261c0 101 36 187 107 259s158 108 260 108c101 0 188 -36 260 -108s108 -158 108 -259s-36 -188 -108 -260s-159 -108 -260 -108zM401 48c88 0 163 31 224 93c62 63 93 138 93 225s-31 161 -92 223
s-136 93 -225 93c-87 0 -162 -31 -225 -93c-62 -61 -93 -136 -93 -223s31 -162 93 -225c63 -62 138 -93 225 -93zM401 70c-82 0 -152 29 -210 86c-57 58 -86 128 -86 210c0 80 29 149 87 206s128 86 209 86s150 -29 208 -86s87 -125 87 -206c0 -82 -29 -152 -87 -210
c-58 -57 -127 -86 -208 -86zM401 115c37 0 71 13 103 38c24 19 45 43 63 73c-54 -14 -108 -21 -163 -21s-112 7 -169 21c18 -29 39 -53 62 -72c33 -26 67 -39 104 -39zM167 331l57 -89c60 -13 114 -21 177 -21c57 0 117 7 178 21l56 89h-468zM402 460l-40 -94h79zM228 534
l77 -96c3 -3 10 -1 20 4c11 5 16 9 15 11l-51 116c-5 5 -17 1 -36 -11c-8 -9 -16 -17 -25 -24zM499 438l74 96c3 3 -6 11 -25 23c-19 13 -30 17 -34 12c-20 -27 -34 -76 -49 -116c2 -3 4 -5 7 -7c13 -9 22 -12 27 -8zM681 7h-11v40h-16v11h43v-11h-16v-40zM711 7h-9v51h16
l9 -39l9 39h15v-51h-9v40l-11 -40h-9l-11 40v-40z" />
    <glyph glyph-name="copyright" unicode="&#xa9;" 
d="M401 -2c-101 0 -188 36 -260 107c-71 72 -107 159 -107 261c0 101 36 187 107 259s158 108 260 108c101 0 188 -36 260 -108s108 -158 108 -259s-36 -188 -108 -260s-159 -108 -260 -108zM401 48c88 0 163 31 224 93c62 63 93 138 93 225s-31 161 -92 223
s-136 93 -225 93c-87 0 -162 -31 -225 -93c-62 -61 -93 -136 -93 -223s31 -162 93 -225c63 -62 138 -93 225 -93zM401 70c-82 0 -152 29 -210 86c-57 58 -86 128 -86 210c0 80 29 149 87 206s128 86 209 86s150 -29 208 -86s87 -125 87 -206c0 -82 -29 -152 -87 -210
c-58 -57 -127 -86 -208 -86zM401 115c37 0 71 13 103 38c24 19 45 43 63 73c-54 -14 -108 -21 -163 -21s-112 7 -169 21c18 -29 39 -53 62 -72c33 -26 67 -39 104 -39zM167 331l57 -89c60 -13 114 -21 177 -21c57 0 117 7 178 21l56 89h-468zM402 460l-40 -94h79zM228 534
l77 -96c3 -3 10 -1 20 4c11 5 16 9 15 11l-51 116c-5 5 -17 1 -36 -11c-8 -9 -16 -17 -25 -24zM499 438l74 96c3 3 -6 11 -25 23c-19 13 -30 17 -34 12c-20 -27 -34 -76 -49 -116c2 -3 4 -5 7 -7c13 -9 22 -12 27 -8zM681 7h-11v40h-16v11h43v-11h-16v-40zM711 7h-9v51h16
l9 -39l9 39h15v-51h-9v40l-11 -40h-9l-11 40v-40z" />
    <glyph glyph-name="yen" unicode="&#xa5;" 
d="M401 -2c-101 0 -188 36 -260 107c-71 72 -107 159 -107 261c0 101 36 187 107 259s158 108 260 108c101 0 188 -36 260 -108s108 -158 108 -259s-36 -188 -108 -260s-159 -108 -260 -108zM401 48c88 0 163 31 224 93c62 63 93 138 93 225s-31 161 -92 223
s-136 93 -225 93c-87 0 -162 -31 -225 -93c-62 -61 -93 -136 -93 -223s31 -162 93 -225c63 -62 138 -93 225 -93zM401 70c-82 0 -152 29 -210 86c-57 58 -86 128 -86 210c0 80 29 149 87 206s128 86 209 86s150 -29 208 -86s87 -125 87 -206c0 -82 -29 -152 -87 -210
c-58 -57 -127 -86 -208 -86zM401 115c37 0 71 13 103 38c24 19 45 43 63 73c-54 -14 -108 -21 -163 -21s-112 7 -169 21c18 -29 39 -53 62 -72c33 -26 67 -39 104 -39zM167 331l57 -89c60 -13 114 -21 177 -21c57 0 117 7 178 21l56 89h-468zM402 460l-40 -94h79zM228 534
l77 -96c3 -3 10 -1 20 4c11 5 16 9 15 11l-51 116c-5 5 -17 1 -36 -11c-8 -9 -16 -17 -25 -24zM499 438l74 96c3 3 -6 11 -25 23c-19 13 -30 17 -34 12c-20 -27 -34 -76 -49 -116c2 -3 4 -5 7 -7c13 -9 22 -12 27 -8zM681 7h-11v40h-16v11h43v-11h-16v-40zM711 7h-9v51h16
l9 -39l9 39h15v-51h-9v40l-11 -40h-9l-11 40v-40z" />
    <glyph glyph-name="Agrave" unicode="&#xc0;" horiz-adv-x="677" 
d="M30 285c0 206 131 295 244 296c52 0 102 -19 142 -48c2 -2 5 -1 5 2v14c0 12 9 20 20 20h172c11 0 19 -8 19 -20v-529c0 -11 -8 -20 -19 -20h-172c-11 0 -20 9 -20 20v14c0 2 -2 3 -4 2c-40 -29 -89 -47 -139 -46c-114 0 -248 88 -248 295zM397 360c-15 19 -39 31 -60 31
c-40 0 -82 -35 -82 -106s42 -105 82 -105c20 0 45 11 60 29v151zM503 425v-285c-40 0 -79 0 -123 -20c-39 -18 -93 -30 -139 -10c-58 25 -81 93 -83 158c-2 66 13 135 60 175c44 37 113 40 163 10c52 -30 67 -28 122 -28zM503 96h29v377h-29v-20c-49 0 -62 0 -108 25
c-32 16 -65 25 -98 23c-127 -4 -173 -123 -170 -233c3 -100 53 -200 170 -197c29 1 61 9 96 24c33 14 67 18 110 16v-15z" />
    <glyph glyph-name="Aacute" unicode="&#xc1;" horiz-adv-x="678" 
d="M648 285c0 -207 -134 -295 -249 -295c-48 -1 -97 16 -137 44c-2 2 -6 2 -6 -3v-11c0 -12 -9 -20 -20 -20h-172c-11 0 -19 9 -19 20v717c0 11 8 20 19 20h197c11 0 20 -8 19 -20v-194c0 -6 7 -7 10 -3c20 25 46 41 113 41c114 -1 245 -90 245 -296zM280 360v-151
c15 -18 40 -30 60 -30c41 0 82 35 82 106s-41 106 -82 106c-21 0 -45 -12 -60 -31zM177 140v285c55 0 68 -2 120 28c50 30 119 27 163 -10c47 -40 62 -109 60 -175c-2 -65 -25 -133 -83 -158c-46 -20 -100 -8 -139 10c-44 20 -81 20 -121 20zM147 96h30v15
c43 2 75 -2 108 -16c35 -15 67 -23 96 -24c117 -3 167 97 170 197c3 110 -43 229 -170 233c-33 2 -66 -7 -98 -23c-46 -25 -57 -25 -106 -25v208h-30v-565z" />
    <glyph glyph-name="Acircumflex" unicode="&#xc2;" horiz-adv-x="678" 
d="M30 285c0 206 135 295 248 296c37 0 74 -11 106 -27c4 -3 13 -4 13 6v177c0 12 9 20 19 20h197c11 0 20 -9 20 -20v-717c0 -11 -9 -20 -20 -20h-172c-10 0 -19 8 -19 20v16c0 8 -6 8 -9 5c-28 -31 -66 -52 -138 -51c-114 0 -245 88 -245 295zM397 210v150
c-14 18 -40 31 -60 31c-39 0 -81 -35 -81 -106s42 -106 81 -106c21 0 45 11 60 31zM501 425v-285c-40 0 -77 0 -121 -20c-39 -18 -93 -30 -139 -10c-58 25 -81 93 -83 158c-2 66 13 135 60 175c44 37 113 40 163 10c52 -30 65 -28 120 -28zM501 96h30v565h-30v-208
c-49 0 -60 0 -106 25c-32 16 -65 25 -98 23c-127 -4 -173 -123 -170 -233c3 -100 53 -200 170 -197c29 1 61 9 96 24c33 14 65 18 108 16v-15z" />
    <glyph glyph-name="Atilde" unicode="&#xc3;" horiz-adv-x="678" 
d="M30 284c0 206 131 295 245 296c50 0 99 -18 138 -46c6 -4 9 -2 9 4v11c0 11 9 19 19 19h172c11 0 20 -8 20 -19v-456c0 -176 -58 -340 -289 -340c-119 0 -195 14 -202 41l-34 140c-4 14 4 25 19 20c49 -14 85 -27 156 -27c70 1 123 36 125 96c0 4 -1 5 -4 3
c-38 -23 -81 -37 -126 -37c-113 0 -248 89 -248 295zM397 359c-15 19 -39 30 -60 30c-39 0 -81 -34 -81 -105s42 -105 81 -105c20 0 46 11 60 29v151zM218 -135l9 -30c90 -13 159 -7 205 19c79 46 98 134 98 230v389h-29v-20c-43 -2 -75 6 -108 20c-35 15 -67 23 -96 24
c-117 3 -167 -97 -170 -197c-3 -110 43 -231 170 -235c33 -2 66 7 98 23c46 25 57 25 106 25v-29c0 -86 -17 -165 -85 -203c-43 -25 -109 -30 -198 -16zM501 424v-283c-55 0 -68 2 -120 -28c-50 -30 -119 -27 -163 10c-47 40 -62 111 -60 177c2 65 25 133 83 158
c46 20 100 8 139 -10c44 -20 81 -24 121 -24z" />
    <glyph glyph-name="Adieresis" unicode="&#xc4;" horiz-adv-x="679" 
d="M649 285c0 -207 -146 -295 -259 -296c-34 0 -68 8 -97 22c-4 3 -12 1 -12 -8v-217c0 -10 -9 -20 -20 -20h-196c-12 0 -20 10 -20 19v765c0 11 10 19 20 19h168c11 0 18 -8 20 -19c1 -9 3 -17 18 -8c35 23 77 38 122 38c114 -1 256 -90 256 -295zM281 359v-149v1v-3
c14 -17 40 -28 60 -28c40 0 81 33 81 105c0 70 -41 104 -81 104c-21 0 -45 -10 -60 -30zM177 428c40 0 77 0 121 20c39 18 93 30 139 10c58 -25 81 -93 83 -158c2 -66 -13 -137 -60 -177c-44 -37 -113 -40 -163 -10c-52 30 -65 28 -120 28v287zM177 503h-30v-675h30v285
c49 0 60 0 106 -25c32 -16 65 -25 98 -23c127 4 173 125 170 235c-3 100 -53 200 -170 197c-29 -1 -61 -9 -96 -24c-33 -14 -65 -18 -108 -16v46z" />
    <glyph glyph-name="Aring" unicode="&#xc5;" horiz-adv-x="680" 
d="M575 -257c-91 0 -176 88 -176 196v68c0 10 -4 9 -12 5c-30 -16 -62 -23 -97 -23c-113 1 -259 89 -259 296c0 205 141 294 256 295c52 0 99 -19 138 -49l3 19c2 11 8 19 19 19h168c10 0 20 -8 20 -20v-570c0 -41 25 -61 58 -56l32 4c14 2 24 -8 21 -20l-37 -131
c-6 -25 -57 -33 -134 -33zM399 359c-16 20 -40 30 -60 30c-40 0 -81 -34 -81 -104c0 -72 41 -106 81 -106c19 0 45 11 60 29v151zM502 428v-287c-55 0 -68 2 -120 -28c-50 -30 -119 -27 -163 10c-47 40 -62 111 -60 177c2 65 25 133 83 158c46 20 100 8 139 -10
c44 -20 81 -20 121 -20zM630 -176l9 26c-33 2 -57 6 -73 21c-28 28 -34 76 -34 126v506h-30v-46c-43 -2 -75 2 -108 16c-35 15 -67 23 -96 24c-117 3 -167 -97 -170 -197c-3 -110 43 -231 170 -235c33 -2 66 7 98 23c46 25 57 25 106 25v-116c0 -57 7 -112 43 -147
c19 -19 47 -23 85 -26z" />
    <glyph glyph-name="AE" unicode="&#xc6;" 
d="M401 -2c-101 0 -188 36 -260 107c-71 72 -107 159 -107 261c0 101 36 187 107 259s158 108 260 108c101 0 188 -36 260 -108s108 -158 108 -259s-36 -188 -108 -260s-159 -108 -260 -108zM401 48c88 0 163 31 224 93c62 63 93 138 93 225s-31 161 -92 223
s-136 93 -225 93c-87 0 -162 -31 -225 -93c-62 -61 -93 -136 -93 -223s31 -162 93 -225c63 -62 138 -93 225 -93zM401 70c-82 0 -152 29 -210 86c-57 58 -86 128 -86 210c0 80 29 149 87 206s128 86 209 86s150 -29 208 -86s87 -125 87 -206c0 -82 -29 -152 -87 -210
c-58 -57 -127 -86 -208 -86zM401 115c37 0 71 13 103 38c24 19 45 43 63 73c-54 -14 -108 -21 -163 -21s-112 7 -169 21c18 -29 39 -53 62 -72c33 -26 67 -39 104 -39zM167 331l57 -89c60 -13 114 -21 177 -21c57 0 117 7 178 21l56 89h-468zM402 460l-40 -94h79zM228 534
l77 -96c3 -3 10 -1 20 4c11 5 16 9 15 11l-51 116c-5 5 -17 1 -36 -11c-8 -9 -16 -17 -25 -24zM499 438l74 96c3 3 -6 11 -25 23c-19 13 -30 17 -34 12c-20 -27 -34 -76 -49 -116c2 -3 4 -5 7 -7c13 -9 22 -12 27 -8zM681 7h-11v40h-16v11h43v-11h-16v-40zM711 7h-9v51h16
l9 -39l9 39h15v-51h-9v40l-11 -40h-9l-11 40v-40z" />
    <glyph glyph-name="Ccedilla" unicode="&#xc7;" 
d="M401 -2c-101 0 -188 36 -260 107c-71 72 -107 159 -107 261c0 101 36 187 107 259s158 108 260 108c101 0 188 -36 260 -108s108 -158 108 -259s-36 -188 -108 -260s-159 -108 -260 -108zM401 48c88 0 163 31 224 93c62 63 93 138 93 225s-31 161 -92 223
s-136 93 -225 93c-87 0 -162 -31 -225 -93c-62 -61 -93 -136 -93 -223s31 -162 93 -225c63 -62 138 -93 225 -93zM401 70c-82 0 -152 29 -210 86c-57 58 -86 128 -86 210c0 80 29 149 87 206s128 86 209 86s150 -29 208 -86s87 -125 87 -206c0 -82 -29 -152 -87 -210
c-58 -57 -127 -86 -208 -86zM401 115c37 0 71 13 103 38c24 19 45 43 63 73c-54 -14 -108 -21 -163 -21s-112 7 -169 21c18 -29 39 -53 62 -72c33 -26 67 -39 104 -39zM167 331l57 -89c60 -13 114 -21 177 -21c57 0 117 7 178 21l56 89h-468zM402 460l-40 -94h79zM228 534
l77 -96c3 -3 10 -1 20 4c11 5 16 9 15 11l-51 116c-5 5 -17 1 -36 -11c-8 -9 -16 -17 -25 -24zM499 438l74 96c3 3 -6 11 -25 23c-19 13 -30 17 -34 12c-20 -27 -34 -76 -49 -116c2 -3 4 -5 7 -7c13 -9 22 -12 27 -8zM681 7h-11v40h-16v11h43v-11h-16v-40zM711 7h-9v51h16
l9 -39l9 39h15v-51h-9v40l-11 -40h-9l-11 40v-40z" />
    <glyph glyph-name="Egrave" unicode="&#xc8;" 
d="M401 -2c-101 0 -188 36 -260 107c-71 72 -107 159 -107 261c0 101 36 187 107 259s158 108 260 108c101 0 188 -36 260 -108s108 -158 108 -259s-36 -188 -108 -260s-159 -108 -260 -108zM401 48c88 0 163 31 224 93c62 63 93 138 93 225s-31 161 -92 223
s-136 93 -225 93c-87 0 -162 -31 -225 -93c-62 -61 -93 -136 -93 -223s31 -162 93 -225c63 -62 138 -93 225 -93zM401 70c-82 0 -152 29 -210 86c-57 58 -86 128 -86 210c0 80 29 149 87 206s128 86 209 86s150 -29 208 -86s87 -125 87 -206c0 -82 -29 -152 -87 -210
c-58 -57 -127 -86 -208 -86zM401 115c37 0 71 13 103 38c24 19 45 43 63 73c-54 -14 -108 -21 -163 -21s-112 7 -169 21c18 -29 39 -53 62 -72c33 -26 67 -39 104 -39zM167 331l57 -89c60 -13 114 -21 177 -21c57 0 117 7 178 21l56 89h-468zM402 460l-40 -94h79zM228 534
l77 -96c3 -3 10 -1 20 4c11 5 16 9 15 11l-51 116c-5 5 -17 1 -36 -11c-8 -9 -16 -17 -25 -24zM499 438l74 96c3 3 -6 11 -25 23c-19 13 -30 17 -34 12c-20 -27 -34 -76 -49 -116c2 -3 4 -5 7 -7c13 -9 22 -12 27 -8zM681 7h-11v40h-16v11h43v-11h-16v-40zM711 7h-9v51h16
l9 -39l9 39h15v-51h-9v40l-11 -40h-9l-11 40v-40z" />
    <glyph glyph-name="Eacute" unicode="&#xc9;" 
d="M401 -2c-101 0 -188 36 -260 107c-71 72 -107 159 -107 261c0 101 36 187 107 259s158 108 260 108c101 0 188 -36 260 -108s108 -158 108 -259s-36 -188 -108 -260s-159 -108 -260 -108zM401 48c88 0 163 31 224 93c62 63 93 138 93 225s-31 161 -92 223
s-136 93 -225 93c-87 0 -162 -31 -225 -93c-62 -61 -93 -136 -93 -223s31 -162 93 -225c63 -62 138 -93 225 -93zM401 70c-82 0 -152 29 -210 86c-57 58 -86 128 -86 210c0 80 29 149 87 206s128 86 209 86s150 -29 208 -86s87 -125 87 -206c0 -82 -29 -152 -87 -210
c-58 -57 -127 -86 -208 -86zM401 115c37 0 71 13 103 38c24 19 45 43 63 73c-54 -14 -108 -21 -163 -21s-112 7 -169 21c18 -29 39 -53 62 -72c33 -26 67 -39 104 -39zM167 331l57 -89c60 -13 114 -21 177 -21c57 0 117 7 178 21l56 89h-468zM402 460l-40 -94h79zM228 534
l77 -96c3 -3 10 -1 20 4c11 5 16 9 15 11l-51 116c-5 5 -17 1 -36 -11c-8 -9 -16 -17 -25 -24zM499 438l74 96c3 3 -6 11 -25 23c-19 13 -30 17 -34 12c-20 -27 -34 -76 -49 -116c2 -3 4 -5 7 -7c13 -9 22 -12 27 -8zM681 7h-11v40h-16v11h43v-11h-16v-40zM711 7h-9v51h16
l9 -39l9 39h15v-51h-9v40l-11 -40h-9l-11 40v-40z" />
    <glyph glyph-name="Ecircumflex" unicode="&#xca;" 
d="M401 -2c-101 0 -188 36 -260 107c-71 72 -107 159 -107 261c0 101 36 187 107 259s158 108 260 108c101 0 188 -36 260 -108s108 -158 108 -259s-36 -188 -108 -260s-159 -108 -260 -108zM401 48c88 0 163 31 224 93c62 63 93 138 93 225s-31 161 -92 223
s-136 93 -225 93c-87 0 -162 -31 -225 -93c-62 -61 -93 -136 -93 -223s31 -162 93 -225c63 -62 138 -93 225 -93zM401 70c-82 0 -152 29 -210 86c-57 58 -86 128 -86 210c0 80 29 149 87 206s128 86 209 86s150 -29 208 -86s87 -125 87 -206c0 -82 -29 -152 -87 -210
c-58 -57 -127 -86 -208 -86zM401 115c37 0 71 13 103 38c24 19 45 43 63 73c-54 -14 -108 -21 -163 -21s-112 7 -169 21c18 -29 39 -53 62 -72c33 -26 67 -39 104 -39zM167 331l57 -89c60 -13 114 -21 177 -21c57 0 117 7 178 21l56 89h-468zM402 460l-40 -94h79zM228 534
l77 -96c3 -3 10 -1 20 4c11 5 16 9 15 11l-51 116c-5 5 -17 1 -36 -11c-8 -9 -16 -17 -25 -24zM499 438l74 96c3 3 -6 11 -25 23c-19 13 -30 17 -34 12c-20 -27 -34 -76 -49 -116c2 -3 4 -5 7 -7c13 -9 22 -12 27 -8zM681 7h-11v40h-16v11h43v-11h-16v-40zM711 7h-9v51h16
l9 -39l9 39h15v-51h-9v40l-11 -40h-9l-11 40v-40z" />
    <glyph glyph-name="Edieresis" unicode="&#xcb;" 
d="M401 -2c-101 0 -188 36 -260 107c-71 72 -107 159 -107 261c0 101 36 187 107 259s158 108 260 108c101 0 188 -36 260 -108s108 -158 108 -259s-36 -188 -108 -260s-159 -108 -260 -108zM401 48c88 0 163 31 224 93c62 63 93 138 93 225s-31 161 -92 223
s-136 93 -225 93c-87 0 -162 -31 -225 -93c-62 -61 -93 -136 -93 -223s31 -162 93 -225c63 -62 138 -93 225 -93zM401 70c-82 0 -152 29 -210 86c-57 58 -86 128 -86 210c0 80 29 149 87 206s128 86 209 86s150 -29 208 -86s87 -125 87 -206c0 -82 -29 -152 -87 -210
c-58 -57 -127 -86 -208 -86zM401 115c37 0 71 13 103 38c24 19 45 43 63 73c-54 -14 -108 -21 -163 -21s-112 7 -169 21c18 -29 39 -53 62 -72c33 -26 67 -39 104 -39zM167 331l57 -89c60 -13 114 -21 177 -21c57 0 117 7 178 21l56 89h-468zM402 460l-40 -94h79zM228 534
l77 -96c3 -3 10 -1 20 4c11 5 16 9 15 11l-51 116c-5 5 -17 1 -36 -11c-8 -9 -16 -17 -25 -24zM499 438l74 96c3 3 -6 11 -25 23c-19 13 -30 17 -34 12c-20 -27 -34 -76 -49 -116c2 -3 4 -5 7 -7c13 -9 22 -12 27 -8zM681 7h-11v40h-16v11h43v-11h-16v-40zM711 7h-9v51h16
l9 -39l9 39h15v-51h-9v40l-11 -40h-9l-11 40v-40z" />
    <glyph glyph-name="Igrave" unicode="&#xcc;" 
d="M401 -2c-101 0 -188 36 -260 107c-71 72 -107 159 -107 261c0 101 36 187 107 259s158 108 260 108c101 0 188 -36 260 -108s108 -158 108 -259s-36 -188 -108 -260s-159 -108 -260 -108zM401 48c88 0 163 31 224 93c62 63 93 138 93 225s-31 161 -92 223
s-136 93 -225 93c-87 0 -162 -31 -225 -93c-62 -61 -93 -136 -93 -223s31 -162 93 -225c63 -62 138 -93 225 -93zM401 70c-82 0 -152 29 -210 86c-57 58 -86 128 -86 210c0 80 29 149 87 206s128 86 209 86s150 -29 208 -86s87 -125 87 -206c0 -82 -29 -152 -87 -210
c-58 -57 -127 -86 -208 -86zM401 115c37 0 71 13 103 38c24 19 45 43 63 73c-54 -14 -108 -21 -163 -21s-112 7 -169 21c18 -29 39 -53 62 -72c33 -26 67 -39 104 -39zM167 331l57 -89c60 -13 114 -21 177 -21c57 0 117 7 178 21l56 89h-468zM402 460l-40 -94h79zM228 534
l77 -96c3 -3 10 -1 20 4c11 5 16 9 15 11l-51 116c-5 5 -17 1 -36 -11c-8 -9 -16 -17 -25 -24zM499 438l74 96c3 3 -6 11 -25 23c-19 13 -30 17 -34 12c-20 -27 -34 -76 -49 -116c2 -3 4 -5 7 -7c13 -9 22 -12 27 -8zM681 7h-11v40h-16v11h43v-11h-16v-40zM711 7h-9v51h16
l9 -39l9 39h15v-51h-9v40l-11 -40h-9l-11 40v-40z" />
    <glyph glyph-name="Iacute" unicode="&#xcd;" 
d="M401 -2c-101 0 -188 36 -260 107c-71 72 -107 159 -107 261c0 101 36 187 107 259s158 108 260 108c101 0 188 -36 260 -108s108 -158 108 -259s-36 -188 -108 -260s-159 -108 -260 -108zM401 48c88 0 163 31 224 93c62 63 93 138 93 225s-31 161 -92 223
s-136 93 -225 93c-87 0 -162 -31 -225 -93c-62 -61 -93 -136 -93 -223s31 -162 93 -225c63 -62 138 -93 225 -93zM401 70c-82 0 -152 29 -210 86c-57 58 -86 128 -86 210c0 80 29 149 87 206s128 86 209 86s150 -29 208 -86s87 -125 87 -206c0 -82 -29 -152 -87 -210
c-58 -57 -127 -86 -208 -86zM401 115c37 0 71 13 103 38c24 19 45 43 63 73c-54 -14 -108 -21 -163 -21s-112 7 -169 21c18 -29 39 -53 62 -72c33 -26 67 -39 104 -39zM167 331l57 -89c60 -13 114 -21 177 -21c57 0 117 7 178 21l56 89h-468zM402 460l-40 -94h79zM228 534
l77 -96c3 -3 10 -1 20 4c11 5 16 9 15 11l-51 116c-5 5 -17 1 -36 -11c-8 -9 -16 -17 -25 -24zM499 438l74 96c3 3 -6 11 -25 23c-19 13 -30 17 -34 12c-20 -27 -34 -76 -49 -116c2 -3 4 -5 7 -7c13 -9 22 -12 27 -8zM681 7h-11v40h-16v11h43v-11h-16v-40zM711 7h-9v51h16
l9 -39l9 39h15v-51h-9v40l-11 -40h-9l-11 40v-40z" />
    <glyph glyph-name="Icircumflex" unicode="&#xce;" 
d="M401 -2c-101 0 -188 36 -260 107c-71 72 -107 159 -107 261c0 101 36 187 107 259s158 108 260 108c101 0 188 -36 260 -108s108 -158 108 -259s-36 -188 -108 -260s-159 -108 -260 -108zM401 48c88 0 163 31 224 93c62 63 93 138 93 225s-31 161 -92 223
s-136 93 -225 93c-87 0 -162 -31 -225 -93c-62 -61 -93 -136 -93 -223s31 -162 93 -225c63 -62 138 -93 225 -93zM401 70c-82 0 -152 29 -210 86c-57 58 -86 128 -86 210c0 80 29 149 87 206s128 86 209 86s150 -29 208 -86s87 -125 87 -206c0 -82 -29 -152 -87 -210
c-58 -57 -127 -86 -208 -86zM401 115c37 0 71 13 103 38c24 19 45 43 63 73c-54 -14 -108 -21 -163 -21s-112 7 -169 21c18 -29 39 -53 62 -72c33 -26 67 -39 104 -39zM167 331l57 -89c60 -13 114 -21 177 -21c57 0 117 7 178 21l56 89h-468zM402 460l-40 -94h79zM228 534
l77 -96c3 -3 10 -1 20 4c11 5 16 9 15 11l-51 116c-5 5 -17 1 -36 -11c-8 -9 -16 -17 -25 -24zM499 438l74 96c3 3 -6 11 -25 23c-19 13 -30 17 -34 12c-20 -27 -34 -76 -49 -116c2 -3 4 -5 7 -7c13 -9 22 -12 27 -8zM681 7h-11v40h-16v11h43v-11h-16v-40zM711 7h-9v51h16
l9 -39l9 39h15v-51h-9v40l-11 -40h-9l-11 40v-40z" />
    <glyph glyph-name="Idieresis" unicode="&#xcf;" 
d="M401 -2c-101 0 -188 36 -260 107c-71 72 -107 159 -107 261c0 101 36 187 107 259s158 108 260 108c101 0 188 -36 260 -108s108 -158 108 -259s-36 -188 -108 -260s-159 -108 -260 -108zM401 48c88 0 163 31 224 93c62 63 93 138 93 225s-31 161 -92 223
s-136 93 -225 93c-87 0 -162 -31 -225 -93c-62 -61 -93 -136 -93 -223s31 -162 93 -225c63 -62 138 -93 225 -93zM401 70c-82 0 -152 29 -210 86c-57 58 -86 128 -86 210c0 80 29 149 87 206s128 86 209 86s150 -29 208 -86s87 -125 87 -206c0 -82 -29 -152 -87 -210
c-58 -57 -127 -86 -208 -86zM401 115c37 0 71 13 103 38c24 19 45 43 63 73c-54 -14 -108 -21 -163 -21s-112 7 -169 21c18 -29 39 -53 62 -72c33 -26 67 -39 104 -39zM167 331l57 -89c60 -13 114 -21 177 -21c57 0 117 7 178 21l56 89h-468zM402 460l-40 -94h79zM228 534
l77 -96c3 -3 10 -1 20 4c11 5 16 9 15 11l-51 116c-5 5 -17 1 -36 -11c-8 -9 -16 -17 -25 -24zM499 438l74 96c3 3 -6 11 -25 23c-19 13 -30 17 -34 12c-20 -27 -34 -76 -49 -116c2 -3 4 -5 7 -7c13 -9 22 -12 27 -8zM681 7h-11v40h-16v11h43v-11h-16v-40zM711 7h-9v51h16
l9 -39l9 39h15v-51h-9v40l-11 -40h-9l-11 40v-40z" />
    <glyph glyph-name="Eth" unicode="&#xd0;" 
d="M401 -2c-101 0 -188 36 -260 107c-71 72 -107 159 -107 261c0 101 36 187 107 259s158 108 260 108c101 0 188 -36 260 -108s108 -158 108 -259s-36 -188 -108 -260s-159 -108 -260 -108zM401 48c88 0 163 31 224 93c62 63 93 138 93 225s-31 161 -92 223
s-136 93 -225 93c-87 0 -162 -31 -225 -93c-62 -61 -93 -136 -93 -223s31 -162 93 -225c63 -62 138 -93 225 -93zM401 70c-82 0 -152 29 -210 86c-57 58 -86 128 -86 210c0 80 29 149 87 206s128 86 209 86s150 -29 208 -86s87 -125 87 -206c0 -82 -29 -152 -87 -210
c-58 -57 -127 -86 -208 -86zM401 115c37 0 71 13 103 38c24 19 45 43 63 73c-54 -14 -108 -21 -163 -21s-112 7 -169 21c18 -29 39 -53 62 -72c33 -26 67 -39 104 -39zM167 331l57 -89c60 -13 114 -21 177 -21c57 0 117 7 178 21l56 89h-468zM402 460l-40 -94h79zM228 534
l77 -96c3 -3 10 -1 20 4c11 5 16 9 15 11l-51 116c-5 5 -17 1 -36 -11c-8 -9 -16 -17 -25 -24zM499 438l74 96c3 3 -6 11 -25 23c-19 13 -30 17 -34 12c-20 -27 -34 -76 -49 -116c2 -3 4 -5 7 -7c13 -9 22 -12 27 -8zM681 7h-11v40h-16v11h43v-11h-16v-40zM711 7h-9v51h16
l9 -39l9 39h15v-51h-9v40l-11 -40h-9l-11 40v-40z" />
    <glyph glyph-name="Ntilde" unicode="&#xd1;" 
d="M401 -2c-101 0 -188 36 -260 107c-71 72 -107 159 -107 261c0 101 36 187 107 259s158 108 260 108c101 0 188 -36 260 -108s108 -158 108 -259s-36 -188 -108 -260s-159 -108 -260 -108zM401 48c88 0 163 31 224 93c62 63 93 138 93 225s-31 161 -92 223
s-136 93 -225 93c-87 0 -162 -31 -225 -93c-62 -61 -93 -136 -93 -223s31 -162 93 -225c63 -62 138 -93 225 -93zM401 70c-82 0 -152 29 -210 86c-57 58 -86 128 -86 210c0 80 29 149 87 206s128 86 209 86s150 -29 208 -86s87 -125 87 -206c0 -82 -29 -152 -87 -210
c-58 -57 -127 -86 -208 -86zM401 115c37 0 71 13 103 38c24 19 45 43 63 73c-54 -14 -108 -21 -163 -21s-112 7 -169 21c18 -29 39 -53 62 -72c33 -26 67 -39 104 -39zM167 331l57 -89c60 -13 114 -21 177 -21c57 0 117 7 178 21l56 89h-468zM402 460l-40 -94h79zM228 534
l77 -96c3 -3 10 -1 20 4c11 5 16 9 15 11l-51 116c-5 5 -17 1 -36 -11c-8 -9 -16 -17 -25 -24zM499 438l74 96c3 3 -6 11 -25 23c-19 13 -30 17 -34 12c-20 -27 -34 -76 -49 -116c2 -3 4 -5 7 -7c13 -9 22 -12 27 -8zM681 7h-11v40h-16v11h43v-11h-16v-40zM711 7h-9v51h16
l9 -39l9 39h15v-51h-9v40l-11 -40h-9l-11 40v-40z" />
    <glyph glyph-name="Ograve" unicode="&#xd2;" 
d="M401 -2c-101 0 -188 36 -260 107c-71 72 -107 159 -107 261c0 101 36 187 107 259s158 108 260 108c101 0 188 -36 260 -108s108 -158 108 -259s-36 -188 -108 -260s-159 -108 -260 -108zM401 48c88 0 163 31 224 93c62 63 93 138 93 225s-31 161 -92 223
s-136 93 -225 93c-87 0 -162 -31 -225 -93c-62 -61 -93 -136 -93 -223s31 -162 93 -225c63 -62 138 -93 225 -93zM401 70c-82 0 -152 29 -210 86c-57 58 -86 128 -86 210c0 80 29 149 87 206s128 86 209 86s150 -29 208 -86s87 -125 87 -206c0 -82 -29 -152 -87 -210
c-58 -57 -127 -86 -208 -86zM401 115c37 0 71 13 103 38c24 19 45 43 63 73c-54 -14 -108 -21 -163 -21s-112 7 -169 21c18 -29 39 -53 62 -72c33 -26 67 -39 104 -39zM167 331l57 -89c60 -13 114 -21 177 -21c57 0 117 7 178 21l56 89h-468zM402 460l-40 -94h79zM228 534
l77 -96c3 -3 10 -1 20 4c11 5 16 9 15 11l-51 116c-5 5 -17 1 -36 -11c-8 -9 -16 -17 -25 -24zM499 438l74 96c3 3 -6 11 -25 23c-19 13 -30 17 -34 12c-20 -27 -34 -76 -49 -116c2 -3 4 -5 7 -7c13 -9 22 -12 27 -8zM681 7h-11v40h-16v11h43v-11h-16v-40zM711 7h-9v51h16
l9 -39l9 39h15v-51h-9v40l-11 -40h-9l-11 40v-40z" />
    <glyph glyph-name="Oacute" unicode="&#xd3;" 
d="M401 -2c-101 0 -188 36 -260 107c-71 72 -107 159 -107 261c0 101 36 187 107 259s158 108 260 108c101 0 188 -36 260 -108s108 -158 108 -259s-36 -188 -108 -260s-159 -108 -260 -108zM401 48c88 0 163 31 224 93c62 63 93 138 93 225s-31 161 -92 223
s-136 93 -225 93c-87 0 -162 -31 -225 -93c-62 -61 -93 -136 -93 -223s31 -162 93 -225c63 -62 138 -93 225 -93zM401 70c-82 0 -152 29 -210 86c-57 58 -86 128 -86 210c0 80 29 149 87 206s128 86 209 86s150 -29 208 -86s87 -125 87 -206c0 -82 -29 -152 -87 -210
c-58 -57 -127 -86 -208 -86zM401 115c37 0 71 13 103 38c24 19 45 43 63 73c-54 -14 -108 -21 -163 -21s-112 7 -169 21c18 -29 39 -53 62 -72c33 -26 67 -39 104 -39zM167 331l57 -89c60 -13 114 -21 177 -21c57 0 117 7 178 21l56 89h-468zM402 460l-40 -94h79zM228 534
l77 -96c3 -3 10 -1 20 4c11 5 16 9 15 11l-51 116c-5 5 -17 1 -36 -11c-8 -9 -16 -17 -25 -24zM499 438l74 96c3 3 -6 11 -25 23c-19 13 -30 17 -34 12c-20 -27 -34 -76 -49 -116c2 -3 4 -5 7 -7c13 -9 22 -12 27 -8zM681 7h-11v40h-16v11h43v-11h-16v-40zM711 7h-9v51h16
l9 -39l9 39h15v-51h-9v40l-11 -40h-9l-11 40v-40z" />
    <glyph glyph-name="Ocircumflex" unicode="&#xd4;" 
d="M401 -2c-101 0 -188 36 -260 107c-71 72 -107 159 -107 261c0 101 36 187 107 259s158 108 260 108c101 0 188 -36 260 -108s108 -158 108 -259s-36 -188 -108 -260s-159 -108 -260 -108zM401 48c88 0 163 31 224 93c62 63 93 138 93 225s-31 161 -92 223
s-136 93 -225 93c-87 0 -162 -31 -225 -93c-62 -61 -93 -136 -93 -223s31 -162 93 -225c63 -62 138 -93 225 -93zM401 70c-82 0 -152 29 -210 86c-57 58 -86 128 -86 210c0 80 29 149 87 206s128 86 209 86s150 -29 208 -86s87 -125 87 -206c0 -82 -29 -152 -87 -210
c-58 -57 -127 -86 -208 -86zM401 115c37 0 71 13 103 38c24 19 45 43 63 73c-54 -14 -108 -21 -163 -21s-112 7 -169 21c18 -29 39 -53 62 -72c33 -26 67 -39 104 -39zM167 331l57 -89c60 -13 114 -21 177 -21c57 0 117 7 178 21l56 89h-468zM402 460l-40 -94h79zM228 534
l77 -96c3 -3 10 -1 20 4c11 5 16 9 15 11l-51 116c-5 5 -17 1 -36 -11c-8 -9 -16 -17 -25 -24zM499 438l74 96c3 3 -6 11 -25 23c-19 13 -30 17 -34 12c-20 -27 -34 -76 -49 -116c2 -3 4 -5 7 -7c13 -9 22 -12 27 -8zM681 7h-11v40h-16v11h43v-11h-16v-40zM711 7h-9v51h16
l9 -39l9 39h15v-51h-9v40l-11 -40h-9l-11 40v-40z" />
    <glyph glyph-name="Otilde" unicode="&#xd5;" 
d="M401 -2c-101 0 -188 36 -260 107c-71 72 -107 159 -107 261c0 101 36 187 107 259s158 108 260 108c101 0 188 -36 260 -108s108 -158 108 -259s-36 -188 -108 -260s-159 -108 -260 -108zM401 48c88 0 163 31 224 93c62 63 93 138 93 225s-31 161 -92 223
s-136 93 -225 93c-87 0 -162 -31 -225 -93c-62 -61 -93 -136 -93 -223s31 -162 93 -225c63 -62 138 -93 225 -93zM401 70c-82 0 -152 29 -210 86c-57 58 -86 128 -86 210c0 80 29 149 87 206s128 86 209 86s150 -29 208 -86s87 -125 87 -206c0 -82 -29 -152 -87 -210
c-58 -57 -127 -86 -208 -86zM401 115c37 0 71 13 103 38c24 19 45 43 63 73c-54 -14 -108 -21 -163 -21s-112 7 -169 21c18 -29 39 -53 62 -72c33 -26 67 -39 104 -39zM167 331l57 -89c60 -13 114 -21 177 -21c57 0 117 7 178 21l56 89h-468zM402 460l-40 -94h79zM228 534
l77 -96c3 -3 10 -1 20 4c11 5 16 9 15 11l-51 116c-5 5 -17 1 -36 -11c-8 -9 -16 -17 -25 -24zM499 438l74 96c3 3 -6 11 -25 23c-19 13 -30 17 -34 12c-20 -27 -34 -76 -49 -116c2 -3 4 -5 7 -7c13 -9 22 -12 27 -8zM681 7h-11v40h-16v11h43v-11h-16v-40zM711 7h-9v51h16
l9 -39l9 39h15v-51h-9v40l-11 -40h-9l-11 40v-40z" />
    <glyph glyph-name="Odieresis" unicode="&#xd6;" 
d="M401 -2c-101 0 -188 36 -260 107c-71 72 -107 159 -107 261c0 101 36 187 107 259s158 108 260 108c101 0 188 -36 260 -108s108 -158 108 -259s-36 -188 -108 -260s-159 -108 -260 -108zM401 48c88 0 163 31 224 93c62 63 93 138 93 225s-31 161 -92 223
s-136 93 -225 93c-87 0 -162 -31 -225 -93c-62 -61 -93 -136 -93 -223s31 -162 93 -225c63 -62 138 -93 225 -93zM401 70c-82 0 -152 29 -210 86c-57 58 -86 128 -86 210c0 80 29 149 87 206s128 86 209 86s150 -29 208 -86s87 -125 87 -206c0 -82 -29 -152 -87 -210
c-58 -57 -127 -86 -208 -86zM401 115c37 0 71 13 103 38c24 19 45 43 63 73c-54 -14 -108 -21 -163 -21s-112 7 -169 21c18 -29 39 -53 62 -72c33 -26 67 -39 104 -39zM167 331l57 -89c60 -13 114 -21 177 -21c57 0 117 7 178 21l56 89h-468zM402 460l-40 -94h79zM228 534
l77 -96c3 -3 10 -1 20 4c11 5 16 9 15 11l-51 116c-5 5 -17 1 -36 -11c-8 -9 -16 -17 -25 -24zM499 438l74 96c3 3 -6 11 -25 23c-19 13 -30 17 -34 12c-20 -27 -34 -76 -49 -116c2 -3 4 -5 7 -7c13 -9 22 -12 27 -8zM681 7h-11v40h-16v11h43v-11h-16v-40zM711 7h-9v51h16
l9 -39l9 39h15v-51h-9v40l-11 -40h-9l-11 40v-40z" />
    <glyph glyph-name="multiply" unicode="&#xd7;" 
d="M401 -2c-101 0 -188 36 -260 107c-71 72 -107 159 -107 261c0 101 36 187 107 259s158 108 260 108c101 0 188 -36 260 -108s108 -158 108 -259s-36 -188 -108 -260s-159 -108 -260 -108zM401 48c88 0 163 31 224 93c62 63 93 138 93 225s-31 161 -92 223
s-136 93 -225 93c-87 0 -162 -31 -225 -93c-62 -61 -93 -136 -93 -223s31 -162 93 -225c63 -62 138 -93 225 -93zM401 70c-82 0 -152 29 -210 86c-57 58 -86 128 -86 210c0 80 29 149 87 206s128 86 209 86s150 -29 208 -86s87 -125 87 -206c0 -82 -29 -152 -87 -210
c-58 -57 -127 -86 -208 -86zM401 115c37 0 71 13 103 38c24 19 45 43 63 73c-54 -14 -108 -21 -163 -21s-112 7 -169 21c18 -29 39 -53 62 -72c33 -26 67 -39 104 -39zM167 331l57 -89c60 -13 114 -21 177 -21c57 0 117 7 178 21l56 89h-468zM402 460l-40 -94h79zM228 534
l77 -96c3 -3 10 -1 20 4c11 5 16 9 15 11l-51 116c-5 5 -17 1 -36 -11c-8 -9 -16 -17 -25 -24zM499 438l74 96c3 3 -6 11 -25 23c-19 13 -30 17 -34 12c-20 -27 -34 -76 -49 -116c2 -3 4 -5 7 -7c13 -9 22 -12 27 -8zM681 7h-11v40h-16v11h43v-11h-16v-40zM711 7h-9v51h16
l9 -39l9 39h15v-51h-9v40l-11 -40h-9l-11 40v-40z" />
    <glyph glyph-name="Oslash" unicode="&#xd8;" 
d="M401 -2c-101 0 -188 36 -260 107c-71 72 -107 159 -107 261c0 101 36 187 107 259s158 108 260 108c101 0 188 -36 260 -108s108 -158 108 -259s-36 -188 -108 -260s-159 -108 -260 -108zM401 48c88 0 163 31 224 93c62 63 93 138 93 225s-31 161 -92 223
s-136 93 -225 93c-87 0 -162 -31 -225 -93c-62 -61 -93 -136 -93 -223s31 -162 93 -225c63 -62 138 -93 225 -93zM401 70c-82 0 -152 29 -210 86c-57 58 -86 128 -86 210c0 80 29 149 87 206s128 86 209 86s150 -29 208 -86s87 -125 87 -206c0 -82 -29 -152 -87 -210
c-58 -57 -127 -86 -208 -86zM401 115c37 0 71 13 103 38c24 19 45 43 63 73c-54 -14 -108 -21 -163 -21s-112 7 -169 21c18 -29 39 -53 62 -72c33 -26 67 -39 104 -39zM167 331l57 -89c60 -13 114 -21 177 -21c57 0 117 7 178 21l56 89h-468zM402 460l-40 -94h79zM228 534
l77 -96c3 -3 10 -1 20 4c11 5 16 9 15 11l-51 116c-5 5 -17 1 -36 -11c-8 -9 -16 -17 -25 -24zM499 438l74 96c3 3 -6 11 -25 23c-19 13 -30 17 -34 12c-20 -27 -34 -76 -49 -116c2 -3 4 -5 7 -7c13 -9 22 -12 27 -8zM681 7h-11v40h-16v11h43v-11h-16v-40zM711 7h-9v51h16
l9 -39l9 39h15v-51h-9v40l-11 -40h-9l-11 40v-40z" />
    <glyph glyph-name="Ugrave" unicode="&#xd9;" 
d="M401 -2c-101 0 -188 36 -260 107c-71 72 -107 159 -107 261c0 101 36 187 107 259s158 108 260 108c101 0 188 -36 260 -108s108 -158 108 -259s-36 -188 -108 -260s-159 -108 -260 -108zM401 48c88 0 163 31 224 93c62 63 93 138 93 225s-31 161 -92 223
s-136 93 -225 93c-87 0 -162 -31 -225 -93c-62 -61 -93 -136 -93 -223s31 -162 93 -225c63 -62 138 -93 225 -93zM401 70c-82 0 -152 29 -210 86c-57 58 -86 128 -86 210c0 80 29 149 87 206s128 86 209 86s150 -29 208 -86s87 -125 87 -206c0 -82 -29 -152 -87 -210
c-58 -57 -127 -86 -208 -86zM401 115c37 0 71 13 103 38c24 19 45 43 63 73c-54 -14 -108 -21 -163 -21s-112 7 -169 21c18 -29 39 -53 62 -72c33 -26 67 -39 104 -39zM167 331l57 -89c60 -13 114 -21 177 -21c57 0 117 7 178 21l56 89h-468zM402 460l-40 -94h79zM228 534
l77 -96c3 -3 10 -1 20 4c11 5 16 9 15 11l-51 116c-5 5 -17 1 -36 -11c-8 -9 -16 -17 -25 -24zM499 438l74 96c3 3 -6 11 -25 23c-19 13 -30 17 -34 12c-20 -27 -34 -76 -49 -116c2 -3 4 -5 7 -7c13 -9 22 -12 27 -8zM681 7h-11v40h-16v11h43v-11h-16v-40zM711 7h-9v51h16
l9 -39l9 39h15v-51h-9v40l-11 -40h-9l-11 40v-40z" />
    <glyph glyph-name="Uacute" unicode="&#xda;" 
d="M401 -2c-101 0 -188 36 -260 107c-71 72 -107 159 -107 261c0 101 36 187 107 259s158 108 260 108c101 0 188 -36 260 -108s108 -158 108 -259s-36 -188 -108 -260s-159 -108 -260 -108zM401 48c88 0 163 31 224 93c62 63 93 138 93 225s-31 161 -92 223
s-136 93 -225 93c-87 0 -162 -31 -225 -93c-62 -61 -93 -136 -93 -223s31 -162 93 -225c63 -62 138 -93 225 -93zM401 70c-82 0 -152 29 -210 86c-57 58 -86 128 -86 210c0 80 29 149 87 206s128 86 209 86s150 -29 208 -86s87 -125 87 -206c0 -82 -29 -152 -87 -210
c-58 -57 -127 -86 -208 -86zM401 115c37 0 71 13 103 38c24 19 45 43 63 73c-54 -14 -108 -21 -163 -21s-112 7 -169 21c18 -29 39 -53 62 -72c33 -26 67 -39 104 -39zM167 331l57 -89c60 -13 114 -21 177 -21c57 0 117 7 178 21l56 89h-468zM402 460l-40 -94h79zM228 534
l77 -96c3 -3 10 -1 20 4c11 5 16 9 15 11l-51 116c-5 5 -17 1 -36 -11c-8 -9 -16 -17 -25 -24zM499 438l74 96c3 3 -6 11 -25 23c-19 13 -30 17 -34 12c-20 -27 -34 -76 -49 -116c2 -3 4 -5 7 -7c13 -9 22 -12 27 -8zM681 7h-11v40h-16v11h43v-11h-16v-40zM711 7h-9v51h16
l9 -39l9 39h15v-51h-9v40l-11 -40h-9l-11 40v-40z" />
    <glyph glyph-name="Ucircumflex" unicode="&#xdb;" 
d="M401 -2c-101 0 -188 36 -260 107c-71 72 -107 159 -107 261c0 101 36 187 107 259s158 108 260 108c101 0 188 -36 260 -108s108 -158 108 -259s-36 -188 -108 -260s-159 -108 -260 -108zM401 48c88 0 163 31 224 93c62 63 93 138 93 225s-31 161 -92 223
s-136 93 -225 93c-87 0 -162 -31 -225 -93c-62 -61 -93 -136 -93 -223s31 -162 93 -225c63 -62 138 -93 225 -93zM401 70c-82 0 -152 29 -210 86c-57 58 -86 128 -86 210c0 80 29 149 87 206s128 86 209 86s150 -29 208 -86s87 -125 87 -206c0 -82 -29 -152 -87 -210
c-58 -57 -127 -86 -208 -86zM401 115c37 0 71 13 103 38c24 19 45 43 63 73c-54 -14 -108 -21 -163 -21s-112 7 -169 21c18 -29 39 -53 62 -72c33 -26 67 -39 104 -39zM167 331l57 -89c60 -13 114 -21 177 -21c57 0 117 7 178 21l56 89h-468zM402 460l-40 -94h79zM228 534
l77 -96c3 -3 10 -1 20 4c11 5 16 9 15 11l-51 116c-5 5 -17 1 -36 -11c-8 -9 -16 -17 -25 -24zM499 438l74 96c3 3 -6 11 -25 23c-19 13 -30 17 -34 12c-20 -27 -34 -76 -49 -116c2 -3 4 -5 7 -7c13 -9 22 -12 27 -8zM681 7h-11v40h-16v11h43v-11h-16v-40zM711 7h-9v51h16
l9 -39l9 39h15v-51h-9v40l-11 -40h-9l-11 40v-40z" />
    <glyph glyph-name="Udieresis" unicode="&#xdc;" 
d="M401 -2c-101 0 -188 36 -260 107c-71 72 -107 159 -107 261c0 101 36 187 107 259s158 108 260 108c101 0 188 -36 260 -108s108 -158 108 -259s-36 -188 -108 -260s-159 -108 -260 -108zM401 48c88 0 163 31 224 93c62 63 93 138 93 225s-31 161 -92 223
s-136 93 -225 93c-87 0 -162 -31 -225 -93c-62 -61 -93 -136 -93 -223s31 -162 93 -225c63 -62 138 -93 225 -93zM401 70c-82 0 -152 29 -210 86c-57 58 -86 128 -86 210c0 80 29 149 87 206s128 86 209 86s150 -29 208 -86s87 -125 87 -206c0 -82 -29 -152 -87 -210
c-58 -57 -127 -86 -208 -86zM401 115c37 0 71 13 103 38c24 19 45 43 63 73c-54 -14 -108 -21 -163 -21s-112 7 -169 21c18 -29 39 -53 62 -72c33 -26 67 -39 104 -39zM167 331l57 -89c60 -13 114 -21 177 -21c57 0 117 7 178 21l56 89h-468zM402 460l-40 -94h79zM228 534
l77 -96c3 -3 10 -1 20 4c11 5 16 9 15 11l-51 116c-5 5 -17 1 -36 -11c-8 -9 -16 -17 -25 -24zM499 438l74 96c3 3 -6 11 -25 23c-19 13 -30 17 -34 12c-20 -27 -34 -76 -49 -116c2 -3 4 -5 7 -7c13 -9 22 -12 27 -8zM681 7h-11v40h-16v11h43v-11h-16v-40zM711 7h-9v51h16
l9 -39l9 39h15v-51h-9v40l-11 -40h-9l-11 40v-40z" />
    <glyph glyph-name="Yacute" unicode="&#xdd;" 
d="M401 -2c-101 0 -188 36 -260 107c-71 72 -107 159 -107 261c0 101 36 187 107 259s158 108 260 108c101 0 188 -36 260 -108s108 -158 108 -259s-36 -188 -108 -260s-159 -108 -260 -108zM401 48c88 0 163 31 224 93c62 63 93 138 93 225s-31 161 -92 223
s-136 93 -225 93c-87 0 -162 -31 -225 -93c-62 -61 -93 -136 -93 -223s31 -162 93 -225c63 -62 138 -93 225 -93zM401 70c-82 0 -152 29 -210 86c-57 58 -86 128 -86 210c0 80 29 149 87 206s128 86 209 86s150 -29 208 -86s87 -125 87 -206c0 -82 -29 -152 -87 -210
c-58 -57 -127 -86 -208 -86zM401 115c37 0 71 13 103 38c24 19 45 43 63 73c-54 -14 -108 -21 -163 -21s-112 7 -169 21c18 -29 39 -53 62 -72c33 -26 67 -39 104 -39zM167 331l57 -89c60 -13 114 -21 177 -21c57 0 117 7 178 21l56 89h-468zM402 460l-40 -94h79zM228 534
l77 -96c3 -3 10 -1 20 4c11 5 16 9 15 11l-51 116c-5 5 -17 1 -36 -11c-8 -9 -16 -17 -25 -24zM499 438l74 96c3 3 -6 11 -25 23c-19 13 -30 17 -34 12c-20 -27 -34 -76 -49 -116c2 -3 4 -5 7 -7c13 -9 22 -12 27 -8zM681 7h-11v40h-16v11h43v-11h-16v-40zM711 7h-9v51h16
l9 -39l9 39h15v-51h-9v40l-11 -40h-9l-11 40v-40z" />
    <glyph glyph-name="Thorn" unicode="&#xde;" 
d="M401 -2c-101 0 -188 36 -260 107c-71 72 -107 159 -107 261c0 101 36 187 107 259s158 108 260 108c101 0 188 -36 260 -108s108 -158 108 -259s-36 -188 -108 -260s-159 -108 -260 -108zM401 48c88 0 163 31 224 93c62 63 93 138 93 225s-31 161 -92 223
s-136 93 -225 93c-87 0 -162 -31 -225 -93c-62 -61 -93 -136 -93 -223s31 -162 93 -225c63 -62 138 -93 225 -93zM401 70c-82 0 -152 29 -210 86c-57 58 -86 128 -86 210c0 80 29 149 87 206s128 86 209 86s150 -29 208 -86s87 -125 87 -206c0 -82 -29 -152 -87 -210
c-58 -57 -127 -86 -208 -86zM401 115c37 0 71 13 103 38c24 19 45 43 63 73c-54 -14 -108 -21 -163 -21s-112 7 -169 21c18 -29 39 -53 62 -72c33 -26 67 -39 104 -39zM167 331l57 -89c60 -13 114 -21 177 -21c57 0 117 7 178 21l56 89h-468zM402 460l-40 -94h79zM228 534
l77 -96c3 -3 10 -1 20 4c11 5 16 9 15 11l-51 116c-5 5 -17 1 -36 -11c-8 -9 -16 -17 -25 -24zM499 438l74 96c3 3 -6 11 -25 23c-19 13 -30 17 -34 12c-20 -27 -34 -76 -49 -116c2 -3 4 -5 7 -7c13 -9 22 -12 27 -8zM681 7h-11v40h-16v11h43v-11h-16v-40zM711 7h-9v51h16
l9 -39l9 39h15v-51h-9v40l-11 -40h-9l-11 40v-40z" />
    <glyph glyph-name="germandbls" unicode="&#xdf;" horiz-adv-x="797" 
d="M43 19v460c-1 160 142 282 331 282c153 0 329 -74 329 -260c2 -71 -67 -109 -107 -85c-22 -4 -28 -24 -11 -32c57 -30 188 -80 186 -206c-1 -122 -104 -188 -198 -191c-87 -4 -128 5 -178 17c-11 3 -18 10 -21 21l-34 152c-2 13 12 22 23 16c59 -30 103 -39 153 -35
c22 2 23 20 8 31c-29 21 -186 45 -186 192c-2 92 49 148 140 171l7 2c-70 46 -186 -6 -186 -92v-443c0 -11 -10 -19 -20 -19h-217c-9 0 -19 8 -19 19zM157 96h29v392c0 105 99 165 206 164c69 -1 164 -29 193 -101c15 -37 2 -56 -36 -56c-46 0 -97 -20 -114 -66
c-54 -149 207 -157 207 -263c0 -26 -18 -53 -42 -65c-36 -18 -89 -16 -144 -8l8 -28c54 -6 107 -9 147 9c37 17 62 54 62 94c0 120 -252 134 -209 251c13 33 52 47 85 47c61 0 85 39 64 96c-31 83 -138 119 -221 120c-106 2 -235 -53 -235 -191v-395z" />
    <glyph glyph-name="agrave" unicode="&#xe0;" 
d="M401 -2c-101 0 -188 36 -260 107c-71 72 -107 159 -107 261c0 101 36 187 107 259s158 108 260 108c101 0 188 -36 260 -108s108 -158 108 -259s-36 -188 -108 -260s-159 -108 -260 -108zM401 48c88 0 163 31 224 93c62 63 93 138 93 225s-31 161 -92 223
s-136 93 -225 93c-87 0 -162 -31 -225 -93c-62 -61 -93 -136 -93 -223s31 -162 93 -225c63 -62 138 -93 225 -93zM401 70c-82 0 -152 29 -210 86c-57 58 -86 128 -86 210c0 80 29 149 87 206s128 86 209 86s150 -29 208 -86s87 -125 87 -206c0 -82 -29 -152 -87 -210
c-58 -57 -127 -86 -208 -86zM401 115c37 0 71 13 103 38c24 19 45 43 63 73c-54 -14 -108 -21 -163 -21s-112 7 -169 21c18 -29 39 -53 62 -72c33 -26 67 -39 104 -39zM167 331l57 -89c60 -13 114 -21 177 -21c57 0 117 7 178 21l56 89h-468zM402 460l-40 -94h79zM228 534
l77 -96c3 -3 10 -1 20 4c11 5 16 9 15 11l-51 116c-5 5 -17 1 -36 -11c-8 -9 -16 -17 -25 -24zM499 438l74 96c3 3 -6 11 -25 23c-19 13 -30 17 -34 12c-20 -27 -34 -76 -49 -116c2 -3 4 -5 7 -7c13 -9 22 -12 27 -8zM681 7h-11v40h-16v11h43v-11h-16v-40zM711 7h-9v51h16
l9 -39l9 39h15v-51h-9v40l-11 -40h-9l-11 40v-40z" />
    <glyph glyph-name="aacute" unicode="&#xe1;" 
d="M401 -2c-101 0 -188 36 -260 107c-71 72 -107 159 -107 261c0 101 36 187 107 259s158 108 260 108c101 0 188 -36 260 -108s108 -158 108 -259s-36 -188 -108 -260s-159 -108 -260 -108zM401 48c88 0 163 31 224 93c62 63 93 138 93 225s-31 161 -92 223
s-136 93 -225 93c-87 0 -162 -31 -225 -93c-62 -61 -93 -136 -93 -223s31 -162 93 -225c63 -62 138 -93 225 -93zM401 70c-82 0 -152 29 -210 86c-57 58 -86 128 -86 210c0 80 29 149 87 206s128 86 209 86s150 -29 208 -86s87 -125 87 -206c0 -82 -29 -152 -87 -210
c-58 -57 -127 -86 -208 -86zM401 115c37 0 71 13 103 38c24 19 45 43 63 73c-54 -14 -108 -21 -163 -21s-112 7 -169 21c18 -29 39 -53 62 -72c33 -26 67 -39 104 -39zM167 331l57 -89c60 -13 114 -21 177 -21c57 0 117 7 178 21l56 89h-468zM402 460l-40 -94h79zM228 534
l77 -96c3 -3 10 -1 20 4c11 5 16 9 15 11l-51 116c-5 5 -17 1 -36 -11c-8 -9 -16 -17 -25 -24zM499 438l74 96c3 3 -6 11 -25 23c-19 13 -30 17 -34 12c-20 -27 -34 -76 -49 -116c2 -3 4 -5 7 -7c13 -9 22 -12 27 -8zM681 7h-11v40h-16v11h43v-11h-16v-40zM711 7h-9v51h16
l9 -39l9 39h15v-51h-9v40l-11 -40h-9l-11 40v-40z" />
    <glyph glyph-name="acircumflex" unicode="&#xe2;" 
d="M401 -2c-101 0 -188 36 -260 107c-71 72 -107 159 -107 261c0 101 36 187 107 259s158 108 260 108c101 0 188 -36 260 -108s108 -158 108 -259s-36 -188 -108 -260s-159 -108 -260 -108zM401 48c88 0 163 31 224 93c62 63 93 138 93 225s-31 161 -92 223
s-136 93 -225 93c-87 0 -162 -31 -225 -93c-62 -61 -93 -136 -93 -223s31 -162 93 -225c63 -62 138 -93 225 -93zM401 70c-82 0 -152 29 -210 86c-57 58 -86 128 -86 210c0 80 29 149 87 206s128 86 209 86s150 -29 208 -86s87 -125 87 -206c0 -82 -29 -152 -87 -210
c-58 -57 -127 -86 -208 -86zM401 115c37 0 71 13 103 38c24 19 45 43 63 73c-54 -14 -108 -21 -163 -21s-112 7 -169 21c18 -29 39 -53 62 -72c33 -26 67 -39 104 -39zM167 331l57 -89c60 -13 114 -21 177 -21c57 0 117 7 178 21l56 89h-468zM402 460l-40 -94h79zM228 534
l77 -96c3 -3 10 -1 20 4c11 5 16 9 15 11l-51 116c-5 5 -17 1 -36 -11c-8 -9 -16 -17 -25 -24zM499 438l74 96c3 3 -6 11 -25 23c-19 13 -30 17 -34 12c-20 -27 -34 -76 -49 -116c2 -3 4 -5 7 -7c13 -9 22 -12 27 -8zM681 7h-11v40h-16v11h43v-11h-16v-40zM711 7h-9v51h16
l9 -39l9 39h15v-51h-9v40l-11 -40h-9l-11 40v-40z" />
    <glyph glyph-name="atilde" unicode="&#xe3;" 
d="M401 -2c-101 0 -188 36 -260 107c-71 72 -107 159 -107 261c0 101 36 187 107 259s158 108 260 108c101 0 188 -36 260 -108s108 -158 108 -259s-36 -188 -108 -260s-159 -108 -260 -108zM401 48c88 0 163 31 224 93c62 63 93 138 93 225s-31 161 -92 223
s-136 93 -225 93c-87 0 -162 -31 -225 -93c-62 -61 -93 -136 -93 -223s31 -162 93 -225c63 -62 138 -93 225 -93zM401 70c-82 0 -152 29 -210 86c-57 58 -86 128 -86 210c0 80 29 149 87 206s128 86 209 86s150 -29 208 -86s87 -125 87 -206c0 -82 -29 -152 -87 -210
c-58 -57 -127 -86 -208 -86zM401 115c37 0 71 13 103 38c24 19 45 43 63 73c-54 -14 -108 -21 -163 -21s-112 7 -169 21c18 -29 39 -53 62 -72c33 -26 67 -39 104 -39zM167 331l57 -89c60 -13 114 -21 177 -21c57 0 117 7 178 21l56 89h-468zM402 460l-40 -94h79zM228 534
l77 -96c3 -3 10 -1 20 4c11 5 16 9 15 11l-51 116c-5 5 -17 1 -36 -11c-8 -9 -16 -17 -25 -24zM499 438l74 96c3 3 -6 11 -25 23c-19 13 -30 17 -34 12c-20 -27 -34 -76 -49 -116c2 -3 4 -5 7 -7c13 -9 22 -12 27 -8zM681 7h-11v40h-16v11h43v-11h-16v-40zM711 7h-9v51h16
l9 -39l9 39h15v-51h-9v40l-11 -40h-9l-11 40v-40z" />
    <glyph glyph-name="adieresis" unicode="&#xe4;" 
d="M401 -2c-101 0 -188 36 -260 107c-71 72 -107 159 -107 261c0 101 36 187 107 259s158 108 260 108c101 0 188 -36 260 -108s108 -158 108 -259s-36 -188 -108 -260s-159 -108 -260 -108zM401 48c88 0 163 31 224 93c62 63 93 138 93 225s-31 161 -92 223
s-136 93 -225 93c-87 0 -162 -31 -225 -93c-62 -61 -93 -136 -93 -223s31 -162 93 -225c63 -62 138 -93 225 -93zM401 70c-82 0 -152 29 -210 86c-57 58 -86 128 -86 210c0 80 29 149 87 206s128 86 209 86s150 -29 208 -86s87 -125 87 -206c0 -82 -29 -152 -87 -210
c-58 -57 -127 -86 -208 -86zM401 115c37 0 71 13 103 38c24 19 45 43 63 73c-54 -14 -108 -21 -163 -21s-112 7 -169 21c18 -29 39 -53 62 -72c33 -26 67 -39 104 -39zM167 331l57 -89c60 -13 114 -21 177 -21c57 0 117 7 178 21l56 89h-468zM402 460l-40 -94h79zM228 534
l77 -96c3 -3 10 -1 20 4c11 5 16 9 15 11l-51 116c-5 5 -17 1 -36 -11c-8 -9 -16 -17 -25 -24zM499 438l74 96c3 3 -6 11 -25 23c-19 13 -30 17 -34 12c-20 -27 -34 -76 -49 -116c2 -3 4 -5 7 -7c13 -9 22 -12 27 -8zM681 7h-11v40h-16v11h43v-11h-16v-40zM711 7h-9v51h16
l9 -39l9 39h15v-51h-9v40l-11 -40h-9l-11 40v-40z" />
    <glyph glyph-name="aring" unicode="&#xe5;" 
d="M401 -2c-101 0 -188 36 -260 107c-71 72 -107 159 -107 261c0 101 36 187 107 259s158 108 260 108c101 0 188 -36 260 -108s108 -158 108 -259s-36 -188 -108 -260s-159 -108 -260 -108zM401 48c88 0 163 31 224 93c62 63 93 138 93 225s-31 161 -92 223
s-136 93 -225 93c-87 0 -162 -31 -225 -93c-62 -61 -93 -136 -93 -223s31 -162 93 -225c63 -62 138 -93 225 -93zM401 70c-82 0 -152 29 -210 86c-57 58 -86 128 -86 210c0 80 29 149 87 206s128 86 209 86s150 -29 208 -86s87 -125 87 -206c0 -82 -29 -152 -87 -210
c-58 -57 -127 -86 -208 -86zM401 115c37 0 71 13 103 38c24 19 45 43 63 73c-54 -14 -108 -21 -163 -21s-112 7 -169 21c18 -29 39 -53 62 -72c33 -26 67 -39 104 -39zM167 331l57 -89c60 -13 114 -21 177 -21c57 0 117 7 178 21l56 89h-468zM402 460l-40 -94h79zM228 534
l77 -96c3 -3 10 -1 20 4c11 5 16 9 15 11l-51 116c-5 5 -17 1 -36 -11c-8 -9 -16 -17 -25 -24zM499 438l74 96c3 3 -6 11 -25 23c-19 13 -30 17 -34 12c-20 -27 -34 -76 -49 -116c2 -3 4 -5 7 -7c13 -9 22 -12 27 -8zM681 7h-11v40h-16v11h43v-11h-16v-40zM711 7h-9v51h16
l9 -39l9 39h15v-51h-9v40l-11 -40h-9l-11 40v-40z" />
    <glyph glyph-name="ae" unicode="&#xe6;" 
d="M401 -2c-101 0 -188 36 -260 107c-71 72 -107 159 -107 261c0 101 36 187 107 259s158 108 260 108c101 0 188 -36 260 -108s108 -158 108 -259s-36 -188 -108 -260s-159 -108 -260 -108zM401 48c88 0 163 31 224 93c62 63 93 138 93 225s-31 161 -92 223
s-136 93 -225 93c-87 0 -162 -31 -225 -93c-62 -61 -93 -136 -93 -223s31 -162 93 -225c63 -62 138 -93 225 -93zM401 70c-82 0 -152 29 -210 86c-57 58 -86 128 -86 210c0 80 29 149 87 206s128 86 209 86s150 -29 208 -86s87 -125 87 -206c0 -82 -29 -152 -87 -210
c-58 -57 -127 -86 -208 -86zM401 115c37 0 71 13 103 38c24 19 45 43 63 73c-54 -14 -108 -21 -163 -21s-112 7 -169 21c18 -29 39 -53 62 -72c33 -26 67 -39 104 -39zM167 331l57 -89c60 -13 114 -21 177 -21c57 0 117 7 178 21l56 89h-468zM402 460l-40 -94h79zM228 534
l77 -96c3 -3 10 -1 20 4c11 5 16 9 15 11l-51 116c-5 5 -17 1 -36 -11c-8 -9 -16 -17 -25 -24zM499 438l74 96c3 3 -6 11 -25 23c-19 13 -30 17 -34 12c-20 -27 -34 -76 -49 -116c2 -3 4 -5 7 -7c13 -9 22 -12 27 -8zM681 7h-11v40h-16v11h43v-11h-16v-40zM711 7h-9v51h16
l9 -39l9 39h15v-51h-9v40l-11 -40h-9l-11 40v-40z" />
    <glyph glyph-name="ccedilla" unicode="&#xe7;" 
d="M401 -2c-101 0 -188 36 -260 107c-71 72 -107 159 -107 261c0 101 36 187 107 259s158 108 260 108c101 0 188 -36 260 -108s108 -158 108 -259s-36 -188 -108 -260s-159 -108 -260 -108zM401 48c88 0 163 31 224 93c62 63 93 138 93 225s-31 161 -92 223
s-136 93 -225 93c-87 0 -162 -31 -225 -93c-62 -61 -93 -136 -93 -223s31 -162 93 -225c63 -62 138 -93 225 -93zM401 70c-82 0 -152 29 -210 86c-57 58 -86 128 -86 210c0 80 29 149 87 206s128 86 209 86s150 -29 208 -86s87 -125 87 -206c0 -82 -29 -152 -87 -210
c-58 -57 -127 -86 -208 -86zM401 115c37 0 71 13 103 38c24 19 45 43 63 73c-54 -14 -108 -21 -163 -21s-112 7 -169 21c18 -29 39 -53 62 -72c33 -26 67 -39 104 -39zM167 331l57 -89c60 -13 114 -21 177 -21c57 0 117 7 178 21l56 89h-468zM402 460l-40 -94h79zM228 534
l77 -96c3 -3 10 -1 20 4c11 5 16 9 15 11l-51 116c-5 5 -17 1 -36 -11c-8 -9 -16 -17 -25 -24zM499 438l74 96c3 3 -6 11 -25 23c-19 13 -30 17 -34 12c-20 -27 -34 -76 -49 -116c2 -3 4 -5 7 -7c13 -9 22 -12 27 -8zM681 7h-11v40h-16v11h43v-11h-16v-40zM711 7h-9v51h16
l9 -39l9 39h15v-51h-9v40l-11 -40h-9l-11 40v-40z" />
    <glyph glyph-name="egrave" unicode="&#xe8;" 
d="M401 -2c-101 0 -188 36 -260 107c-71 72 -107 159 -107 261c0 101 36 187 107 259s158 108 260 108c101 0 188 -36 260 -108s108 -158 108 -259s-36 -188 -108 -260s-159 -108 -260 -108zM401 48c88 0 163 31 224 93c62 63 93 138 93 225s-31 161 -92 223
s-136 93 -225 93c-87 0 -162 -31 -225 -93c-62 -61 -93 -136 -93 -223s31 -162 93 -225c63 -62 138 -93 225 -93zM401 70c-82 0 -152 29 -210 86c-57 58 -86 128 -86 210c0 80 29 149 87 206s128 86 209 86s150 -29 208 -86s87 -125 87 -206c0 -82 -29 -152 -87 -210
c-58 -57 -127 -86 -208 -86zM401 115c37 0 71 13 103 38c24 19 45 43 63 73c-54 -14 -108 -21 -163 -21s-112 7 -169 21c18 -29 39 -53 62 -72c33 -26 67 -39 104 -39zM167 331l57 -89c60 -13 114 -21 177 -21c57 0 117 7 178 21l56 89h-468zM402 460l-40 -94h79zM228 534
l77 -96c3 -3 10 -1 20 4c11 5 16 9 15 11l-51 116c-5 5 -17 1 -36 -11c-8 -9 -16 -17 -25 -24zM499 438l74 96c3 3 -6 11 -25 23c-19 13 -30 17 -34 12c-20 -27 -34 -76 -49 -116c2 -3 4 -5 7 -7c13 -9 22 -12 27 -8zM681 7h-11v40h-16v11h43v-11h-16v-40zM711 7h-9v51h16
l9 -39l9 39h15v-51h-9v40l-11 -40h-9l-11 40v-40z" />
    <glyph glyph-name="eacute" unicode="&#xe9;" 
d="M401 -2c-101 0 -188 36 -260 107c-71 72 -107 159 -107 261c0 101 36 187 107 259s158 108 260 108c101 0 188 -36 260 -108s108 -158 108 -259s-36 -188 -108 -260s-159 -108 -260 -108zM401 48c88 0 163 31 224 93c62 63 93 138 93 225s-31 161 -92 223
s-136 93 -225 93c-87 0 -162 -31 -225 -93c-62 -61 -93 -136 -93 -223s31 -162 93 -225c63 -62 138 -93 225 -93zM401 70c-82 0 -152 29 -210 86c-57 58 -86 128 -86 210c0 80 29 149 87 206s128 86 209 86s150 -29 208 -86s87 -125 87 -206c0 -82 -29 -152 -87 -210
c-58 -57 -127 -86 -208 -86zM401 115c37 0 71 13 103 38c24 19 45 43 63 73c-54 -14 -108 -21 -163 -21s-112 7 -169 21c18 -29 39 -53 62 -72c33 -26 67 -39 104 -39zM167 331l57 -89c60 -13 114 -21 177 -21c57 0 117 7 178 21l56 89h-468zM402 460l-40 -94h79zM228 534
l77 -96c3 -3 10 -1 20 4c11 5 16 9 15 11l-51 116c-5 5 -17 1 -36 -11c-8 -9 -16 -17 -25 -24zM499 438l74 96c3 3 -6 11 -25 23c-19 13 -30 17 -34 12c-20 -27 -34 -76 -49 -116c2 -3 4 -5 7 -7c13 -9 22 -12 27 -8zM681 7h-11v40h-16v11h43v-11h-16v-40zM711 7h-9v51h16
l9 -39l9 39h15v-51h-9v40l-11 -40h-9l-11 40v-40z" />
    <glyph glyph-name="ecircumflex" unicode="&#xea;" 
d="M401 -2c-101 0 -188 36 -260 107c-71 72 -107 159 -107 261c0 101 36 187 107 259s158 108 260 108c101 0 188 -36 260 -108s108 -158 108 -259s-36 -188 -108 -260s-159 -108 -260 -108zM401 48c88 0 163 31 224 93c62 63 93 138 93 225s-31 161 -92 223
s-136 93 -225 93c-87 0 -162 -31 -225 -93c-62 -61 -93 -136 -93 -223s31 -162 93 -225c63 -62 138 -93 225 -93zM401 70c-82 0 -152 29 -210 86c-57 58 -86 128 -86 210c0 80 29 149 87 206s128 86 209 86s150 -29 208 -86s87 -125 87 -206c0 -82 -29 -152 -87 -210
c-58 -57 -127 -86 -208 -86zM401 115c37 0 71 13 103 38c24 19 45 43 63 73c-54 -14 -108 -21 -163 -21s-112 7 -169 21c18 -29 39 -53 62 -72c33 -26 67 -39 104 -39zM167 331l57 -89c60 -13 114 -21 177 -21c57 0 117 7 178 21l56 89h-468zM402 460l-40 -94h79zM228 534
l77 -96c3 -3 10 -1 20 4c11 5 16 9 15 11l-51 116c-5 5 -17 1 -36 -11c-8 -9 -16 -17 -25 -24zM499 438l74 96c3 3 -6 11 -25 23c-19 13 -30 17 -34 12c-20 -27 -34 -76 -49 -116c2 -3 4 -5 7 -7c13 -9 22 -12 27 -8zM681 7h-11v40h-16v11h43v-11h-16v-40zM711 7h-9v51h16
l9 -39l9 39h15v-51h-9v40l-11 -40h-9l-11 40v-40z" />
    <glyph glyph-name="edieresis" unicode="&#xeb;" 
d="M401 -2c-101 0 -188 36 -260 107c-71 72 -107 159 -107 261c0 101 36 187 107 259s158 108 260 108c101 0 188 -36 260 -108s108 -158 108 -259s-36 -188 -108 -260s-159 -108 -260 -108zM401 48c88 0 163 31 224 93c62 63 93 138 93 225s-31 161 -92 223
s-136 93 -225 93c-87 0 -162 -31 -225 -93c-62 -61 -93 -136 -93 -223s31 -162 93 -225c63 -62 138 -93 225 -93zM401 70c-82 0 -152 29 -210 86c-57 58 -86 128 -86 210c0 80 29 149 87 206s128 86 209 86s150 -29 208 -86s87 -125 87 -206c0 -82 -29 -152 -87 -210
c-58 -57 -127 -86 -208 -86zM401 115c37 0 71 13 103 38c24 19 45 43 63 73c-54 -14 -108 -21 -163 -21s-112 7 -169 21c18 -29 39 -53 62 -72c33 -26 67 -39 104 -39zM167 331l57 -89c60 -13 114 -21 177 -21c57 0 117 7 178 21l56 89h-468zM402 460l-40 -94h79zM228 534
l77 -96c3 -3 10 -1 20 4c11 5 16 9 15 11l-51 116c-5 5 -17 1 -36 -11c-8 -9 -16 -17 -25 -24zM499 438l74 96c3 3 -6 11 -25 23c-19 13 -30 17 -34 12c-20 -27 -34 -76 -49 -116c2 -3 4 -5 7 -7c13 -9 22 -12 27 -8zM681 7h-11v40h-16v11h43v-11h-16v-40zM711 7h-9v51h16
l9 -39l9 39h15v-51h-9v40l-11 -40h-9l-11 40v-40z" />
    <glyph glyph-name="igrave" unicode="&#xec;" 
d="M401 -2c-101 0 -188 36 -260 107c-71 72 -107 159 -107 261c0 101 36 187 107 259s158 108 260 108c101 0 188 -36 260 -108s108 -158 108 -259s-36 -188 -108 -260s-159 -108 -260 -108zM401 48c88 0 163 31 224 93c62 63 93 138 93 225s-31 161 -92 223
s-136 93 -225 93c-87 0 -162 -31 -225 -93c-62 -61 -93 -136 -93 -223s31 -162 93 -225c63 -62 138 -93 225 -93zM401 70c-82 0 -152 29 -210 86c-57 58 -86 128 -86 210c0 80 29 149 87 206s128 86 209 86s150 -29 208 -86s87 -125 87 -206c0 -82 -29 -152 -87 -210
c-58 -57 -127 -86 -208 -86zM401 115c37 0 71 13 103 38c24 19 45 43 63 73c-54 -14 -108 -21 -163 -21s-112 7 -169 21c18 -29 39 -53 62 -72c33 -26 67 -39 104 -39zM167 331l57 -89c60 -13 114 -21 177 -21c57 0 117 7 178 21l56 89h-468zM402 460l-40 -94h79zM228 534
l77 -96c3 -3 10 -1 20 4c11 5 16 9 15 11l-51 116c-5 5 -17 1 -36 -11c-8 -9 -16 -17 -25 -24zM499 438l74 96c3 3 -6 11 -25 23c-19 13 -30 17 -34 12c-20 -27 -34 -76 -49 -116c2 -3 4 -5 7 -7c13 -9 22 -12 27 -8zM681 7h-11v40h-16v11h43v-11h-16v-40zM711 7h-9v51h16
l9 -39l9 39h15v-51h-9v40l-11 -40h-9l-11 40v-40z" />
    <glyph glyph-name="iacute" unicode="&#xed;" 
d="M401 -2c-101 0 -188 36 -260 107c-71 72 -107 159 -107 261c0 101 36 187 107 259s158 108 260 108c101 0 188 -36 260 -108s108 -158 108 -259s-36 -188 -108 -260s-159 -108 -260 -108zM401 48c88 0 163 31 224 93c62 63 93 138 93 225s-31 161 -92 223
s-136 93 -225 93c-87 0 -162 -31 -225 -93c-62 -61 -93 -136 -93 -223s31 -162 93 -225c63 -62 138 -93 225 -93zM401 70c-82 0 -152 29 -210 86c-57 58 -86 128 -86 210c0 80 29 149 87 206s128 86 209 86s150 -29 208 -86s87 -125 87 -206c0 -82 -29 -152 -87 -210
c-58 -57 -127 -86 -208 -86zM401 115c37 0 71 13 103 38c24 19 45 43 63 73c-54 -14 -108 -21 -163 -21s-112 7 -169 21c18 -29 39 -53 62 -72c33 -26 67 -39 104 -39zM167 331l57 -89c60 -13 114 -21 177 -21c57 0 117 7 178 21l56 89h-468zM402 460l-40 -94h79zM228 534
l77 -96c3 -3 10 -1 20 4c11 5 16 9 15 11l-51 116c-5 5 -17 1 -36 -11c-8 -9 -16 -17 -25 -24zM499 438l74 96c3 3 -6 11 -25 23c-19 13 -30 17 -34 12c-20 -27 -34 -76 -49 -116c2 -3 4 -5 7 -7c13 -9 22 -12 27 -8zM681 7h-11v40h-16v11h43v-11h-16v-40zM711 7h-9v51h16
l9 -39l9 39h15v-51h-9v40l-11 -40h-9l-11 40v-40z" />
    <glyph glyph-name="icircumflex" unicode="&#xee;" 
d="M401 -2c-101 0 -188 36 -260 107c-71 72 -107 159 -107 261c0 101 36 187 107 259s158 108 260 108c101 0 188 -36 260 -108s108 -158 108 -259s-36 -188 -108 -260s-159 -108 -260 -108zM401 48c88 0 163 31 224 93c62 63 93 138 93 225s-31 161 -92 223
s-136 93 -225 93c-87 0 -162 -31 -225 -93c-62 -61 -93 -136 -93 -223s31 -162 93 -225c63 -62 138 -93 225 -93zM401 70c-82 0 -152 29 -210 86c-57 58 -86 128 -86 210c0 80 29 149 87 206s128 86 209 86s150 -29 208 -86s87 -125 87 -206c0 -82 -29 -152 -87 -210
c-58 -57 -127 -86 -208 -86zM401 115c37 0 71 13 103 38c24 19 45 43 63 73c-54 -14 -108 -21 -163 -21s-112 7 -169 21c18 -29 39 -53 62 -72c33 -26 67 -39 104 -39zM167 331l57 -89c60 -13 114 -21 177 -21c57 0 117 7 178 21l56 89h-468zM402 460l-40 -94h79zM228 534
l77 -96c3 -3 10 -1 20 4c11 5 16 9 15 11l-51 116c-5 5 -17 1 -36 -11c-8 -9 -16 -17 -25 -24zM499 438l74 96c3 3 -6 11 -25 23c-19 13 -30 17 -34 12c-20 -27 -34 -76 -49 -116c2 -3 4 -5 7 -7c13 -9 22 -12 27 -8zM681 7h-11v40h-16v11h43v-11h-16v-40zM711 7h-9v51h16
l9 -39l9 39h15v-51h-9v40l-11 -40h-9l-11 40v-40z" />
    <glyph glyph-name="idieresis" unicode="&#xef;" 
d="M401 -2c-101 0 -188 36 -260 107c-71 72 -107 159 -107 261c0 101 36 187 107 259s158 108 260 108c101 0 188 -36 260 -108s108 -158 108 -259s-36 -188 -108 -260s-159 -108 -260 -108zM401 48c88 0 163 31 224 93c62 63 93 138 93 225s-31 161 -92 223
s-136 93 -225 93c-87 0 -162 -31 -225 -93c-62 -61 -93 -136 -93 -223s31 -162 93 -225c63 -62 138 -93 225 -93zM401 70c-82 0 -152 29 -210 86c-57 58 -86 128 -86 210c0 80 29 149 87 206s128 86 209 86s150 -29 208 -86s87 -125 87 -206c0 -82 -29 -152 -87 -210
c-58 -57 -127 -86 -208 -86zM401 115c37 0 71 13 103 38c24 19 45 43 63 73c-54 -14 -108 -21 -163 -21s-112 7 -169 21c18 -29 39 -53 62 -72c33 -26 67 -39 104 -39zM167 331l57 -89c60 -13 114 -21 177 -21c57 0 117 7 178 21l56 89h-468zM402 460l-40 -94h79zM228 534
l77 -96c3 -3 10 -1 20 4c11 5 16 9 15 11l-51 116c-5 5 -17 1 -36 -11c-8 -9 -16 -17 -25 -24zM499 438l74 96c3 3 -6 11 -25 23c-19 13 -30 17 -34 12c-20 -27 -34 -76 -49 -116c2 -3 4 -5 7 -7c13 -9 22 -12 27 -8zM681 7h-11v40h-16v11h43v-11h-16v-40zM711 7h-9v51h16
l9 -39l9 39h15v-51h-9v40l-11 -40h-9l-11 40v-40z" />
    <glyph glyph-name="eth" unicode="&#xf0;" 
d="M401 -2c-101 0 -188 36 -260 107c-71 72 -107 159 -107 261c0 101 36 187 107 259s158 108 260 108c101 0 188 -36 260 -108s108 -158 108 -259s-36 -188 -108 -260s-159 -108 -260 -108zM401 48c88 0 163 31 224 93c62 63 93 138 93 225s-31 161 -92 223
s-136 93 -225 93c-87 0 -162 -31 -225 -93c-62 -61 -93 -136 -93 -223s31 -162 93 -225c63 -62 138 -93 225 -93zM401 70c-82 0 -152 29 -210 86c-57 58 -86 128 -86 210c0 80 29 149 87 206s128 86 209 86s150 -29 208 -86s87 -125 87 -206c0 -82 -29 -152 -87 -210
c-58 -57 -127 -86 -208 -86zM401 115c37 0 71 13 103 38c24 19 45 43 63 73c-54 -14 -108 -21 -163 -21s-112 7 -169 21c18 -29 39 -53 62 -72c33 -26 67 -39 104 -39zM167 331l57 -89c60 -13 114 -21 177 -21c57 0 117 7 178 21l56 89h-468zM402 460l-40 -94h79zM228 534
l77 -96c3 -3 10 -1 20 4c11 5 16 9 15 11l-51 116c-5 5 -17 1 -36 -11c-8 -9 -16 -17 -25 -24zM499 438l74 96c3 3 -6 11 -25 23c-19 13 -30 17 -34 12c-20 -27 -34 -76 -49 -116c2 -3 4 -5 7 -7c13 -9 22 -12 27 -8zM681 7h-11v40h-16v11h43v-11h-16v-40zM711 7h-9v51h16
l9 -39l9 39h15v-51h-9v40l-11 -40h-9l-11 40v-40z" />
    <glyph glyph-name="ntilde" unicode="&#xf1;" 
d="M401 -2c-101 0 -188 36 -260 107c-71 72 -107 159 -107 261c0 101 36 187 107 259s158 108 260 108c101 0 188 -36 260 -108s108 -158 108 -259s-36 -188 -108 -260s-159 -108 -260 -108zM401 48c88 0 163 31 224 93c62 63 93 138 93 225s-31 161 -92 223
s-136 93 -225 93c-87 0 -162 -31 -225 -93c-62 -61 -93 -136 -93 -223s31 -162 93 -225c63 -62 138 -93 225 -93zM401 70c-82 0 -152 29 -210 86c-57 58 -86 128 -86 210c0 80 29 149 87 206s128 86 209 86s150 -29 208 -86s87 -125 87 -206c0 -82 -29 -152 -87 -210
c-58 -57 -127 -86 -208 -86zM401 115c37 0 71 13 103 38c24 19 45 43 63 73c-54 -14 -108 -21 -163 -21s-112 7 -169 21c18 -29 39 -53 62 -72c33 -26 67 -39 104 -39zM167 331l57 -89c60 -13 114 -21 177 -21c57 0 117 7 178 21l56 89h-468zM402 460l-40 -94h79zM228 534
l77 -96c3 -3 10 -1 20 4c11 5 16 9 15 11l-51 116c-5 5 -17 1 -36 -11c-8 -9 -16 -17 -25 -24zM499 438l74 96c3 3 -6 11 -25 23c-19 13 -30 17 -34 12c-20 -27 -34 -76 -49 -116c2 -3 4 -5 7 -7c13 -9 22 -12 27 -8zM681 7h-11v40h-16v11h43v-11h-16v-40zM711 7h-9v51h16
l9 -39l9 39h15v-51h-9v40l-11 -40h-9l-11 40v-40z" />
    <glyph glyph-name="ograve" unicode="&#xf2;" 
d="M401 -2c-101 0 -188 36 -260 107c-71 72 -107 159 -107 261c0 101 36 187 107 259s158 108 260 108c101 0 188 -36 260 -108s108 -158 108 -259s-36 -188 -108 -260s-159 -108 -260 -108zM401 48c88 0 163 31 224 93c62 63 93 138 93 225s-31 161 -92 223
s-136 93 -225 93c-87 0 -162 -31 -225 -93c-62 -61 -93 -136 -93 -223s31 -162 93 -225c63 -62 138 -93 225 -93zM401 70c-82 0 -152 29 -210 86c-57 58 -86 128 -86 210c0 80 29 149 87 206s128 86 209 86s150 -29 208 -86s87 -125 87 -206c0 -82 -29 -152 -87 -210
c-58 -57 -127 -86 -208 -86zM401 115c37 0 71 13 103 38c24 19 45 43 63 73c-54 -14 -108 -21 -163 -21s-112 7 -169 21c18 -29 39 -53 62 -72c33 -26 67 -39 104 -39zM167 331l57 -89c60 -13 114 -21 177 -21c57 0 117 7 178 21l56 89h-468zM402 460l-40 -94h79zM228 534
l77 -96c3 -3 10 -1 20 4c11 5 16 9 15 11l-51 116c-5 5 -17 1 -36 -11c-8 -9 -16 -17 -25 -24zM499 438l74 96c3 3 -6 11 -25 23c-19 13 -30 17 -34 12c-20 -27 -34 -76 -49 -116c2 -3 4 -5 7 -7c13 -9 22 -12 27 -8zM681 7h-11v40h-16v11h43v-11h-16v-40zM711 7h-9v51h16
l9 -39l9 39h15v-51h-9v40l-11 -40h-9l-11 40v-40z" />
    <glyph glyph-name="oacute" unicode="&#xf3;" 
d="M401 -2c-101 0 -188 36 -260 107c-71 72 -107 159 -107 261c0 101 36 187 107 259s158 108 260 108c101 0 188 -36 260 -108s108 -158 108 -259s-36 -188 -108 -260s-159 -108 -260 -108zM401 48c88 0 163 31 224 93c62 63 93 138 93 225s-31 161 -92 223
s-136 93 -225 93c-87 0 -162 -31 -225 -93c-62 -61 -93 -136 -93 -223s31 -162 93 -225c63 -62 138 -93 225 -93zM401 70c-82 0 -152 29 -210 86c-57 58 -86 128 -86 210c0 80 29 149 87 206s128 86 209 86s150 -29 208 -86s87 -125 87 -206c0 -82 -29 -152 -87 -210
c-58 -57 -127 -86 -208 -86zM401 115c37 0 71 13 103 38c24 19 45 43 63 73c-54 -14 -108 -21 -163 -21s-112 7 -169 21c18 -29 39 -53 62 -72c33 -26 67 -39 104 -39zM167 331l57 -89c60 -13 114 -21 177 -21c57 0 117 7 178 21l56 89h-468zM402 460l-40 -94h79zM228 534
l77 -96c3 -3 10 -1 20 4c11 5 16 9 15 11l-51 116c-5 5 -17 1 -36 -11c-8 -9 -16 -17 -25 -24zM499 438l74 96c3 3 -6 11 -25 23c-19 13 -30 17 -34 12c-20 -27 -34 -76 -49 -116c2 -3 4 -5 7 -7c13 -9 22 -12 27 -8zM681 7h-11v40h-16v11h43v-11h-16v-40zM711 7h-9v51h16
l9 -39l9 39h15v-51h-9v40l-11 -40h-9l-11 40v-40z" />
    <glyph glyph-name="ocircumflex" unicode="&#xf4;" 
d="M401 -2c-101 0 -188 36 -260 107c-71 72 -107 159 -107 261c0 101 36 187 107 259s158 108 260 108c101 0 188 -36 260 -108s108 -158 108 -259s-36 -188 -108 -260s-159 -108 -260 -108zM401 48c88 0 163 31 224 93c62 63 93 138 93 225s-31 161 -92 223
s-136 93 -225 93c-87 0 -162 -31 -225 -93c-62 -61 -93 -136 -93 -223s31 -162 93 -225c63 -62 138 -93 225 -93zM401 70c-82 0 -152 29 -210 86c-57 58 -86 128 -86 210c0 80 29 149 87 206s128 86 209 86s150 -29 208 -86s87 -125 87 -206c0 -82 -29 -152 -87 -210
c-58 -57 -127 -86 -208 -86zM401 115c37 0 71 13 103 38c24 19 45 43 63 73c-54 -14 -108 -21 -163 -21s-112 7 -169 21c18 -29 39 -53 62 -72c33 -26 67 -39 104 -39zM167 331l57 -89c60 -13 114 -21 177 -21c57 0 117 7 178 21l56 89h-468zM402 460l-40 -94h79zM228 534
l77 -96c3 -3 10 -1 20 4c11 5 16 9 15 11l-51 116c-5 5 -17 1 -36 -11c-8 -9 -16 -17 -25 -24zM499 438l74 96c3 3 -6 11 -25 23c-19 13 -30 17 -34 12c-20 -27 -34 -76 -49 -116c2 -3 4 -5 7 -7c13 -9 22 -12 27 -8zM681 7h-11v40h-16v11h43v-11h-16v-40zM711 7h-9v51h16
l9 -39l9 39h15v-51h-9v40l-11 -40h-9l-11 40v-40z" />
    <glyph glyph-name="otilde" unicode="&#xf5;" 
d="M401 -2c-101 0 -188 36 -260 107c-71 72 -107 159 -107 261c0 101 36 187 107 259s158 108 260 108c101 0 188 -36 260 -108s108 -158 108 -259s-36 -188 -108 -260s-159 -108 -260 -108zM401 48c88 0 163 31 224 93c62 63 93 138 93 225s-31 161 -92 223
s-136 93 -225 93c-87 0 -162 -31 -225 -93c-62 -61 -93 -136 -93 -223s31 -162 93 -225c63 -62 138 -93 225 -93zM401 70c-82 0 -152 29 -210 86c-57 58 -86 128 -86 210c0 80 29 149 87 206s128 86 209 86s150 -29 208 -86s87 -125 87 -206c0 -82 -29 -152 -87 -210
c-58 -57 -127 -86 -208 -86zM401 115c37 0 71 13 103 38c24 19 45 43 63 73c-54 -14 -108 -21 -163 -21s-112 7 -169 21c18 -29 39 -53 62 -72c33 -26 67 -39 104 -39zM167 331l57 -89c60 -13 114 -21 177 -21c57 0 117 7 178 21l56 89h-468zM402 460l-40 -94h79zM228 534
l77 -96c3 -3 10 -1 20 4c11 5 16 9 15 11l-51 116c-5 5 -17 1 -36 -11c-8 -9 -16 -17 -25 -24zM499 438l74 96c3 3 -6 11 -25 23c-19 13 -30 17 -34 12c-20 -27 -34 -76 -49 -116c2 -3 4 -5 7 -7c13 -9 22 -12 27 -8zM681 7h-11v40h-16v11h43v-11h-16v-40zM711 7h-9v51h16
l9 -39l9 39h15v-51h-9v40l-11 -40h-9l-11 40v-40z" />
    <glyph glyph-name="odieresis" unicode="&#xf6;" 
d="M401 -2c-101 0 -188 36 -260 107c-71 72 -107 159 -107 261c0 101 36 187 107 259s158 108 260 108c101 0 188 -36 260 -108s108 -158 108 -259s-36 -188 -108 -260s-159 -108 -260 -108zM401 48c88 0 163 31 224 93c62 63 93 138 93 225s-31 161 -92 223
s-136 93 -225 93c-87 0 -162 -31 -225 -93c-62 -61 -93 -136 -93 -223s31 -162 93 -225c63 -62 138 -93 225 -93zM401 70c-82 0 -152 29 -210 86c-57 58 -86 128 -86 210c0 80 29 149 87 206s128 86 209 86s150 -29 208 -86s87 -125 87 -206c0 -82 -29 -152 -87 -210
c-58 -57 -127 -86 -208 -86zM401 115c37 0 71 13 103 38c24 19 45 43 63 73c-54 -14 -108 -21 -163 -21s-112 7 -169 21c18 -29 39 -53 62 -72c33 -26 67 -39 104 -39zM167 331l57 -89c60 -13 114 -21 177 -21c57 0 117 7 178 21l56 89h-468zM402 460l-40 -94h79zM228 534
l77 -96c3 -3 10 -1 20 4c11 5 16 9 15 11l-51 116c-5 5 -17 1 -36 -11c-8 -9 -16 -17 -25 -24zM499 438l74 96c3 3 -6 11 -25 23c-19 13 -30 17 -34 12c-20 -27 -34 -76 -49 -116c2 -3 4 -5 7 -7c13 -9 22 -12 27 -8zM681 7h-11v40h-16v11h43v-11h-16v-40zM711 7h-9v51h16
l9 -39l9 39h15v-51h-9v40l-11 -40h-9l-11 40v-40z" />
    <glyph glyph-name="divide" unicode="&#xf7;" 
d="M401 -2c-101 0 -188 36 -260 107c-71 72 -107 159 -107 261c0 101 36 187 107 259s158 108 260 108c101 0 188 -36 260 -108s108 -158 108 -259s-36 -188 -108 -260s-159 -108 -260 -108zM401 48c88 0 163 31 224 93c62 63 93 138 93 225s-31 161 -92 223
s-136 93 -225 93c-87 0 -162 -31 -225 -93c-62 -61 -93 -136 -93 -223s31 -162 93 -225c63 -62 138 -93 225 -93zM401 70c-82 0 -152 29 -210 86c-57 58 -86 128 -86 210c0 80 29 149 87 206s128 86 209 86s150 -29 208 -86s87 -125 87 -206c0 -82 -29 -152 -87 -210
c-58 -57 -127 -86 -208 -86zM401 115c37 0 71 13 103 38c24 19 45 43 63 73c-54 -14 -108 -21 -163 -21s-112 7 -169 21c18 -29 39 -53 62 -72c33 -26 67 -39 104 -39zM167 331l57 -89c60 -13 114 -21 177 -21c57 0 117 7 178 21l56 89h-468zM402 460l-40 -94h79zM228 534
l77 -96c3 -3 10 -1 20 4c11 5 16 9 15 11l-51 116c-5 5 -17 1 -36 -11c-8 -9 -16 -17 -25 -24zM499 438l74 96c3 3 -6 11 -25 23c-19 13 -30 17 -34 12c-20 -27 -34 -76 -49 -116c2 -3 4 -5 7 -7c13 -9 22 -12 27 -8zM681 7h-11v40h-16v11h43v-11h-16v-40zM711 7h-9v51h16
l9 -39l9 39h15v-51h-9v40l-11 -40h-9l-11 40v-40z" />
    <glyph glyph-name="oslash" unicode="&#xf8;" 
d="M401 -2c-101 0 -188 36 -260 107c-71 72 -107 159 -107 261c0 101 36 187 107 259s158 108 260 108c101 0 188 -36 260 -108s108 -158 108 -259s-36 -188 -108 -260s-159 -108 -260 -108zM401 48c88 0 163 31 224 93c62 63 93 138 93 225s-31 161 -92 223
s-136 93 -225 93c-87 0 -162 -31 -225 -93c-62 -61 -93 -136 -93 -223s31 -162 93 -225c63 -62 138 -93 225 -93zM401 70c-82 0 -152 29 -210 86c-57 58 -86 128 -86 210c0 80 29 149 87 206s128 86 209 86s150 -29 208 -86s87 -125 87 -206c0 -82 -29 -152 -87 -210
c-58 -57 -127 -86 -208 -86zM401 115c37 0 71 13 103 38c24 19 45 43 63 73c-54 -14 -108 -21 -163 -21s-112 7 -169 21c18 -29 39 -53 62 -72c33 -26 67 -39 104 -39zM167 331l57 -89c60 -13 114 -21 177 -21c57 0 117 7 178 21l56 89h-468zM402 460l-40 -94h79zM228 534
l77 -96c3 -3 10 -1 20 4c11 5 16 9 15 11l-51 116c-5 5 -17 1 -36 -11c-8 -9 -16 -17 -25 -24zM499 438l74 96c3 3 -6 11 -25 23c-19 13 -30 17 -34 12c-20 -27 -34 -76 -49 -116c2 -3 4 -5 7 -7c13 -9 22 -12 27 -8zM681 7h-11v40h-16v11h43v-11h-16v-40zM711 7h-9v51h16
l9 -39l9 39h15v-51h-9v40l-11 -40h-9l-11 40v-40z" />
    <glyph glyph-name="ugrave" unicode="&#xf9;" 
d="M401 -2c-101 0 -188 36 -260 107c-71 72 -107 159 -107 261c0 101 36 187 107 259s158 108 260 108c101 0 188 -36 260 -108s108 -158 108 -259s-36 -188 -108 -260s-159 -108 -260 -108zM401 48c88 0 163 31 224 93c62 63 93 138 93 225s-31 161 -92 223
s-136 93 -225 93c-87 0 -162 -31 -225 -93c-62 -61 -93 -136 -93 -223s31 -162 93 -225c63 -62 138 -93 225 -93zM401 70c-82 0 -152 29 -210 86c-57 58 -86 128 -86 210c0 80 29 149 87 206s128 86 209 86s150 -29 208 -86s87 -125 87 -206c0 -82 -29 -152 -87 -210
c-58 -57 -127 -86 -208 -86zM401 115c37 0 71 13 103 38c24 19 45 43 63 73c-54 -14 -108 -21 -163 -21s-112 7 -169 21c18 -29 39 -53 62 -72c33 -26 67 -39 104 -39zM167 331l57 -89c60 -13 114 -21 177 -21c57 0 117 7 178 21l56 89h-468zM402 460l-40 -94h79zM228 534
l77 -96c3 -3 10 -1 20 4c11 5 16 9 15 11l-51 116c-5 5 -17 1 -36 -11c-8 -9 -16 -17 -25 -24zM499 438l74 96c3 3 -6 11 -25 23c-19 13 -30 17 -34 12c-20 -27 -34 -76 -49 -116c2 -3 4 -5 7 -7c13 -9 22 -12 27 -8zM681 7h-11v40h-16v11h43v-11h-16v-40zM711 7h-9v51h16
l9 -39l9 39h15v-51h-9v40l-11 -40h-9l-11 40v-40z" />
    <glyph glyph-name="uacute" unicode="&#xfa;" 
d="M401 -2c-101 0 -188 36 -260 107c-71 72 -107 159 -107 261c0 101 36 187 107 259s158 108 260 108c101 0 188 -36 260 -108s108 -158 108 -259s-36 -188 -108 -260s-159 -108 -260 -108zM401 48c88 0 163 31 224 93c62 63 93 138 93 225s-31 161 -92 223
s-136 93 -225 93c-87 0 -162 -31 -225 -93c-62 -61 -93 -136 -93 -223s31 -162 93 -225c63 -62 138 -93 225 -93zM401 70c-82 0 -152 29 -210 86c-57 58 -86 128 -86 210c0 80 29 149 87 206s128 86 209 86s150 -29 208 -86s87 -125 87 -206c0 -82 -29 -152 -87 -210
c-58 -57 -127 -86 -208 -86zM401 115c37 0 71 13 103 38c24 19 45 43 63 73c-54 -14 -108 -21 -163 -21s-112 7 -169 21c18 -29 39 -53 62 -72c33 -26 67 -39 104 -39zM167 331l57 -89c60 -13 114 -21 177 -21c57 0 117 7 178 21l56 89h-468zM402 460l-40 -94h79zM228 534
l77 -96c3 -3 10 -1 20 4c11 5 16 9 15 11l-51 116c-5 5 -17 1 -36 -11c-8 -9 -16 -17 -25 -24zM499 438l74 96c3 3 -6 11 -25 23c-19 13 -30 17 -34 12c-20 -27 -34 -76 -49 -116c2 -3 4 -5 7 -7c13 -9 22 -12 27 -8zM681 7h-11v40h-16v11h43v-11h-16v-40zM711 7h-9v51h16
l9 -39l9 39h15v-51h-9v40l-11 -40h-9l-11 40v-40z" />
    <glyph glyph-name="ucircumflex" unicode="&#xfb;" 
d="M401 -2c-101 0 -188 36 -260 107c-71 72 -107 159 -107 261c0 101 36 187 107 259s158 108 260 108c101 0 188 -36 260 -108s108 -158 108 -259s-36 -188 -108 -260s-159 -108 -260 -108zM401 48c88 0 163 31 224 93c62 63 93 138 93 225s-31 161 -92 223
s-136 93 -225 93c-87 0 -162 -31 -225 -93c-62 -61 -93 -136 -93 -223s31 -162 93 -225c63 -62 138 -93 225 -93zM401 70c-82 0 -152 29 -210 86c-57 58 -86 128 -86 210c0 80 29 149 87 206s128 86 209 86s150 -29 208 -86s87 -125 87 -206c0 -82 -29 -152 -87 -210
c-58 -57 -127 -86 -208 -86zM401 115c37 0 71 13 103 38c24 19 45 43 63 73c-54 -14 -108 -21 -163 -21s-112 7 -169 21c18 -29 39 -53 62 -72c33 -26 67 -39 104 -39zM167 331l57 -89c60 -13 114 -21 177 -21c57 0 117 7 178 21l56 89h-468zM402 460l-40 -94h79zM228 534
l77 -96c3 -3 10 -1 20 4c11 5 16 9 15 11l-51 116c-5 5 -17 1 -36 -11c-8 -9 -16 -17 -25 -24zM499 438l74 96c3 3 -6 11 -25 23c-19 13 -30 17 -34 12c-20 -27 -34 -76 -49 -116c2 -3 4 -5 7 -7c13 -9 22 -12 27 -8zM681 7h-11v40h-16v11h43v-11h-16v-40zM711 7h-9v51h16
l9 -39l9 39h15v-51h-9v40l-11 -40h-9l-11 40v-40z" />
    <glyph glyph-name="udieresis" unicode="&#xfc;" 
d="M401 -2c-101 0 -188 36 -260 107c-71 72 -107 159 -107 261c0 101 36 187 107 259s158 108 260 108c101 0 188 -36 260 -108s108 -158 108 -259s-36 -188 -108 -260s-159 -108 -260 -108zM401 48c88 0 163 31 224 93c62 63 93 138 93 225s-31 161 -92 223
s-136 93 -225 93c-87 0 -162 -31 -225 -93c-62 -61 -93 -136 -93 -223s31 -162 93 -225c63 -62 138 -93 225 -93zM401 70c-82 0 -152 29 -210 86c-57 58 -86 128 -86 210c0 80 29 149 87 206s128 86 209 86s150 -29 208 -86s87 -125 87 -206c0 -82 -29 -152 -87 -210
c-58 -57 -127 -86 -208 -86zM401 115c37 0 71 13 103 38c24 19 45 43 63 73c-54 -14 -108 -21 -163 -21s-112 7 -169 21c18 -29 39 -53 62 -72c33 -26 67 -39 104 -39zM167 331l57 -89c60 -13 114 -21 177 -21c57 0 117 7 178 21l56 89h-468zM402 460l-40 -94h79zM228 534
l77 -96c3 -3 10 -1 20 4c11 5 16 9 15 11l-51 116c-5 5 -17 1 -36 -11c-8 -9 -16 -17 -25 -24zM499 438l74 96c3 3 -6 11 -25 23c-19 13 -30 17 -34 12c-20 -27 -34 -76 -49 -116c2 -3 4 -5 7 -7c13 -9 22 -12 27 -8zM681 7h-11v40h-16v11h43v-11h-16v-40zM711 7h-9v51h16
l9 -39l9 39h15v-51h-9v40l-11 -40h-9l-11 40v-40z" />
    <glyph glyph-name="yacute" unicode="&#xfd;" 
d="M401 -2c-101 0 -188 36 -260 107c-71 72 -107 159 -107 261c0 101 36 187 107 259s158 108 260 108c101 0 188 -36 260 -108s108 -158 108 -259s-36 -188 -108 -260s-159 -108 -260 -108zM401 48c88 0 163 31 224 93c62 63 93 138 93 225s-31 161 -92 223
s-136 93 -225 93c-87 0 -162 -31 -225 -93c-62 -61 -93 -136 -93 -223s31 -162 93 -225c63 -62 138 -93 225 -93zM401 70c-82 0 -152 29 -210 86c-57 58 -86 128 -86 210c0 80 29 149 87 206s128 86 209 86s150 -29 208 -86s87 -125 87 -206c0 -82 -29 -152 -87 -210
c-58 -57 -127 -86 -208 -86zM401 115c37 0 71 13 103 38c24 19 45 43 63 73c-54 -14 -108 -21 -163 -21s-112 7 -169 21c18 -29 39 -53 62 -72c33 -26 67 -39 104 -39zM167 331l57 -89c60 -13 114 -21 177 -21c57 0 117 7 178 21l56 89h-468zM402 460l-40 -94h79zM228 534
l77 -96c3 -3 10 -1 20 4c11 5 16 9 15 11l-51 116c-5 5 -17 1 -36 -11c-8 -9 -16 -17 -25 -24zM499 438l74 96c3 3 -6 11 -25 23c-19 13 -30 17 -34 12c-20 -27 -34 -76 -49 -116c2 -3 4 -5 7 -7c13 -9 22 -12 27 -8zM681 7h-11v40h-16v11h43v-11h-16v-40zM711 7h-9v51h16
l9 -39l9 39h15v-51h-9v40l-11 -40h-9l-11 40v-40z" />
    <glyph glyph-name="thorn" unicode="&#xfe;" 
d="M401 -2c-101 0 -188 36 -260 107c-71 72 -107 159 -107 261c0 101 36 187 107 259s158 108 260 108c101 0 188 -36 260 -108s108 -158 108 -259s-36 -188 -108 -260s-159 -108 -260 -108zM401 48c88 0 163 31 224 93c62 63 93 138 93 225s-31 161 -92 223
s-136 93 -225 93c-87 0 -162 -31 -225 -93c-62 -61 -93 -136 -93 -223s31 -162 93 -225c63 -62 138 -93 225 -93zM401 70c-82 0 -152 29 -210 86c-57 58 -86 128 -86 210c0 80 29 149 87 206s128 86 209 86s150 -29 208 -86s87 -125 87 -206c0 -82 -29 -152 -87 -210
c-58 -57 -127 -86 -208 -86zM401 115c37 0 71 13 103 38c24 19 45 43 63 73c-54 -14 -108 -21 -163 -21s-112 7 -169 21c18 -29 39 -53 62 -72c33 -26 67 -39 104 -39zM167 331l57 -89c60 -13 114 -21 177 -21c57 0 117 7 178 21l56 89h-468zM402 460l-40 -94h79zM228 534
l77 -96c3 -3 10 -1 20 4c11 5 16 9 15 11l-51 116c-5 5 -17 1 -36 -11c-8 -9 -16 -17 -25 -24zM499 438l74 96c3 3 -6 11 -25 23c-19 13 -30 17 -34 12c-20 -27 -34 -76 -49 -116c2 -3 4 -5 7 -7c13 -9 22 -12 27 -8zM681 7h-11v40h-16v11h43v-11h-16v-40zM711 7h-9v51h16
l9 -39l9 39h15v-51h-9v40l-11 -40h-9l-11 40v-40z" />
    <glyph glyph-name="ydieresis" unicode="&#xff;" 
d="M401 -2c-101 0 -188 36 -260 107c-71 72 -107 159 -107 261c0 101 36 187 107 259s158 108 260 108c101 0 188 -36 260 -108s108 -158 108 -259s-36 -188 -108 -260s-159 -108 -260 -108zM401 48c88 0 163 31 224 93c62 63 93 138 93 225s-31 161 -92 223
s-136 93 -225 93c-87 0 -162 -31 -225 -93c-62 -61 -93 -136 -93 -223s31 -162 93 -225c63 -62 138 -93 225 -93zM401 70c-82 0 -152 29 -210 86c-57 58 -86 128 -86 210c0 80 29 149 87 206s128 86 209 86s150 -29 208 -86s87 -125 87 -206c0 -82 -29 -152 -87 -210
c-58 -57 -127 -86 -208 -86zM401 115c37 0 71 13 103 38c24 19 45 43 63 73c-54 -14 -108 -21 -163 -21s-112 7 -169 21c18 -29 39 -53 62 -72c33 -26 67 -39 104 -39zM167 331l57 -89c60 -13 114 -21 177 -21c57 0 117 7 178 21l56 89h-468zM402 460l-40 -94h79zM228 534
l77 -96c3 -3 10 -1 20 4c11 5 16 9 15 11l-51 116c-5 5 -17 1 -36 -11c-8 -9 -16 -17 -25 -24zM499 438l74 96c3 3 -6 11 -25 23c-19 13 -30 17 -34 12c-20 -27 -34 -76 -49 -116c2 -3 4 -5 7 -7c13 -9 22 -12 27 -8zM681 7h-11v40h-16v11h43v-11h-16v-40zM711 7h-9v51h16
l9 -39l9 39h15v-51h-9v40l-11 -40h-9l-11 40v-40z" />
    <glyph glyph-name="brokenbar" unicode="&#xa6;" horiz-adv-x="548" 
d="M507 369c2 -116 -77 -179 -241 -179c-87 0 -187 10 -191 29l-28 131c-3 13 10 21 21 17c80 -26 146 -30 203 -28c14 1 17 15 5 22c-30 19 -238 12 -240 173c-1 94 50 152 153 171l-11 50c-3 14 12 26 26 26h136c14 0 29 -12 26 -26l-10 -45c60 -4 110 -14 113 -27
l28 -131c3 -13 -10 -20 -22 -16c-80 25 -156 31 -201 27c-14 -1 -18 -14 -6 -22c29 -19 237 -12 239 -172zM272 170c51 0 92 -41 92 -92s-41 -92 -92 -92s-92 41 -92 92s41 92 92 92zM247 77c0 -13 11 -24 24 -24s24 11 24 24s-11 24 -24 24s-24 -11 -24 -24zM414 614l-7 30
c-39 8 -79 13 -120 13v74h-31v-76c-68 -7 -137 -38 -127 -119c10 -72 82 -87 142 -98c58 -13 114 -24 113 -91c0 -68 -108 -69 -154 -69c-35 1 -70 5 -100 11l7 -29c29 -6 61 -10 93 -10c66 0 187 2 187 96c1 93 -70 107 -141 121c-42 8 -111 18 -118 72
c-10 76 85 91 134 91c43 0 87 -7 122 -16z" />
    <glyph glyph-name="section" unicode="&#xa7;" horiz-adv-x="554" 
d="M303 170c51 0 92 -41 92 -92s-41 -92 -92 -92s-92 41 -92 92s41 92 92 92zM36 450c1 149 83 227 185 253l-12 52c-3 14 12 26 26 26h136c14 0 29 -12 26 -26l-11 -49c50 -7 99 -20 104 -38l33 -139c3 -13 -3 -23 -18 -18c-33 10 -69 16 -130 15c-72 0 -111 -30 -111 -76
c0 -52 39 -82 111 -83c61 0 97 13 130 23c15 4 21 -5 18 -18l-34 -139c-6 -28 -128 -44 -183 -45c-136 -1 -271 73 -270 262zM413 606l-7 28c-31 4 -57 5 -88 2v95h-30v-98c-55 -9 -109 -33 -134 -84c-12 -26 -21 -56 -22 -85c-6 -125 71 -203 208 -201c21 0 43 2 64 6l8 29
c-23 -4 -47 -6 -70 -6c-115 0 -181 61 -175 171c1 25 7 50 18 72c21 42 61 64 114 71c36 5 76 4 114 0zM327 78c0 14 -10 25 -24 25s-24 -11 -24 -25s10 -25 24 -25s24 11 24 25z" />
    <glyph glyph-name="uni00AD" unicode="&#xad;" 
d="M401 -2c-101 0 -188 36 -260 107c-71 72 -107 159 -107 261c0 101 36 187 107 259s158 108 260 108c101 0 188 -36 260 -108s108 -158 108 -259s-36 -188 -108 -260s-159 -108 -260 -108zM401 48c88 0 163 31 224 93c62 63 93 138 93 225s-31 161 -92 223
s-136 93 -225 93c-87 0 -162 -31 -225 -93c-62 -61 -93 -136 -93 -223s31 -162 93 -225c63 -62 138 -93 225 -93zM401 70c-82 0 -152 29 -210 86c-57 58 -86 128 -86 210c0 80 29 149 87 206s128 86 209 86s150 -29 208 -86s87 -125 87 -206c0 -82 -29 -152 -87 -210
c-58 -57 -127 -86 -208 -86zM401 115c37 0 71 13 103 38c24 19 45 43 63 73c-54 -14 -108 -21 -163 -21s-112 7 -169 21c18 -29 39 -53 62 -72c33 -26 67 -39 104 -39zM167 331l57 -89c60 -13 114 -21 177 -21c57 0 117 7 178 21l56 89h-468zM402 460l-40 -94h79zM228 534
l77 -96c3 -3 10 -1 20 4c11 5 16 9 15 11l-51 116c-5 5 -17 1 -36 -11c-8 -9 -16 -17 -25 -24zM499 438l74 96c3 3 -6 11 -25 23c-19 13 -30 17 -34 12c-20 -27 -34 -76 -49 -116c2 -3 4 -5 7 -7c13 -9 22 -12 27 -8zM681 7h-11v40h-16v11h43v-11h-16v-40zM711 7h-9v51h16
l9 -39l9 39h15v-51h-9v40l-11 -40h-9l-11 40v-40z" />
    <glyph glyph-name="macron" unicode="&#xaf;" 
d="M401 -2c-101 0 -188 36 -260 107c-71 72 -107 159 -107 261c0 101 36 187 107 259s158 108 260 108c101 0 188 -36 260 -108s108 -158 108 -259s-36 -188 -108 -260s-159 -108 -260 -108zM401 48c88 0 163 31 224 93c62 63 93 138 93 225s-31 161 -92 223
s-136 93 -225 93c-87 0 -162 -31 -225 -93c-62 -61 -93 -136 -93 -223s31 -162 93 -225c63 -62 138 -93 225 -93zM401 70c-82 0 -152 29 -210 86c-57 58 -86 128 -86 210c0 80 29 149 87 206s128 86 209 86s150 -29 208 -86s87 -125 87 -206c0 -82 -29 -152 -87 -210
c-58 -57 -127 -86 -208 -86zM401 115c37 0 71 13 103 38c24 19 45 43 63 73c-54 -14 -108 -21 -163 -21s-112 7 -169 21c18 -29 39 -53 62 -72c33 -26 67 -39 104 -39zM167 331l57 -89c60 -13 114 -21 177 -21c57 0 117 7 178 21l56 89h-468zM402 460l-40 -94h79zM228 534
l77 -96c3 -3 10 -1 20 4c11 5 16 9 15 11l-51 116c-5 5 -17 1 -36 -11c-8 -9 -16 -17 -25 -24zM499 438l74 96c3 3 -6 11 -25 23c-19 13 -30 17 -34 12c-20 -27 -34 -76 -49 -116c2 -3 4 -5 7 -7c13 -9 22 -12 27 -8zM681 7h-11v40h-16v11h43v-11h-16v-40zM711 7h-9v51h16
l9 -39l9 39h15v-51h-9v40l-11 -40h-9l-11 40v-40z" />
    </font>
</defs>
</svg>
